<svg width="135" height="40" viewBox="0 0 135 40" fill="none" xmlns="http://www.w3.org/2000/svg">
<rect x="0.5" y="0.5" width="134" height="39" rx="3.5" fill="black"/>
<path d="M17.9911 30.7175C17.5119 30.3968 17.0865 30.004 16.731 29.5503C16.343 29.0803 15.9835 28.586 15.6532 28.0744C14.8773 26.9376 14.2706 25.6941 13.8503 24.3837C13.3438 22.8592 13.0977 21.3995 13.0977 19.9714C13.0977 18.3778 13.442 16.9872 14.1126 15.8199C14.6089 14.9064 15.3484 14.1421 16.2397 13.6051C17.1007 13.0671 18.1035 12.7728 19.1164 12.7525C19.4709 12.7525 19.8558 12.8032 20.261 12.9047C20.5547 12.9859 20.9093 13.1179 21.3448 13.2803C21.9019 13.4934 22.2058 13.6254 22.3071 13.6559C22.6312 13.7777 22.9047 13.8284 23.1174 13.8284C23.2795 13.8284 23.5125 13.7777 23.7707 13.6965C23.9176 13.6457 24.1962 13.5543 24.5912 13.3818C24.9822 13.2397 25.2921 13.1179 25.5383 13.0265C25.9131 12.9149 26.2757 12.8134 26.6018 12.7626C26.9969 12.7017 27.3889 12.6814 27.7647 12.7119C28.4838 12.7626 29.1422 12.9149 29.7297 13.1382C30.7629 13.5543 31.5965 14.204 32.2185 15.1276C31.9551 15.2901 31.712 15.4789 31.4841 15.6859C30.9908 16.1224 30.5725 16.64 30.2382 17.2135C29.8027 17.9951 29.5798 18.8782 29.5859 19.7714C29.6011 20.8707 29.8796 21.837 30.4367 22.6744C30.8287 23.2834 31.3524 23.8052 31.9906 24.2335C32.3046 24.4467 32.5801 24.5938 32.8414 24.6903C32.7199 25.0709 32.5861 25.4414 32.4312 25.8068C32.0797 26.6259 31.6614 27.4106 31.165 28.1515C30.7274 28.791 30.3831 29.2681 30.1217 29.5827C29.7145 30.0699 29.3215 30.4354 28.9265 30.6962C28.4909 30.9855 27.9794 31.1388 27.4557 31.1388C27.1012 31.154 26.7467 31.1083 26.4084 31.0099C26.1146 30.9134 25.8249 30.8048 25.5413 30.682C25.2445 30.546 24.9376 30.4303 24.6246 30.3369C24.2397 30.2354 23.8447 30.1867 23.4456 30.1877C23.0404 30.1877 22.6454 30.2384 22.2706 30.3349C21.9566 30.4242 21.6527 30.5338 21.3519 30.6648C20.9265 30.8424 20.6479 30.9591 20.4859 31.0099C20.1577 31.1073 19.8214 31.1662 19.4831 31.1875C18.9564 31.1875 18.4661 31.0352 17.9779 30.7307L17.9911 30.7175ZM24.9336 11.98C24.2448 12.3251 23.5904 12.4713 22.9351 12.4226C22.8338 11.7669 22.9351 11.0929 23.2086 10.355C23.4517 9.72564 23.7758 9.15723 24.2215 8.64971C24.6874 8.12189 25.2445 7.68543 25.8725 7.37077C26.5411 7.02566 27.1792 6.84295 27.787 6.8125C27.868 7.50272 27.787 8.18279 27.5337 8.91362C27.3028 9.56324 26.9584 10.1621 26.5208 10.7001C26.0802 11.2279 25.5332 11.6644 24.9143 11.979L24.9336 11.98Z" fill="white"/>
<path d="M51.4639 28.0205H46.5068L45.4697 31H43.1582L47.9922 18.2031H49.9873L54.8301 31H52.5098L51.4639 28.0205ZM47.1309 26.2275H50.8398L48.9854 20.9189L47.1309 26.2275Z" fill="white"/>
<path d="M64.1883 26.3418C64.1883 27.8125 63.8543 28.9873 63.1863 29.8662C62.5184 30.7393 61.6219 31.1758 60.4969 31.1758C59.4539 31.1758 58.6189 30.833 57.992 30.1475V34.6562H55.8562V21.4902H57.825L57.9129 22.457C58.5398 21.6953 59.3924 21.3145 60.4705 21.3145C61.6307 21.3145 62.5389 21.748 63.1951 22.6152C63.8572 23.4766 64.1883 24.6748 64.1883 26.21V26.3418ZM62.0613 26.1572C62.0613 25.208 61.8709 24.4551 61.49 23.8984C61.115 23.3418 60.576 23.0635 59.8729 23.0635C58.9998 23.0635 58.3729 23.4238 57.992 24.1445V28.3633C58.3787 29.1016 59.0115 29.4707 59.8904 29.4707C60.5701 29.4707 61.1004 29.1982 61.4813 28.6533C61.868 28.1025 62.0613 27.2705 62.0613 26.1572Z" fill="white"/>
<path d="M74.5309 26.3418C74.5309 27.8125 74.1969 28.9873 73.5289 29.8662C72.8609 30.7393 71.9645 31.1758 70.8395 31.1758C69.7965 31.1758 68.9615 30.833 68.3346 30.1475V34.6562H66.1988V21.4902H68.1676L68.2555 22.457C68.8824 21.6953 69.735 21.3145 70.8131 21.3145C71.9732 21.3145 72.8814 21.748 73.5377 22.6152C74.1998 23.4766 74.5309 24.6748 74.5309 26.21V26.3418ZM72.4039 26.1572C72.4039 25.208 72.2135 24.4551 71.8326 23.8984C71.4576 23.3418 70.9186 23.0635 70.2154 23.0635C69.3424 23.0635 68.7154 23.4238 68.3346 24.1445V28.3633C68.7213 29.1016 69.3541 29.4707 70.233 29.4707C70.9127 29.4707 71.443 29.1982 71.8238 28.6533C72.2105 28.1025 72.4039 27.2705 72.4039 26.1572Z" fill="white"/>
<path d="M88.1232 27.7041C88.1232 27.1416 87.924 26.708 87.5256 26.4033C87.133 26.0986 86.4211 25.791 85.3898 25.4805C84.3586 25.1699 83.5383 24.8242 82.9289 24.4434C81.7629 23.7109 81.1799 22.7559 81.1799 21.5781C81.1799 20.5469 81.5988 19.6973 82.4367 19.0293C83.2805 18.3613 84.3732 18.0273 85.715 18.0273C86.6057 18.0273 87.3996 18.1914 88.0969 18.5195C88.7941 18.8477 89.342 19.3164 89.7404 19.9258C90.1389 20.5293 90.3381 21.2002 90.3381 21.9385H88.1232C88.1232 21.2705 87.9123 20.749 87.4904 20.374C87.0744 19.9932 86.4768 19.8027 85.6975 19.8027C84.9709 19.8027 84.4055 19.958 84.0012 20.2686C83.6027 20.5791 83.4035 21.0127 83.4035 21.5693C83.4035 22.0381 83.6203 22.4307 84.0539 22.7471C84.4875 23.0576 85.2023 23.3623 86.1984 23.6611C87.1945 23.9541 87.9943 24.291 88.5979 24.6719C89.2014 25.0469 89.6437 25.4805 89.925 25.9727C90.2062 26.459 90.3469 27.0303 90.3469 27.6865C90.3469 28.7529 89.9367 29.6025 89.1164 30.2354C88.302 30.8623 87.1945 31.1758 85.7941 31.1758C84.8684 31.1758 84.0158 31.0059 83.2365 30.666C82.4631 30.3203 81.8596 29.8457 81.426 29.2422C80.9982 28.6387 80.7844 27.9355 80.7844 27.1328H83.008C83.008 27.8594 83.2482 28.4219 83.7287 28.8203C84.2092 29.2188 84.8977 29.418 85.7941 29.418C86.5676 29.418 87.1477 29.2627 87.5344 28.9521C87.927 28.6357 88.1232 28.2197 88.1232 27.7041Z" fill="white"/>
<path d="M94.9678 19.1787V21.4902H96.6465V23.0723H94.9678V28.3809C94.9678 28.7441 95.0381 29.0078 95.1787 29.1719C95.3252 29.3301 95.583 29.4092 95.9521 29.4092C96.1982 29.4092 96.4473 29.3799 96.6992 29.3213V30.9736C96.2129 31.1084 95.7441 31.1758 95.293 31.1758C93.6523 31.1758 92.832 30.2705 92.832 28.46V23.0723H91.2676V21.4902H92.832V19.1787H94.9678Z" fill="white"/>
<path d="M97.8221 26.1572C97.8221 25.2256 98.0066 24.3877 98.3758 23.6436C98.7449 22.8936 99.2635 22.3193 99.9314 21.9209C100.599 21.5166 101.367 21.3145 102.234 21.3145C103.517 21.3145 104.557 21.7275 105.354 22.5537C106.157 23.3799 106.591 24.4756 106.655 25.8408L106.664 26.3418C106.664 27.2793 106.482 28.1172 106.119 28.8555C105.762 29.5938 105.246 30.165 104.572 30.5693C103.904 30.9736 103.131 31.1758 102.252 31.1758C100.91 31.1758 99.8348 30.7305 99.0262 29.8398C98.2234 28.9434 97.8221 27.751 97.8221 26.2627V26.1572ZM99.9578 26.3418C99.9578 27.3203 100.16 28.0879 100.564 28.6445C100.969 29.1953 101.531 29.4707 102.252 29.4707C102.972 29.4707 103.532 29.1895 103.93 28.627C104.335 28.0645 104.537 27.2412 104.537 26.1572C104.537 25.1963 104.329 24.4346 103.913 23.8721C103.503 23.3096 102.943 23.0283 102.234 23.0283C101.537 23.0283 100.983 23.3066 100.573 23.8633C100.163 24.4141 99.9578 25.2402 99.9578 26.3418Z" fill="white"/>
<path d="M113.649 23.4414C113.368 23.3945 113.078 23.3711 112.779 23.3711C111.8 23.3711 111.141 23.7461 110.801 24.4961V31H108.666V21.4902H110.705L110.757 22.5537C111.273 21.7275 111.988 21.3145 112.902 21.3145C113.207 21.3145 113.459 21.3555 113.658 21.4375L113.649 23.4414Z" fill="white"/>
<path d="M119.21 31.1758C117.857 31.1758 116.758 30.751 115.914 29.9014C115.077 29.0459 114.658 27.9092 114.658 26.4912V26.2275C114.658 25.2783 114.839 24.4316 115.203 23.6875C115.572 22.9375 116.087 22.3545 116.749 21.9385C117.412 21.5225 118.15 21.3145 118.964 21.3145C120.259 21.3145 121.258 21.7275 121.961 22.5537C122.67 23.3799 123.025 24.5488 123.025 26.0605V26.9219H116.811C116.875 27.707 117.136 28.3281 117.593 28.7852C118.056 29.2422 118.636 29.4707 119.333 29.4707C120.312 29.4707 121.109 29.0752 121.724 28.2842L122.875 29.3828C122.495 29.9512 121.985 30.3936 121.346 30.71C120.713 31.0205 120.001 31.1758 119.21 31.1758ZM118.955 23.0283C118.37 23.0283 117.895 23.2334 117.532 23.6436C117.174 24.0537 116.946 24.625 116.846 25.3574H120.915V25.1992C120.869 24.4844 120.678 23.9453 120.344 23.582C120.01 23.2129 119.547 23.0283 118.955 23.0283Z" fill="white"/>
<path d="M46.224 7.84C45.6107 7.84 45.128 8.04533 44.776 8.456C44.424 8.86667 44.248 9.42933 44.248 10.144C44.248 10.8533 44.4107 11.416 44.736 11.832C45.0667 12.2427 45.56 12.448 46.216 12.448C46.4667 12.448 46.704 12.4267 46.928 12.384C47.152 12.3413 47.3707 12.288 47.584 12.224V12.848C47.3707 12.928 47.1493 12.9867 46.92 13.024C46.696 13.0613 46.4267 13.08 46.112 13.08C45.5307 13.08 45.0453 12.96 44.656 12.72C44.2667 12.48 43.9733 12.1387 43.776 11.696C43.584 11.2533 43.488 10.7333 43.488 10.136C43.488 9.56 43.592 9.05333 43.8 8.616C44.0133 8.17333 44.3253 7.82933 44.736 7.584C45.1467 7.33333 45.6453 7.208 46.232 7.208C46.8347 7.208 47.36 7.32 47.808 7.544L47.52 8.152C47.344 8.072 47.1467 8 46.928 7.936C46.7147 7.872 46.48 7.84 46.224 7.84ZM51.2707 8.712H52.0387L50.2067 10.776L52.1907 13H51.3747L49.4387 10.824V13H48.7347V8.712H49.4387V10.792L51.2707 8.712ZM54.5931 8.64C55.1157 8.64 55.5024 8.75467 55.7531 8.984C56.0037 9.21333 56.1291 9.57867 56.1291 10.08V13H55.6171L55.4811 12.392H55.4491C55.2624 12.6267 55.0651 12.8 54.8571 12.912C54.6544 13.024 54.3717 13.08 54.0091 13.08C53.6197 13.08 53.2971 12.9787 53.0411 12.776C52.7851 12.568 52.6571 12.2453 52.6571 11.808C52.6571 11.3813 52.8251 11.0533 53.1611 10.824C53.4971 10.5893 54.0144 10.4613 54.7131 10.44L55.4411 10.416V10.16C55.4411 9.80267 55.3637 9.55467 55.2091 9.416C55.0544 9.27733 54.8357 9.208 54.5531 9.208C54.3291 9.208 54.1157 9.24267 53.9131 9.312C53.7104 9.376 53.5211 9.45067 53.3451 9.536L53.1291 9.008C53.3157 8.90667 53.5371 8.82133 53.7931 8.752C54.0491 8.67733 54.3157 8.64 54.5931 8.64ZM54.8011 10.928C54.2677 10.9493 53.8971 11.0347 53.6891 11.184C53.4864 11.3333 53.3851 11.544 53.3851 11.816C53.3851 12.056 53.4571 12.232 53.6011 12.344C53.7504 12.456 53.9397 12.512 54.1691 12.512C54.5317 12.512 54.8331 12.4133 55.0731 12.216C55.3131 12.0133 55.4331 11.704 55.4331 11.288V10.904L54.8011 10.928ZM58.0694 10.272C58.0694 10.7627 58.3441 11.008 58.8934 11.008C59.1601 11.008 59.4028 10.968 59.6214 10.888C59.8401 10.8027 60.0641 10.6907 60.2934 10.552V8.712H60.9974V13H60.2934V11.088C60.0534 11.2427 59.8161 11.3653 59.5814 11.456C59.3521 11.5413 59.0748 11.584 58.7494 11.584C58.3121 11.584 57.9708 11.4693 57.7254 11.24C57.4854 11.0107 57.3654 10.704 57.3654 10.32V8.712H58.0694V10.272ZM63.9837 8.64C64.5064 8.64 64.893 8.75467 65.1437 8.984C65.3944 9.21333 65.5197 9.57867 65.5197 10.08V13H65.0077L64.8717 12.392H64.8397C64.653 12.6267 64.4557 12.8 64.2477 12.912C64.045 13.024 63.7624 13.08 63.3997 13.08C63.0104 13.08 62.6877 12.9787 62.4317 12.776C62.1757 12.568 62.0477 12.2453 62.0477 11.808C62.0477 11.3813 62.2157 11.0533 62.5517 10.824C62.8877 10.5893 63.405 10.4613 64.1037 10.44L64.8317 10.416V10.16C64.8317 9.80267 64.7544 9.55467 64.5997 9.416C64.445 9.27733 64.2264 9.208 63.9437 9.208C63.7197 9.208 63.5064 9.24267 63.3037 9.312C63.101 9.376 62.9117 9.45067 62.7357 9.536L62.5197 9.008C62.7064 8.90667 62.9277 8.82133 63.1837 8.752C63.4397 8.67733 63.7064 8.64 63.9837 8.64ZM64.1917 10.928C63.6584 10.9493 63.2877 11.0347 63.0797 11.184C62.877 11.3333 62.7757 11.544 62.7757 11.816C62.7757 12.056 62.8477 12.232 62.9917 12.344C63.141 12.456 63.3304 12.512 63.5597 12.512C63.9224 12.512 64.2237 12.4133 64.4637 12.216C64.7037 12.0133 64.8237 11.704 64.8237 11.288V10.904L64.1917 10.928ZM69.8041 9.304H68.4041V13H67.7081V9.304H66.3241V8.712H69.8041V9.304ZM72.6248 10.472C73.7394 10.472 74.2968 10.8773 74.2968 11.688C74.2968 12.088 74.1608 12.408 73.8888 12.648C73.6168 12.8827 73.1848 13 72.5928 13H70.6488V8.712H71.3528V10.472H72.6248ZM73.5928 11.728C73.5928 11.4667 73.4994 11.2907 73.3128 11.2C73.1314 11.104 72.8754 11.056 72.5448 11.056H71.3528V12.432H72.5608C72.8594 12.432 73.1048 12.3787 73.2968 12.272C73.4941 12.1653 73.5928 11.984 73.5928 11.728ZM80.8624 9.792C80.8624 10.0587 80.7824 10.2667 80.6224 10.416C80.4624 10.5653 80.257 10.6667 80.0064 10.72V10.752C80.273 10.7893 80.505 10.8853 80.7024 11.04C80.8997 11.1893 80.9984 11.424 80.9984 11.744C80.9984 12.1067 80.8624 12.408 80.5904 12.648C80.3237 12.8827 79.881 13 79.2624 13H77.4144V8.712H79.2544C79.5584 8.712 79.8304 8.74667 80.0704 8.816C80.3157 8.88 80.5077 8.992 80.6464 9.152C80.7904 9.30667 80.8624 9.52 80.8624 9.792ZM80.1504 9.88C80.1504 9.67733 80.0757 9.53067 79.9264 9.44C79.7824 9.344 79.545 9.296 79.2144 9.296H78.1184V10.472H79.0864C79.7957 10.472 80.1504 10.2747 80.1504 9.88ZM80.2704 11.744C80.2704 11.4987 80.177 11.3227 79.9904 11.216C79.8037 11.1093 79.529 11.056 79.1664 11.056H78.1184V12.432H79.1824C79.5344 12.432 79.8037 12.3813 79.9904 12.28C80.177 12.1733 80.2704 11.9947 80.2704 11.744Z" fill="white"/>
<rect x="0.5" y="0.5" width="134" height="39" rx="3.5" stroke="#A1A1A1"/>
</svg>
