<svg width="47" height="57" viewBox="0 0 47 57" fill="none" xmlns="http://www.w3.org/2000/svg">
<path d="M44.8146 17.5317C43.3439 14.1348 41.2621 11.0428 38.6747 8.41255C36.0912 5.82265 33.0515 3.74275 29.7118 2.27983C26.2598 0.769013 22.5364 -0.00704511 18.7742 4.81895e-05H3.29753C2.42412 0.00386933 1.58755 0.355939 0.969952 0.979636C0.352352 1.60333 0.00378378 2.44817 0 3.3302V15.4697V16.2587C0 21.2588 3.57069 25.3005 8.53146 25.3005C13.8038 25.3005 17.1589 21.7283 17.6382 19.7486C18.4769 16.2926 16.3249 13.9402 12.27 15.0148C8.21514 16.0893 7.6975 16.3071 6.99772 15.218C6.27397 14.0563 8.60813 9.40964 13.7894 8.88205C19.4835 8.32541 22.6085 11.3022 23.778 13.5868C27.3968 20.5908 20.7633 24.8697 21.0412 25.7797C21.3192 26.6896 23.0448 25.7506 24.9092 25.0294C30.5985 22.8222 35.3724 25.0729 37.1266 27.0623C37.5387 27.4377 37.7954 27.9562 37.8456 28.5144C37.7907 29.0629 37.5342 29.5707 37.1266 29.9375C35.3724 31.9317 30.5985 34.1776 24.9092 31.9753C23.0448 31.254 21.3144 30.3151 21.0412 31.225C20.768 32.135 27.3968 36.409 23.778 43.413C22.6085 45.6734 19.4643 48.6792 13.7894 48.1226C8.60813 47.6386 6.27397 42.9435 6.99772 41.7866C7.72146 40.6298 8.19118 40.8912 12.27 41.9899C16.3489 43.0887 18.5009 40.7121 17.6382 37.2561C17.1589 35.2764 13.8038 31.6994 8.53146 31.6994C3.57069 31.6994 0.019172 35.741 0 40.7411V53.6697C0.00252909 54.5521 0.350677 55.3976 0.968547 56.0216C1.58642 56.6455 2.42373 56.9972 3.29753 56.9998H18.7742C22.5372 57.0143 26.262 56.2379 29.7118 54.72C33.0827 53.2775 36.1492 51.1976 38.7466 48.5921C41.2898 45.9389 43.3447 42.8493 44.8146 39.4681C46.2571 35.9923 47 32.2614 47 28.4927C47 24.724 46.2571 20.9929 44.8146 17.5172V17.5317Z" fill="#02D0AA"/>
</svg>
