<svg width="106" height="24" viewBox="0 0 106 24" fill="none" xmlns="http://www.w3.org/2000/svg">
<path d="M18.0831 7.17405C17.4896 5.80134 16.6496 4.55186 15.6056 3.48899C14.5631 2.44241 13.3366 1.60192 11.989 1.01076C10.5961 0.400236 9.09365 0.0866306 7.57554 0.089497H1.33058C0.978155 0.0910411 0.640591 0.233313 0.391384 0.485349C0.142177 0.737386 0.00152679 1.07878 0 1.43521V6.3408V6.65963C0 8.68016 1.44081 10.3134 3.44252 10.3134C5.56994 10.3134 6.92375 8.86988 7.11715 8.06988C7.45561 6.67331 6.58724 5.72272 4.95106 6.15695C3.31488 6.59118 3.10601 6.67918 2.82364 6.23909C2.5316 5.76965 3.47346 3.89192 5.56413 3.67872C7.86175 3.45378 9.12274 4.6567 9.59464 5.57992C11.0548 8.41023 8.37815 10.1393 8.49033 10.507C8.6025 10.8748 9.29876 10.4953 10.0511 10.2039C12.3468 9.31194 14.2731 10.2215 14.9809 11.0254C15.1472 11.1771 15.2508 11.3866 15.271 11.6122C15.2489 11.8338 15.1454 12.039 14.9809 12.1872C14.2731 12.9931 12.3468 13.9007 10.0511 13.0107C9.29876 12.7192 8.60057 12.3398 8.49033 12.7075C8.38009 13.0753 11.0548 14.8024 9.59464 17.6327C9.12274 18.5461 7.85401 19.7608 5.56413 19.5358C3.47346 19.3402 2.5316 17.4429 2.82364 16.9755C3.11568 16.508 3.30521 16.6136 4.95106 17.0576C6.59691 17.5016 7.46528 16.5412 7.11715 15.1447C6.92375 14.3447 5.56994 12.8992 3.44252 12.8992C1.44081 12.8992 0.00773608 14.5324 0 16.553V21.7774C0.00102051 22.134 0.141501 22.4757 0.390817 22.7278C0.640133 22.98 0.977998 23.1221 1.33058 23.1231H7.57554C9.09394 23.129 10.597 22.8152 11.989 22.2018C13.3491 21.619 14.5865 20.7785 15.6346 19.7256C16.6608 18.6534 17.4899 17.4049 18.0831 16.0385C18.6652 14.634 18.9649 13.1263 18.9649 11.6034C18.9649 10.0804 18.6652 8.57273 18.0831 7.16818V7.17405Z" fill="#02D0AA"/>
<path d="M27.1804 18.9649H31.6255C31.7352 18.9649 31.9644 18.9617 32.3131 18.9552C32.6681 18.9488 33.0039 18.9262 33.3202 18.8874C34.4307 18.7454 35.3668 18.3548 36.1286 17.7157C36.8905 17.07 37.4683 16.2501 37.8621 15.2559C38.2559 14.2616 38.4528 13.1738 38.4528 11.9923C38.4528 10.8108 38.2559 9.72295 37.8621 8.72871C37.4683 7.73446 36.8905 6.91453 36.1286 6.26891C35.3668 5.6233 34.4307 5.23271 33.3202 5.09713C32.9974 5.05839 32.6617 5.03579 32.3131 5.02934C31.9709 5.02288 31.7417 5.01965 31.6255 5.01965H27.1804V18.9649ZM29.5531 16.7666V7.21797H31.6255C31.8192 7.21797 32.0645 7.22442 32.3615 7.23734C32.6585 7.24379 32.9264 7.27285 33.1653 7.32449C33.8109 7.44716 34.3403 7.73446 34.7535 8.18639C35.1667 8.63832 35.4733 9.19677 35.6735 9.86176C35.8801 10.5203 35.9834 11.2305 35.9834 11.9923C35.9834 12.7218 35.8865 13.4191 35.6928 14.0841C35.4992 14.7491 35.1925 15.314 34.7728 15.7788C34.3596 16.2372 33.8238 16.531 33.1653 16.6601C32.9264 16.7053 32.6585 16.7343 32.3615 16.7472C32.0645 16.7601 31.8192 16.7666 31.6255 16.7666H29.5531Z" fill="#102542"/>
<path d="M45.497 19.2554C46.5042 19.2554 47.4242 18.9972 48.257 18.4807C49.0963 17.9578 49.7161 17.2218 50.1164 16.2727L47.8116 15.5754C47.3467 16.5697 46.53 17.0668 45.3615 17.0668C44.5674 17.0668 43.9411 16.8376 43.4827 16.3792C43.0243 15.9144 42.75 15.2494 42.6596 14.3843H50.2326C50.323 13.1253 50.1842 12.0342 49.8162 11.111C49.4482 10.1878 48.8833 9.47439 48.1215 8.97081C47.3661 8.46723 46.4461 8.21544 45.3615 8.21544C44.3349 8.21544 43.4311 8.44786 42.6499 8.9127C41.8687 9.37109 41.2586 10.0232 40.8196 10.8689C40.3806 11.7147 40.161 12.7089 40.161 13.8517C40.161 14.9105 40.3838 15.8466 40.8293 16.6601C41.2812 17.4735 41.9074 18.1095 42.708 18.5679C43.5086 19.0262 44.4382 19.2554 45.497 19.2554ZM45.4583 10.2588C46.1814 10.2588 46.7366 10.4493 47.124 10.8302C47.5178 11.2046 47.7664 11.8018 47.8697 12.6218H42.7177C42.9953 11.0465 43.9088 10.2588 45.4583 10.2588Z" fill="#102542"/>
<path d="M52.0903 18.9649H54.4436V12.5249C54.4436 11.8728 54.6211 11.3434 54.9762 10.9367C55.3378 10.53 55.8155 10.3266 56.4095 10.3266C57.0228 10.3266 57.507 10.53 57.8621 10.9367C58.2172 11.3434 58.3948 11.9116 58.3948 12.6411V18.9649H60.719V12.5249C60.719 11.8341 60.9062 11.295 61.2806 10.9077C61.6616 10.5203 62.1329 10.3266 62.6945 10.3266C63.295 10.3266 63.7727 10.53 64.1278 10.9367C64.4893 11.337 64.6701 11.8954 64.6701 12.6121V18.9649H67.004V12.0213C67.004 10.8851 66.6941 9.97151 66.0743 9.28071C65.461 8.5899 64.5765 8.24449 63.4209 8.24449C62.743 8.24449 62.1232 8.39299 61.5615 8.68997C60.9998 8.98695 60.5576 9.39369 60.2347 9.91018C59.9571 9.40014 59.5633 8.99663 59.0533 8.69965C58.5432 8.39621 57.9202 8.24449 57.1842 8.24449C56.558 8.24449 55.9802 8.37039 55.4507 8.62218C54.9278 8.86751 54.4952 9.20646 54.1531 9.63902V8.50597H52.0903V18.9649Z" fill="#102542"/>
<path d="M72.0511 19.2554C72.8839 19.2554 73.5908 19.1199 74.1719 18.8487C74.7594 18.5711 75.2759 18.1418 75.7214 17.5607V18.9649H77.7647V12.5443C77.7647 12.0924 77.7454 11.6759 77.7066 11.295C77.6679 10.9077 77.5549 10.53 77.3677 10.162C77.0255 9.47116 76.4993 8.97404 75.7892 8.6706C75.0854 8.36716 74.2687 8.21544 73.3391 8.21544C72.1124 8.21544 71.1343 8.48337 70.4047 9.01923C69.6752 9.55509 69.1813 10.2653 68.923 11.1498L71.0536 11.818C71.2279 11.2821 71.5346 10.9044 71.9736 10.6849C72.4126 10.4654 72.8678 10.3557 73.3391 10.3557C74.0492 10.3557 74.5722 10.5009 74.9079 10.7914C75.2436 11.0755 75.4341 11.5178 75.4793 12.1182C74.5625 12.2538 73.7103 12.3861 72.9226 12.5152C72.1414 12.6379 71.4765 12.7896 70.9277 12.9704C70.1013 13.2545 69.4976 13.658 69.1167 14.1809C68.7358 14.6974 68.5454 15.3366 68.5454 16.0984C68.5454 16.673 68.6777 17.1992 68.9424 17.6769C69.2136 18.1547 69.6106 18.5388 70.1336 18.8293C70.6565 19.1134 71.2957 19.2554 72.0511 19.2554ZM72.5159 17.3961C71.9671 17.3961 71.5475 17.2702 71.2569 17.0184C70.9729 16.7666 70.8308 16.4502 70.8308 16.0693C70.8308 15.7272 70.9406 15.4495 71.1601 15.2365C71.3861 15.0234 71.6992 14.8427 72.0995 14.6942C72.4675 14.5715 72.9097 14.465 73.4262 14.3746C73.9427 14.2778 74.6174 14.1648 75.4502 14.0357C75.4438 14.281 75.4276 14.5554 75.4018 14.8588C75.376 15.1558 75.3146 15.4237 75.2178 15.6626C75.1403 15.9015 74.9886 16.1565 74.7626 16.4277C74.5431 16.6988 74.2461 16.928 73.8717 17.1152C73.4972 17.3025 73.0453 17.3961 72.5159 17.3961Z" fill="#102542"/>
<path d="M79.6726 18.9649H82.0065V4.72913H79.6726V18.9649Z" fill="#102542"/>
<path d="M88.7197 19.2554C89.7656 19.2554 90.6792 19.023 91.4604 18.5582C92.2416 18.0869 92.8484 17.438 93.281 16.6117C93.72 15.7788 93.9395 14.8201 93.9395 13.7354C93.9395 12.6573 93.7233 11.705 93.2907 10.8786C92.8581 10.0458 92.2513 9.39369 91.4701 8.92239C90.6889 8.45109 89.7721 8.21544 88.7197 8.21544C87.6932 8.21544 86.7894 8.44786 86.0082 8.9127C85.227 9.37755 84.6169 10.0232 84.1779 10.8495C83.7388 11.6759 83.5193 12.6379 83.5193 13.7354C83.5193 14.8136 83.7324 15.7691 84.1585 16.602C84.591 17.4284 85.1979 18.0772 85.9791 18.5485C86.7603 19.0198 87.6739 19.2554 88.7197 19.2554ZM88.7197 17.0668C87.8223 17.0668 87.1412 16.7666 86.6764 16.1662C86.218 15.5593 85.9888 14.7491 85.9888 13.7354C85.9888 12.7477 86.2083 11.9471 86.6473 11.3338C87.0928 10.714 87.7836 10.4041 88.7197 10.4041C89.6365 10.4041 90.3241 10.7075 90.7825 11.3144C91.2409 11.9148 91.4701 12.7218 91.4701 13.7354C91.4701 14.7168 91.2409 15.5173 90.7825 16.1371C90.3306 16.7569 89.643 17.0668 88.7197 17.0668Z" fill="#102542"/>
<path d="M100.693 19.2554C101.739 19.2554 102.652 19.023 103.433 18.5582C104.214 18.0869 104.821 17.438 105.254 16.6117C105.693 15.7788 105.912 14.8201 105.912 13.7354C105.912 12.6573 105.696 11.705 105.264 10.8786C104.831 10.0458 104.224 9.39369 103.443 8.92239C102.662 8.45109 101.745 8.21544 100.693 8.21544C99.6661 8.21544 98.7622 8.44786 97.981 8.9127C97.1998 9.37755 96.5897 10.0232 96.1507 10.8495C95.7117 11.6759 95.4922 12.6379 95.4922 13.7354C95.4922 14.8136 95.7052 15.7691 96.1313 16.602C96.5639 17.4284 97.1708 18.0772 97.952 18.5485C98.7332 19.0198 99.6467 19.2554 100.693 19.2554ZM100.693 17.0668C99.7952 17.0668 99.1141 16.7666 98.6492 16.1662C98.1909 15.5593 97.9617 14.7491 97.9617 13.7354C97.9617 12.7477 98.1812 11.9471 98.6202 11.3338C99.0657 10.714 99.7565 10.4041 100.693 10.4041C101.609 10.4041 102.297 10.7075 102.755 11.3144C103.214 11.9148 103.443 12.7218 103.443 13.7354C103.443 14.7168 103.214 15.5173 102.755 16.1371C102.303 16.7569 101.616 17.0668 100.693 17.0668Z" fill="#102542"/>
</svg>
