<svg width="146" height="27" viewBox="0 0 146 27" fill="none" xmlns="http://www.w3.org/2000/svg">
<path d="M0.015625 0.34375H3.78125H8.17188C9.94271 0.34375 11.6094 0.682292 13.1719 1.35938C14.7344 2.03646 16.099 2.95312 17.2656 4.10938C18.4219 5.27604 19.3333 6.64062 20 8.20312C20.6771 9.75521 21.0156 11.4115 21.0156 13.1719C21.0156 14.9531 20.6771 16.625 20 18.1875C19.3333 19.7396 18.4219 21.0938 17.2656 22.25C16.099 23.4167 14.7344 24.3385 13.1719 25.0156C11.6094 25.6823 9.94271 26.0156 8.17188 26.0156H3.78125H0.015625V0.34375ZM8.17188 22.25C10.6719 22.25 12.8073 21.3646 14.5781 19.5938C16.3594 17.8229 17.25 15.6823 17.25 13.1719C17.25 10.6719 16.3594 8.53646 14.5781 6.76562C12.8073 4.99479 10.6719 4.10938 8.17188 4.10938H3.78125V22.25H8.17188ZM22.9219 16.4531C22.9219 13.8177 23.8542 11.5677 25.7188 9.70312C27.5729 7.82812 29.8177 6.89062 32.4531 6.89062C35.0885 6.89062 37.3438 7.82812 39.2188 9.70312C41.0833 11.5885 42.0156 13.8385 42.0156 16.4531C42.0156 17.0052 41.9688 17.5469 41.875 18.0781H38.0469H32.4531H26.8906C27.224 19.2969 27.9062 20.2969 28.9375 21.0781C29.9583 21.8698 31.1302 22.2656 32.4531 22.2656C33.9635 22.2656 35.2708 21.7604 36.375 20.75H41C40.2188 22.3125 39.0625 23.5781 37.5312 24.5469C36.0208 25.526 34.3281 26.0156 32.4531 26.0156C29.8281 26.0156 27.5833 25.0833 25.7188 23.2188C23.8542 21.3542 22.9219 19.099 22.9219 16.4531ZM37.9531 14.5625C37.5469 13.4271 36.849 12.4896 35.8594 11.75C34.849 11.0104 33.7135 10.6406 32.4531 10.6406C31.1823 10.6406 30.0521 11.0104 29.0625 11.75C28.0521 12.4896 27.3594 13.4271 26.9844 14.5625H37.9531ZM57.4531 8.09375C58.2135 8.52083 58.9271 9.13542 59.5938 9.9375C60.3438 9.03125 61.2708 8.30729 62.375 7.76562C63.4896 7.21354 64.6875 6.9375 65.9688 6.9375C68.2396 6.9375 70.1771 7.74479 71.7812 9.35938C73.3958 10.9635 74.2031 12.901 74.2031 15.1719V26.0156H70.4531V15.1719C70.4531 13.9427 70.0156 12.8906 69.1406 12.0156C68.2656 11.1302 67.2083 10.6875 65.9688 10.6875C64.7188 10.6875 63.6562 11.1302 62.7812 12.0156C61.9062 12.8906 61.4688 13.9427 61.4688 15.1719V26.0156H57.7188V15.1719C57.7188 13.9427 57.276 12.8906 56.3906 12.0156C55.5156 11.1302 54.4635 10.6875 53.2344 10.6875C51.9844 10.6875 50.9219 11.1302 50.0469 12.0156C49.1719 12.8906 48.7344 13.9427 48.7344 15.1719V17.2031V26.0156H44.9844V17.2031V15.1719V6.89062H48.7344V9.625C49.7865 8.33333 51.125 7.54688 52.75 7.26562C54.3854 6.98438 55.9531 7.26042 57.4531 8.09375ZM86.5312 22.3125C88.5625 22.3125 90.0938 21.7031 91.125 20.4844C92.1562 19.2656 92.6719 17.9271 92.6719 16.4688C92.6719 15 92.1562 13.6562 91.125 12.4375C90.0833 11.2083 88.5521 10.5938 86.5312 10.5938C84.9062 10.5938 83.5208 11.1667 82.375 12.3125C81.2396 13.4688 80.6719 14.849 80.6719 16.4531C80.6719 18.0781 81.2396 19.4583 82.375 20.5938C83.5208 21.7396 84.9062 22.3125 86.5312 22.3125ZM76.9844 16.4531C76.9844 14.4948 77.5208 12.7292 78.5938 11.1562C79.6458 9.58333 81.026 8.42188 82.7344 7.67188C84.3073 6.99479 86.0677 6.86458 88.0156 7.28125C89.9531 7.69792 91.3854 8.61979 92.3125 10.0469V6.89062H96.0781V16.4531V26.0156H92.3125V22.8594C91.3854 24.2969 89.9531 25.224 88.0156 25.6406C86.0573 26.0677 84.2969 25.9323 82.7344 25.2344C81.0365 24.5052 79.6562 23.349 78.5938 21.7656C77.5208 20.2031 76.9844 18.4323 76.9844 16.4531ZM99.2031 26.0156V0.34375H102.953V26.0156H99.2031ZM115.203 22.2656C116.797 22.2656 118.161 21.6979 119.297 20.5625C120.432 19.4271 121 18.0573 121 16.4531C121 14.8594 120.432 13.4948 119.297 12.3594C118.161 11.2135 116.797 10.6406 115.203 10.6406C113.589 10.6406 112.214 11.2135 111.078 12.3594C109.953 13.4948 109.391 14.8594 109.391 16.4531C109.391 18.0573 109.953 19.4271 111.078 20.5625C112.214 21.6979 113.589 22.2656 115.203 22.2656ZM115.203 6.89062C117.828 6.89062 120.078 7.82812 121.953 9.70312C123.828 11.5677 124.766 13.8177 124.766 16.4531C124.766 19.099 123.828 21.3542 121.953 23.2188C120.078 25.0833 117.828 26.0156 115.203 26.0156C112.557 26.0156 110.302 25.0833 108.438 23.2188C106.573 21.3542 105.641 19.099 105.641 16.4531C105.641 13.8177 106.573 11.5677 108.438 9.70312C110.302 7.82812 112.557 6.89062 115.203 6.89062ZM136.422 22.2656C138.016 22.2656 139.38 21.6979 140.516 20.5625C141.651 19.4271 142.219 18.0573 142.219 16.4531C142.219 14.8594 141.651 13.4948 140.516 12.3594C139.38 11.2135 138.016 10.6406 136.422 10.6406C134.807 10.6406 133.432 11.2135 132.297 12.3594C131.172 13.4948 130.609 14.8594 130.609 16.4531C130.609 18.0573 131.172 19.4271 132.297 20.5625C133.432 21.6979 134.807 22.2656 136.422 22.2656ZM136.422 6.89062C139.047 6.89062 141.297 7.82812 143.172 9.70312C145.047 11.5677 145.984 13.8177 145.984 16.4531C145.984 19.099 145.047 21.3542 143.172 23.2188C141.297 25.0833 139.047 26.0156 136.422 26.0156C133.776 26.0156 131.521 25.0833 129.656 23.2188C127.792 21.3542 126.859 19.099 126.859 16.4531C126.859 13.8177 127.792 11.5677 129.656 9.70312C131.521 7.82812 133.776 6.89062 136.422 6.89062Z" fill="white"/>
</svg>
