<svg width="450" height="67" viewBox="0 0 450 67" fill="none" xmlns="http://www.w3.org/2000/svg">
<path d="M59.6914 63H58.5293V58.2969H53.2656V63H52.1035V53.0059H53.2656V57.2578H58.5293V53.0059H59.6914V63ZM68.7354 59.2471C68.7354 60.4684 68.4277 61.4232 67.8125 62.1113C67.1973 62.7949 66.3473 63.1367 65.2627 63.1367C64.5928 63.1367 63.998 62.9795 63.4785 62.665C62.959 62.3506 62.5579 61.8994 62.2754 61.3115C61.9928 60.7236 61.8516 60.0355 61.8516 59.2471C61.8516 58.0257 62.1569 57.0755 62.7676 56.3965C63.3783 55.7129 64.2259 55.3711 65.3105 55.3711C66.3587 55.3711 67.1904 55.7197 67.8057 56.417C68.4255 57.1143 68.7354 58.0576 68.7354 59.2471ZM63.0273 59.2471C63.0273 60.2041 63.2188 60.9333 63.6016 61.4346C63.9844 61.9359 64.5472 62.1865 65.29 62.1865C66.0329 62.1865 66.5957 61.9382 66.9785 61.4414C67.3659 60.9401 67.5596 60.2087 67.5596 59.2471C67.5596 58.2946 67.3659 57.5723 66.9785 57.0801C66.5957 56.5833 66.0283 56.335 65.2764 56.335C64.5335 56.335 63.973 56.5788 63.5947 57.0664C63.2165 57.554 63.0273 58.2809 63.0273 59.2471ZM74.6211 61.9062L74.833 61.2705L75.127 60.4639L77.1572 55.5215H78.5996V63H77.5947V56.8135L77.458 57.21L77.0615 58.2559L75.127 63H74.1768L72.2422 58.2422C72.0007 57.6315 71.8343 57.1553 71.7432 56.8135V63H70.7314V55.5215H72.1191L74.0811 60.2725C74.277 60.7738 74.457 61.3184 74.6211 61.9062ZM84.1914 63.1367C83.084 63.1367 82.209 62.7995 81.5664 62.125C80.9284 61.4505 80.6094 60.514 80.6094 59.3154C80.6094 58.1077 80.9056 57.1484 81.498 56.4375C82.0951 55.7266 82.8949 55.3711 83.8975 55.3711C84.8363 55.3711 85.5791 55.681 86.126 56.3008C86.6729 56.916 86.9463 57.7295 86.9463 58.7412V59.459H81.7852C81.8079 60.3385 82.029 61.0062 82.4482 61.4619C82.8721 61.9176 83.4668 62.1455 84.2324 62.1455C85.0391 62.1455 85.8366 61.9769 86.625 61.6396V62.6514C86.224 62.8245 85.8434 62.9476 85.4834 63.0205C85.1279 63.098 84.6973 63.1367 84.1914 63.1367ZM83.8838 56.3213C83.2822 56.3213 82.8014 56.5173 82.4414 56.9092C82.0859 57.3011 81.8763 57.8434 81.8125 58.5361H85.7295C85.7295 57.8206 85.57 57.2738 85.251 56.8955C84.932 56.5127 84.4762 56.3213 83.8838 56.3213ZM92.374 63.1367C91.8864 63.1367 91.4398 63.0479 91.0342 62.8701C90.6331 62.6878 90.2959 62.4098 90.0225 62.0361H89.9404C89.9951 62.4736 90.0225 62.8883 90.0225 63.2803V66.3633H88.8877V55.5078H89.8105L89.9678 56.5332H90.0225C90.3141 56.123 90.6536 55.8268 91.041 55.6445C91.4284 55.4622 91.8727 55.3711 92.374 55.3711C93.3675 55.3711 94.1331 55.7106 94.6709 56.3896C95.2132 57.0687 95.4844 58.0212 95.4844 59.2471C95.4844 60.4775 95.2087 61.4346 94.6572 62.1182C94.1104 62.7972 93.3493 63.1367 92.374 63.1367ZM92.21 56.335C91.4443 56.335 90.8906 56.5469 90.5488 56.9707C90.207 57.3945 90.0316 58.069 90.0225 58.9941V59.2471C90.0225 60.2998 90.1979 61.054 90.5488 61.5098C90.8997 61.9609 91.4626 62.1865 92.2373 62.1865C92.8844 62.1865 93.3903 61.9245 93.7549 61.4004C94.124 60.8763 94.3086 60.154 94.3086 59.2334C94.3086 58.2992 94.124 57.5837 93.7549 57.0869C93.3903 56.5856 92.8753 56.335 92.21 56.335Z" fill="#02D0AA"/>
<path d="M221.042 63H219.634L215.013 57.9346V63H213.851V53.0059H215.013V57.8457L219.518 53.0059H220.851L216.428 57.8594L221.042 63ZM228.719 59.2471C228.719 60.4684 228.411 61.4232 227.796 62.1113C227.181 62.7949 226.331 63.1367 225.246 63.1367C224.576 63.1367 223.981 62.9795 223.462 62.665C222.942 62.3506 222.541 61.8994 222.259 61.3115C221.976 60.7236 221.835 60.0355 221.835 59.2471C221.835 58.0257 222.14 57.0755 222.751 56.3965C223.362 55.7129 224.209 55.3711 225.294 55.3711C226.342 55.3711 227.174 55.7197 227.789 56.417C228.409 57.1143 228.719 58.0576 228.719 59.2471ZM223.011 59.2471C223.011 60.2041 223.202 60.9333 223.585 61.4346C223.968 61.9359 224.531 62.1865 225.273 62.1865C226.016 62.1865 226.579 61.9382 226.962 61.4414C227.349 60.9401 227.543 60.2087 227.543 59.2471C227.543 58.2946 227.349 57.5723 226.962 57.0801C226.579 56.5833 226.012 56.335 225.26 56.335C224.517 56.335 223.956 56.5788 223.578 57.0664C223.2 57.554 223.011 58.2809 223.011 59.2471ZM237.223 65.5908H236.122V63H230.886V65.5908H229.792V62.0225H230.38C230.991 61.193 231.469 60.2201 231.815 59.1035C232.162 57.987 232.342 56.7884 232.355 55.5078H236.149V62.0225H237.223V65.5908ZM235.056 62.0225V56.4033H233.374C233.315 57.415 233.119 58.4404 232.786 59.4795C232.458 60.514 232.048 61.3617 231.556 62.0225H235.056Z" fill="#A6ACBB"/>
<path d="M359.163 63H358.001V54.0381H352.867V63H351.705V53.0059H359.163V63ZM366.354 63L366.129 61.9336H366.074C365.701 62.403 365.327 62.722 364.953 62.8906C364.584 63.0547 364.121 63.1367 363.565 63.1367C362.823 63.1367 362.239 62.9453 361.815 62.5625C361.396 62.1797 361.187 61.6351 361.187 60.9287C361.187 59.4157 362.396 58.6227 364.816 58.5498L366.088 58.5088V58.0439C366.088 57.4561 365.96 57.0231 365.705 56.7451C365.454 56.4626 365.051 56.3213 364.495 56.3213C363.871 56.3213 363.164 56.5127 362.376 56.8955L362.027 56.0273C362.396 55.8268 362.8 55.6696 363.237 55.5557C363.679 55.4417 364.121 55.3848 364.563 55.3848C365.457 55.3848 366.118 55.583 366.546 55.9795C366.979 56.376 367.195 57.0117 367.195 57.8867V63H366.354ZM363.791 62.2002C364.497 62.2002 365.051 62.0065 365.452 61.6191C365.858 61.2318 366.061 60.6895 366.061 59.9922V59.3154L364.926 59.3633C364.023 59.3952 363.372 59.5365 362.971 59.7871C362.574 60.0332 362.376 60.4183 362.376 60.9424C362.376 61.3525 362.499 61.6647 362.745 61.8789C362.996 62.0931 363.344 62.2002 363.791 62.2002ZM373.026 63.1367C372.539 63.1367 372.092 63.0479 371.687 62.8701C371.285 62.6878 370.948 62.4098 370.675 62.0361H370.593C370.647 62.4736 370.675 62.8883 370.675 63.2803V66.3633H369.54V55.5078H370.463L370.62 56.5332H370.675C370.966 56.123 371.306 55.8268 371.693 55.6445C372.081 55.4622 372.525 55.3711 373.026 55.3711C374.02 55.3711 374.785 55.7106 375.323 56.3896C375.866 57.0687 376.137 58.0212 376.137 59.2471C376.137 60.4775 375.861 61.4346 375.31 62.1182C374.763 62.7972 374.002 63.1367 373.026 63.1367ZM372.862 56.335C372.097 56.335 371.543 56.5469 371.201 56.9707C370.859 57.3945 370.684 58.069 370.675 58.9941V59.2471C370.675 60.2998 370.85 61.054 371.201 61.5098C371.552 61.9609 372.115 62.1865 372.89 62.1865C373.537 62.1865 374.043 61.9245 374.407 61.4004C374.776 60.8763 374.961 60.154 374.961 59.2334C374.961 58.2992 374.776 57.5837 374.407 57.0869C374.043 56.5856 373.528 56.335 372.862 56.335ZM384.593 59.2471C384.593 60.4684 384.285 61.4232 383.67 62.1113C383.055 62.7949 382.205 63.1367 381.12 63.1367C380.45 63.1367 379.855 62.9795 379.336 62.665C378.816 62.3506 378.415 61.8994 378.133 61.3115C377.85 60.7236 377.709 60.0355 377.709 59.2471C377.709 58.0257 378.014 57.0755 378.625 56.3965C379.236 55.7129 380.083 55.3711 381.168 55.3711C382.216 55.3711 383.048 55.7197 383.663 56.417C384.283 57.1143 384.593 58.0576 384.593 59.2471ZM378.885 59.2471C378.885 60.2041 379.076 60.9333 379.459 61.4346C379.842 61.9359 380.405 62.1865 381.147 62.1865C381.89 62.1865 382.453 61.9382 382.836 61.4414C383.223 60.9401 383.417 60.2087 383.417 59.2471C383.417 58.2946 383.223 57.5723 382.836 57.0801C382.453 56.5833 381.886 56.335 381.134 56.335C380.391 56.335 379.83 56.5788 379.452 57.0664C379.074 57.554 378.885 58.2809 378.885 59.2471ZM392.174 63H391.025V56.4785H388.776C388.653 58.1009 388.482 59.3883 388.264 60.3408C388.045 61.2933 387.76 61.9906 387.409 62.4326C387.063 62.8747 386.621 63.0957 386.083 63.0957C385.837 63.0957 385.641 63.0684 385.495 63.0137V62.1729C385.595 62.2002 385.709 62.2139 385.837 62.2139C386.361 62.2139 386.778 61.6602 387.088 60.5527C387.398 59.4453 387.632 57.7637 387.792 55.5078H392.174V63ZM395.722 58.6045H398.032C399.946 58.6045 400.903 59.3086 400.903 60.7168C400.903 61.4551 400.653 62.0202 400.151 62.4121C399.655 62.804 398.925 63 397.964 63H394.587V55.5078H395.722V58.6045ZM395.722 59.582V62.0498H397.909C398.511 62.0498 398.971 61.945 399.29 61.7354C399.609 61.5257 399.769 61.209 399.769 60.7852C399.769 60.3704 399.62 60.0674 399.324 59.876C399.033 59.68 398.549 59.582 397.875 59.582H395.722Z" fill="#A6ACBB"/>
<circle cx="74" cy="20" r="20" fill="#02D0AA"/>
<path d="M76.0376 13.4V26H73.1216V15.74H70.6016V13.4H76.0376Z" fill="white"/>
<path d="M94 20H358" stroke="#A6ACBB"/>
<circle cx="225" cy="20" r="20" fill="#A6ACBB"/>
<path d="M230.307 23.624V26H220.785V24.11L225.645 19.52C226.161 19.028 226.509 18.608 226.689 18.26C226.869 17.9 226.959 17.546 226.959 17.198C226.959 16.694 226.785 16.31 226.437 16.046C226.101 15.77 225.603 15.632 224.943 15.632C224.391 15.632 223.893 15.74 223.449 15.956C223.005 16.16 222.633 16.472 222.333 16.892L220.209 15.524C220.701 14.792 221.379 14.222 222.243 13.814C223.107 13.394 224.097 13.184 225.213 13.184C226.149 13.184 226.965 13.34 227.661 13.652C228.369 13.952 228.915 14.384 229.299 14.948C229.695 15.5 229.893 16.154 229.893 16.91C229.893 17.594 229.749 18.236 229.461 18.836C229.173 19.436 228.615 20.12 227.787 20.888L224.889 23.624H230.307Z" fill="white"/>
<circle cx="376" cy="20" r="20" fill="#A6ACBB"/>
<path d="M377.762 18.53C378.866 18.71 379.712 19.124 380.3 19.772C380.888 20.408 381.182 21.2 381.182 22.148C381.182 22.88 380.99 23.558 380.606 24.182C380.222 24.794 379.634 25.286 378.842 25.658C378.062 26.03 377.102 26.216 375.962 26.216C375.074 26.216 374.198 26.102 373.334 25.874C372.482 25.634 371.756 25.298 371.156 24.866L372.29 22.634C372.77 22.994 373.322 23.276 373.946 23.48C374.582 23.672 375.23 23.768 375.89 23.768C376.622 23.768 377.198 23.63 377.618 23.354C378.038 23.066 378.248 22.664 378.248 22.148C378.248 21.116 377.462 20.6 375.89 20.6H374.558V18.674L377.15 15.74H371.786V13.4H380.606V15.29L377.762 18.53Z" fill="white"/>
</svg>
