<svg width="451" height="67" viewBox="0 0 451 67" fill="none" xmlns="http://www.w3.org/2000/svg">
<path d="M59.6914 63H58.5293V58.2969H53.2656V63H52.1035V53.0059H53.2656V57.2578H58.5293V53.0059H59.6914V63ZM68.7354 59.2471C68.7354 60.4684 68.4277 61.4232 67.8125 62.1113C67.1973 62.7949 66.3473 63.1367 65.2627 63.1367C64.5928 63.1367 63.998 62.9795 63.4785 62.665C62.959 62.3506 62.5579 61.8994 62.2754 61.3115C61.9928 60.7236 61.8516 60.0355 61.8516 59.2471C61.8516 58.0257 62.1569 57.0755 62.7676 56.3965C63.3783 55.7129 64.2259 55.3711 65.3105 55.3711C66.3587 55.3711 67.1904 55.7197 67.8057 56.417C68.4255 57.1143 68.7354 58.0576 68.7354 59.2471ZM63.0273 59.2471C63.0273 60.2041 63.2188 60.9333 63.6016 61.4346C63.9844 61.9359 64.5472 62.1865 65.29 62.1865C66.0329 62.1865 66.5957 61.9382 66.9785 61.4414C67.3659 60.9401 67.5596 60.2087 67.5596 59.2471C67.5596 58.2946 67.3659 57.5723 66.9785 57.0801C66.5957 56.5833 66.0283 56.335 65.2764 56.335C64.5335 56.335 63.973 56.5788 63.5947 57.0664C63.2165 57.554 63.0273 58.2809 63.0273 59.2471ZM74.6211 61.9062L74.833 61.2705L75.127 60.4639L77.1572 55.5215H78.5996V63H77.5947V56.8135L77.458 57.21L77.0615 58.2559L75.127 63H74.1768L72.2422 58.2422C72.0007 57.6315 71.8343 57.1553 71.7432 56.8135V63H70.7314V55.5215H72.1191L74.0811 60.2725C74.277 60.7738 74.457 61.3184 74.6211 61.9062ZM84.1914 63.1367C83.084 63.1367 82.209 62.7995 81.5664 62.125C80.9284 61.4505 80.6094 60.514 80.6094 59.3154C80.6094 58.1077 80.9056 57.1484 81.498 56.4375C82.0951 55.7266 82.8949 55.3711 83.8975 55.3711C84.8363 55.3711 85.5791 55.681 86.126 56.3008C86.6729 56.916 86.9463 57.7295 86.9463 58.7412V59.459H81.7852C81.8079 60.3385 82.029 61.0062 82.4482 61.4619C82.8721 61.9176 83.4668 62.1455 84.2324 62.1455C85.0391 62.1455 85.8366 61.9769 86.625 61.6396V62.6514C86.224 62.8245 85.8434 62.9476 85.4834 63.0205C85.1279 63.098 84.6973 63.1367 84.1914 63.1367ZM83.8838 56.3213C83.2822 56.3213 82.8014 56.5173 82.4414 56.9092C82.0859 57.3011 81.8763 57.8434 81.8125 58.5361H85.7295C85.7295 57.8206 85.57 57.2738 85.251 56.8955C84.932 56.5127 84.4762 56.3213 83.8838 56.3213ZM92.374 63.1367C91.8864 63.1367 91.4398 63.0479 91.0342 62.8701C90.6331 62.6878 90.2959 62.4098 90.0225 62.0361H89.9404C89.9951 62.4736 90.0225 62.8883 90.0225 63.2803V66.3633H88.8877V55.5078H89.8105L89.9678 56.5332H90.0225C90.3141 56.123 90.6536 55.8268 91.041 55.6445C91.4284 55.4622 91.8727 55.3711 92.374 55.3711C93.3675 55.3711 94.1331 55.7106 94.6709 56.3896C95.2132 57.0687 95.4844 58.0212 95.4844 59.2471C95.4844 60.4775 95.2087 61.4346 94.6572 62.1182C94.1104 62.7972 93.3493 63.1367 92.374 63.1367ZM92.21 56.335C91.4443 56.335 90.8906 56.5469 90.5488 56.9707C90.207 57.3945 90.0316 58.069 90.0225 58.9941V59.2471C90.0225 60.2998 90.1979 61.054 90.5488 61.5098C90.8997 61.9609 91.4626 62.1865 92.2373 62.1865C92.8844 62.1865 93.3903 61.9245 93.7549 61.4004C94.124 60.8763 94.3086 60.154 94.3086 59.2334C94.3086 58.2992 94.124 57.5837 93.7549 57.0869C93.3903 56.5856 92.8753 56.335 92.21 56.335Z" fill="#02D0AA"/>
<path d="M219.042 63H217.634L213.013 57.9346V63H211.851V53.0059H213.013V57.8457L217.518 53.0059H218.851L214.428 57.8594L219.042 63ZM226.719 59.2471C226.719 60.4684 226.411 61.4232 225.796 62.1113C225.181 62.7949 224.331 63.1367 223.246 63.1367C222.576 63.1367 221.981 62.9795 221.462 62.665C220.942 62.3506 220.541 61.8994 220.259 61.3115C219.976 60.7236 219.835 60.0355 219.835 59.2471C219.835 58.0257 220.14 57.0755 220.751 56.3965C221.362 55.7129 222.209 55.3711 223.294 55.3711C224.342 55.3711 225.174 55.7197 225.789 56.417C226.409 57.1143 226.719 58.0576 226.719 59.2471ZM221.011 59.2471C221.011 60.2041 221.202 60.9333 221.585 61.4346C221.968 61.9359 222.531 62.1865 223.273 62.1865C224.016 62.1865 224.579 61.9382 224.962 61.4414C225.349 60.9401 225.543 60.2087 225.543 59.2471C225.543 58.2946 225.349 57.5723 224.962 57.0801C224.579 56.5833 224.012 56.335 223.26 56.335C222.517 56.335 221.956 56.5788 221.578 57.0664C221.2 57.554 221.011 58.2809 221.011 59.2471ZM235.223 65.5908H234.122V63H228.886V65.5908H227.792V62.0225H228.38C228.991 61.193 229.469 60.2201 229.815 59.1035C230.162 57.987 230.342 56.7884 230.355 55.5078H234.149V62.0225H235.223V65.5908ZM233.056 62.0225V56.4033H231.374C231.315 57.415 231.119 58.4404 230.786 59.4795C230.458 60.514 230.048 61.3617 229.556 62.0225H233.056Z" fill="#02D0AA"/>
<path d="M360.163 63H359.001V54.0381H353.867V63H352.705V53.0059H360.163V63ZM367.354 63L367.129 61.9336H367.074C366.701 62.403 366.327 62.722 365.953 62.8906C365.584 63.0547 365.121 63.1367 364.565 63.1367C363.823 63.1367 363.239 62.9453 362.815 62.5625C362.396 62.1797 362.187 61.6351 362.187 60.9287C362.187 59.4157 363.396 58.6227 365.816 58.5498L367.088 58.5088V58.0439C367.088 57.4561 366.96 57.0231 366.705 56.7451C366.454 56.4626 366.051 56.3213 365.495 56.3213C364.871 56.3213 364.164 56.5127 363.376 56.8955L363.027 56.0273C363.396 55.8268 363.8 55.6696 364.237 55.5557C364.679 55.4417 365.121 55.3848 365.563 55.3848C366.457 55.3848 367.118 55.583 367.546 55.9795C367.979 56.376 368.195 57.0117 368.195 57.8867V63H367.354ZM364.791 62.2002C365.497 62.2002 366.051 62.0065 366.452 61.6191C366.858 61.2318 367.061 60.6895 367.061 59.9922V59.3154L365.926 59.3633C365.023 59.3952 364.372 59.5365 363.971 59.7871C363.574 60.0332 363.376 60.4183 363.376 60.9424C363.376 61.3525 363.499 61.6647 363.745 61.8789C363.996 62.0931 364.344 62.2002 364.791 62.2002ZM374.026 63.1367C373.539 63.1367 373.092 63.0479 372.687 62.8701C372.285 62.6878 371.948 62.4098 371.675 62.0361H371.593C371.647 62.4736 371.675 62.8883 371.675 63.2803V66.3633H370.54V55.5078H371.463L371.62 56.5332H371.675C371.966 56.123 372.306 55.8268 372.693 55.6445C373.081 55.4622 373.525 55.3711 374.026 55.3711C375.02 55.3711 375.785 55.7106 376.323 56.3896C376.866 57.0687 377.137 58.0212 377.137 59.2471C377.137 60.4775 376.861 61.4346 376.31 62.1182C375.763 62.7972 375.002 63.1367 374.026 63.1367ZM373.862 56.335C373.097 56.335 372.543 56.5469 372.201 56.9707C371.859 57.3945 371.684 58.069 371.675 58.9941V59.2471C371.675 60.2998 371.85 61.054 372.201 61.5098C372.552 61.9609 373.115 62.1865 373.89 62.1865C374.537 62.1865 375.043 61.9245 375.407 61.4004C375.776 60.8763 375.961 60.154 375.961 59.2334C375.961 58.2992 375.776 57.5837 375.407 57.0869C375.043 56.5856 374.528 56.335 373.862 56.335ZM385.593 59.2471C385.593 60.4684 385.285 61.4232 384.67 62.1113C384.055 62.7949 383.205 63.1367 382.12 63.1367C381.45 63.1367 380.855 62.9795 380.336 62.665C379.816 62.3506 379.415 61.8994 379.133 61.3115C378.85 60.7236 378.709 60.0355 378.709 59.2471C378.709 58.0257 379.014 57.0755 379.625 56.3965C380.236 55.7129 381.083 55.3711 382.168 55.3711C383.216 55.3711 384.048 55.7197 384.663 56.417C385.283 57.1143 385.593 58.0576 385.593 59.2471ZM379.885 59.2471C379.885 60.2041 380.076 60.9333 380.459 61.4346C380.842 61.9359 381.405 62.1865 382.147 62.1865C382.89 62.1865 383.453 61.9382 383.836 61.4414C384.223 60.9401 384.417 60.2087 384.417 59.2471C384.417 58.2946 384.223 57.5723 383.836 57.0801C383.453 56.5833 382.886 56.335 382.134 56.335C381.391 56.335 380.83 56.5788 380.452 57.0664C380.074 57.554 379.885 58.2809 379.885 59.2471ZM393.174 63H392.025V56.4785H389.776C389.653 58.1009 389.482 59.3883 389.264 60.3408C389.045 61.2933 388.76 61.9906 388.409 62.4326C388.063 62.8747 387.621 63.0957 387.083 63.0957C386.837 63.0957 386.641 63.0684 386.495 63.0137V62.1729C386.595 62.2002 386.709 62.2139 386.837 62.2139C387.361 62.2139 387.778 61.6602 388.088 60.5527C388.398 59.4453 388.632 57.7637 388.792 55.5078H393.174V63ZM396.722 58.6045H399.032C400.946 58.6045 401.903 59.3086 401.903 60.7168C401.903 61.4551 401.653 62.0202 401.151 62.4121C400.655 62.804 399.925 63 398.964 63H395.587V55.5078H396.722V58.6045ZM396.722 59.582V62.0498H398.909C399.511 62.0498 399.971 61.945 400.29 61.7354C400.609 61.5257 400.769 61.209 400.769 60.7852C400.769 60.3704 400.62 60.0674 400.324 59.876C400.033 59.68 399.549 59.582 398.875 59.582H396.722Z" fill="#A6ACBB"/>
<circle cx="74" cy="20" r="20" fill="#02D0AA"/>
<path d="M76.0376 13.4V26H73.1216V15.74H70.6016V13.4H76.0376Z" fill="white"/>
<path d="M62 21H229" stroke="#02D0AA"/>
<path d="M219 21H386" stroke="#A6ACBB"/>
<circle cx="223" cy="20" r="20" fill="#02D0AA"/>
<path d="M228.307 23.624V26H218.785V24.11L223.645 19.52C224.161 19.028 224.509 18.608 224.689 18.26C224.869 17.9 224.959 17.546 224.959 17.198C224.959 16.694 224.785 16.31 224.437 16.046C224.101 15.77 223.603 15.632 222.943 15.632C222.391 15.632 221.893 15.74 221.449 15.956C221.005 16.16 220.633 16.472 220.333 16.892L218.209 15.524C218.701 14.792 219.379 14.222 220.243 13.814C221.107 13.394 222.097 13.184 223.213 13.184C224.149 13.184 224.965 13.34 225.661 13.652C226.369 13.952 226.915 14.384 227.299 14.948C227.695 15.5 227.893 16.154 227.893 16.91C227.893 17.594 227.749 18.236 227.461 18.836C227.173 19.436 226.615 20.12 225.787 20.888L222.889 23.624H228.307Z" fill="white"/>
<circle cx="376" cy="20" r="20" fill="#A6ACBB"/>
<path d="M377.762 18.53C378.866 18.71 379.712 19.124 380.3 19.772C380.888 20.408 381.182 21.2 381.182 22.148C381.182 22.88 380.99 23.558 380.606 24.182C380.222 24.794 379.634 25.286 378.842 25.658C378.062 26.03 377.102 26.216 375.962 26.216C375.074 26.216 374.198 26.102 373.334 25.874C372.482 25.634 371.756 25.298 371.156 24.866L372.29 22.634C372.77 22.994 373.322 23.276 373.946 23.48C374.582 23.672 375.23 23.768 375.89 23.768C376.622 23.768 377.198 23.63 377.618 23.354C378.038 23.066 378.248 22.664 378.248 22.148C378.248 21.116 377.462 20.6 375.89 20.6H374.558V18.674L377.15 15.74H371.786V13.4H380.606V15.29L377.762 18.53Z" fill="white"/>
</svg>
