<svg width="800" height="800" viewBox="0 0 800 800" fill="none" xmlns="http://www.w3.org/2000/svg">
<rect x="-1" width="801" height="800" fill="#6E3CF4"/>
<rect y="583" width="773" height="217" fill="white"/>
<g clip-path="url(#clip0)">
<path d="M238.674 258.688H246.205H254.986C258.528 258.688 261.861 259.365 264.986 260.719C268.111 262.073 270.84 263.906 273.174 266.219C275.486 268.552 277.309 271.281 278.643 274.406C279.997 277.51 280.674 280.823 280.674 284.344C280.674 287.906 279.997 291.25 278.643 294.375C277.309 297.479 275.486 300.188 273.174 302.5C270.84 304.833 268.111 306.677 264.986 308.031C261.861 309.365 258.528 310.031 254.986 310.031H246.205H238.674V258.688ZM254.986 302.5C259.986 302.5 264.257 300.729 267.799 297.188C271.361 293.646 273.143 289.365 273.143 284.344C273.143 279.344 271.361 275.073 267.799 271.531C264.257 267.99 259.986 266.219 254.986 266.219H246.205V302.5H254.986ZM284.486 290.906C284.486 285.635 286.351 281.135 290.08 277.406C293.788 273.656 298.278 271.781 303.549 271.781C308.82 271.781 313.33 273.656 317.08 277.406C320.809 281.177 322.674 285.677 322.674 290.906C322.674 292.01 322.58 293.094 322.393 294.156H314.736H303.549H292.424C293.09 296.594 294.455 298.594 296.518 300.156C298.559 301.74 300.903 302.531 303.549 302.531C306.57 302.531 309.184 301.521 311.393 299.5H320.643C319.08 302.625 316.768 305.156 313.705 307.094C310.684 309.052 307.299 310.031 303.549 310.031C298.299 310.031 293.809 308.167 290.08 304.438C286.351 300.708 284.486 296.198 284.486 290.906ZM314.549 287.125C313.736 284.854 312.34 282.979 310.361 281.5C308.34 280.021 306.07 279.281 303.549 279.281C301.007 279.281 298.747 280.021 296.768 281.5C294.747 282.979 293.361 284.854 292.611 287.125H314.549ZM353.549 274.188C355.07 275.042 356.497 276.271 357.83 277.875C359.33 276.062 361.184 274.615 363.393 273.531C365.622 272.427 368.018 271.875 370.58 271.875C375.122 271.875 378.997 273.49 382.205 276.719C385.434 279.927 387.049 283.802 387.049 288.344V310.031H379.549V288.344C379.549 285.885 378.674 283.781 376.924 282.031C375.174 280.26 373.059 279.375 370.58 279.375C368.08 279.375 365.955 280.26 364.205 282.031C362.455 283.781 361.58 285.885 361.58 288.344V310.031H354.08V288.344C354.08 285.885 353.195 283.781 351.424 282.031C349.674 280.26 347.57 279.375 345.111 279.375C342.611 279.375 340.486 280.26 338.736 282.031C336.986 283.781 336.111 285.885 336.111 288.344V292.406V310.031H328.611V292.406V288.344V271.781H336.111V277.25C338.215 274.667 340.893 273.094 344.143 272.531C347.413 271.969 350.549 272.521 353.549 274.188ZM411.705 302.625C415.768 302.625 418.83 301.406 420.893 298.969C422.955 296.531 423.986 293.854 423.986 290.938C423.986 288 422.955 285.312 420.893 282.875C418.809 280.417 415.747 279.188 411.705 279.188C408.455 279.188 405.684 280.333 403.393 282.625C401.122 284.938 399.986 287.698 399.986 290.906C399.986 294.156 401.122 296.917 403.393 299.188C405.684 301.479 408.455 302.625 411.705 302.625ZM392.611 290.906C392.611 286.99 393.684 283.458 395.83 280.312C397.934 277.167 400.695 274.844 404.111 273.344C407.257 271.99 410.778 271.729 414.674 272.562C418.549 273.396 421.413 275.24 423.268 278.094V271.781H430.799V290.906V310.031H423.268V303.719C421.413 306.594 418.549 308.448 414.674 309.281C410.757 310.135 407.236 309.865 404.111 308.469C400.715 307.01 397.955 304.698 395.83 301.531C393.684 298.406 392.611 294.865 392.611 290.906ZM437.049 310.031V258.688H444.549V310.031H437.049ZM469.049 302.531C472.236 302.531 474.965 301.396 477.236 299.125C479.507 296.854 480.643 294.115 480.643 290.906C480.643 287.719 479.507 284.99 477.236 282.719C474.965 280.427 472.236 279.281 469.049 279.281C465.82 279.281 463.07 280.427 460.799 282.719C458.549 284.99 457.424 287.719 457.424 290.906C457.424 294.115 458.549 296.854 460.799 299.125C463.07 301.396 465.82 302.531 469.049 302.531ZM469.049 271.781C474.299 271.781 478.799 273.656 482.549 277.406C486.299 281.135 488.174 285.635 488.174 290.906C488.174 296.198 486.299 300.708 482.549 304.438C478.799 308.167 474.299 310.031 469.049 310.031C463.757 310.031 459.247 308.167 455.518 304.438C451.788 300.708 449.924 296.198 449.924 290.906C449.924 285.635 451.788 281.135 455.518 277.406C459.247 273.656 463.757 271.781 469.049 271.781ZM511.486 302.531C514.674 302.531 517.403 301.396 519.674 299.125C521.945 296.854 523.08 294.115 523.08 290.906C523.08 287.719 521.945 284.99 519.674 282.719C517.403 280.427 514.674 279.281 511.486 279.281C508.257 279.281 505.507 280.427 503.236 282.719C500.986 284.99 499.861 287.719 499.861 290.906C499.861 294.115 500.986 296.854 503.236 299.125C505.507 301.396 508.257 302.531 511.486 302.531ZM511.486 271.781C516.736 271.781 521.236 273.656 524.986 277.406C528.736 281.135 530.611 285.635 530.611 290.906C530.611 296.198 528.736 300.708 524.986 304.438C521.236 308.167 516.736 310.031 511.486 310.031C506.195 310.031 501.684 308.167 497.955 304.438C494.226 300.708 492.361 296.198 492.361 290.906C492.361 285.635 494.226 281.135 497.955 277.406C501.684 273.656 506.195 271.781 511.486 271.781Z" fill="white"/>
<path opacity="0.06" d="M387 578.037C489.746 578.037 573.037 494.746 573.037 392C573.037 289.255 489.746 205.963 387 205.963C284.255 205.963 200.963 289.255 200.963 392C200.963 494.746 284.255 578.037 387 578.037Z" stroke="white" stroke-width="40"/>
<path opacity="0.06" d="M387 657.17C533.449 657.17 652.169 538.449 652.169 392C652.169 245.551 533.449 126.83 387 126.83C240.551 126.83 121.83 245.551 121.83 392C121.83 538.449 240.551 657.17 387 657.17Z" stroke="white" stroke-width="45"/>
<circle opacity="0.06" cx="386.999" cy="392" r="348.955" stroke="white" stroke-width="45"/>
<circle opacity="0.06" cx="387" cy="392" r="421.5" stroke="white" stroke-width="45"/>
<path opacity="0.06" d="M387.511 486.643C439.499 486.643 481.644 444.499 481.644 392.511C481.644 340.523 439.499 298.378 387.511 298.378C335.523 298.378 293.379 340.523 293.379 392.511C293.379 444.499 335.523 486.643 387.511 486.643Z" stroke="white" stroke-width="35"/>
</g>
<path fill-rule="evenodd" clip-rule="evenodd" d="M156.664 644.389C155.19 640.544 151.702 637.294 147.604 637.016C143.022 636.709 138.455 639.982 134.078 638.592C130.437 637.435 128.508 633.541 127.106 629.976C122.781 618.978 119.522 607.248 110.185 599.129C105.384 594.95 99.0887 592.604 92.8012 593.544C75.5494 596.126 71.2592 620.627 55.2873 626.601C53.718 627.186 51.9358 627.564 50.3954 626.9C48.6173 626.139 47.6621 624.243 46.3926 622.781C42.6255 618.449 35.5131 618.105 30.708 621.232C25.9009 624.362 23.3351 630.224 23.1056 635.965C22.8596 642.114 23.9946 650.169 18.3895 652.662C14.6058 654.344 9.6602 652.033 6.56299 655.58C5.04539 657.32 4.68563 659.783 5.25628 662.021C5.63671 663.514 6.32108 664.819 7.19153 665.999C9.72636 669.437 13.9028 671.266 18.1703 671.262L142.14 671.154C147.823 671.15 153.065 667.766 155.132 662.459C155.885 660.528 156.489 658.545 156.952 656.556C157.884 652.548 158.138 648.234 156.664 644.389" fill="#0B3C49"/>
<path fill-rule="evenodd" clip-rule="evenodd" d="M319.451 661.711C317.773 661.129 315.912 661.54 314.168 661.203C310.704 660.532 308.49 657.076 307.55 653.696C306.612 650.316 306.515 646.706 305.185 643.46C303.854 640.212 300.679 637.264 297.194 637.821C295.554 638.084 294.136 639.07 292.573 639.629C285.867 642.024 278.945 635.955 276.154 629.442C272.507 620.936 272.569 610.836 264.158 604.629C257.786 599.931 249.187 598.861 242.086 602.375C234.458 606.147 230.144 614.01 225.667 621.14C221.327 628.058 215.711 635.159 207.673 636.782C200.891 638.15 193.076 635.439 187.367 639.321C181.248 643.484 181.524 652.589 183.866 659.582C185.713 665.089 189.523 671.06 195.364 671.233L317.028 671.602C321.863 671.614 324.474 665.488 320.738 662.439C320.351 662.122 319.923 661.875 319.451 661.711" fill="#0B3C49"/>
<path fill-rule="evenodd" clip-rule="evenodd" d="M102.831 668.062C102.28 665.718 100.343 663.932 98.4111 662.404C96.2588 660.702 93.9955 659.133 91.6358 657.708C86.6188 654.675 79.9378 652.35 75.0047 655.505C73.5398 656.442 72.4081 657.772 71.1403 658.942C68.0219 661.816 64.0171 663.729 59.8216 664.736C57.4347 665.306 54.9094 665.622 52.8326 666.886C50.7558 668.152 49.2909 670.773 50.3576 672.897C51.5081 675.194 54.6893 675.58 57.3445 675.66C63.8558 675.853 105.993 681.5 102.831 668.062" fill="#90ACC1"/>
<path fill-rule="evenodd" clip-rule="evenodd" d="M124.136 668.534C123.179 667.172 121.694 666.258 120.253 665.384C117.196 663.531 113.809 661.602 110.236 662.071C108.52 662.295 106.94 663.063 105.395 663.819C104.133 664.438 102.872 665.053 101.61 665.672C100.119 666.402 98.5947 667.155 97.4614 668.347C95.883 670.008 95.0761 673.215 97.7151 674.356C98.6093 674.743 99.6158 674.781 100.595 674.812C106.925 675.015 113.112 675.1 119.421 674.828C121.222 674.751 123.266 674.556 124.354 673.163C125.379 671.848 125.092 669.899 124.136 668.534" fill="#E5E9EC"/>
<g clip-path="url(#clip1)">
<path d="M85.8646 547.875L57.2306 540.415C57.2306 540.415 53.9864 551.475 52.7449 561.113C50.7645 576.499 53.3159 589.343 53.3159 589.343L73.6798 594.648L85.8646 547.875Z" fill="#656972"/>
<path d="M103.985 552.595L132.621 560.055C132.621 560.055 130.057 571.292 126.436 580.31C120.66 594.706 112.166 604.673 112.166 604.673L91.801 599.367L103.985 552.595Z" fill="#656972"/>
<path d="M106.92 553.36L81.8955 546.841L69.7111 593.613L94.7352 600.132L106.92 553.36Z" fill="#9CA3AF"/>
<path d="M78.2197 542.837L72.933 541.459C72.7833 541.674 70.543 547.262 69.5728 550.986C68.0047 557.005 71.1032 559.336 71.1032 559.336C71.1032 559.336 74.9374 558.808 76.5047 552.792C77.4749 549.067 78.2386 543.095 78.2197 542.837Z" fill="#9CA3AF"/>
<path d="M117.368 553.035L112.084 551.659C111.935 551.873 109.694 557.461 108.724 561.185C107.156 567.204 110.255 569.535 110.255 569.535C110.255 569.535 114.099 569.013 115.663 562.993C116.628 559.267 117.395 553.296 117.368 553.035Z" fill="#9CA3AF"/>
<path d="M121.996 534.673C123.224 528.78 121.465 524.874 117.902 522.5C112.099 518.64 95.9238 513.575 87.3833 514.549C83.1403 515.028 79.676 517.429 77.8708 523.178C75.5491 530.572 72.9308 541.466 72.9308 541.466L78.2175 542.843C78.2175 542.843 82.4145 525.446 84.672 521.467C88.0688 515.481 102.329 519.756 102.329 519.756C102.329 519.756 116.693 523.027 116.908 529.865C117.053 534.44 112.112 551.673 112.112 551.673L117.392 553.049C117.392 553.049 120.417 542.253 121.996 534.673Z" fill="#9CA3AF"/>
<path d="M75.655 548.971C75.5896 549.222 75.4513 549.448 75.2577 549.62C75.0641 549.793 74.8239 549.904 74.5674 549.94C74.3108 549.976 74.0496 549.935 73.8166 549.822C73.5836 549.709 73.3894 549.529 73.2585 549.305C73.1276 549.081 73.0659 548.824 73.0812 548.565C73.0964 548.306 73.188 548.057 73.3444 547.85C73.5007 547.643 73.7147 547.487 73.9594 547.401C74.2041 547.316 74.4684 547.306 74.719 547.371C75.0548 547.459 75.3419 547.676 75.5174 547.976C75.6929 548.276 75.7424 548.634 75.655 548.971V548.971Z" fill="#7E848C"/>
<path d="M75.4675 548.443C75.4021 548.694 75.2638 548.921 75.0702 549.093C74.8766 549.266 74.6364 549.377 74.3799 549.413C74.1233 549.449 73.8621 549.407 73.6291 549.294C73.3961 549.181 73.2019 549.002 73.071 548.778C72.9401 548.554 72.8784 548.296 72.8937 548.037C72.9089 547.778 73.0005 547.529 73.1569 547.322C73.3132 547.115 73.5272 546.959 73.7719 546.874C74.0166 546.789 74.2809 546.778 74.5315 546.843C74.8675 546.931 75.1548 547.149 75.3304 547.449C75.5059 547.749 75.5553 548.107 75.4675 548.443V548.443Z" fill="#D8B935"/>
<path d="M75.1938 547.258C75.2986 547.546 75.2991 547.863 75.1952 548.152C75.0912 548.441 74.8894 548.684 74.6249 548.84C74.3604 548.995 74.05 549.053 73.7477 549.003C73.4454 548.952 73.1704 548.797 72.9706 548.565C73.0362 548.745 73.1407 548.909 73.2765 549.045C73.4124 549.18 73.5764 549.284 73.7569 549.349C73.9373 549.414 74.1299 549.439 74.3209 549.421C74.512 549.403 74.6968 549.343 74.8624 549.246C75.028 549.149 75.1702 549.016 75.2791 548.858C75.388 548.699 75.4608 548.519 75.4924 548.329C75.524 548.14 75.5136 547.945 75.462 547.76C75.4105 547.575 75.3189 547.404 75.1938 547.258V547.258Z" fill="#C6A932"/>
<g opacity="0.38">
<path opacity="0.38" d="M73.3315 547.548C73.2456 547.661 73.2012 547.801 73.2057 547.943C73.2102 548.085 73.2634 548.222 73.3563 548.329C73.3973 548.374 73.4527 548.402 73.5126 548.41C73.5687 548.404 73.622 548.382 73.6655 548.346C73.709 548.31 73.7409 548.262 73.757 548.208C73.7863 548.098 73.8267 547.992 73.8775 547.891C73.9506 547.795 74.0541 547.727 74.1709 547.698C74.2858 547.661 74.4052 547.647 74.5203 547.615C74.5528 547.61 74.5839 547.598 74.6114 547.58C74.6389 547.562 74.6621 547.538 74.6795 547.51C74.7196 547.418 74.6385 547.319 74.5542 547.266C74.1619 547.013 73.5966 547.177 73.3315 547.548Z" fill="white"/>
</g>
<path d="M73.0362 555.656C73.7525 555.556 74.253 554.893 74.154 554.175C74.0551 553.457 73.3942 552.957 72.6779 553.057C71.9615 553.157 71.4611 553.82 71.56 554.537C71.659 555.255 72.3199 555.756 73.0362 555.656Z" fill="#7E848C"/>
<path d="M72.3386 555.097C73.0383 555.279 73.7536 554.858 73.9363 554.157C74.119 553.455 73.6999 552.739 73.0002 552.557C72.3006 552.375 71.5853 552.795 71.4026 553.497C71.2199 554.198 71.639 554.914 72.3386 555.097Z" fill="#D8B935"/>
<path d="M73.6631 552.972C73.7557 553.222 73.7689 553.495 73.701 553.753C73.6133 554.09 73.3957 554.378 73.0961 554.555C72.7965 554.731 72.4394 554.781 72.1034 554.693C71.8453 554.627 71.6142 554.482 71.4413 554.279C71.5067 554.459 71.611 554.624 71.7469 554.76C71.8828 554.896 72.0468 555 72.2275 555.065C72.4081 555.13 72.601 555.155 72.7922 555.137C72.9835 555.119 73.1686 555.059 73.3343 554.962C73.5001 554.864 73.6424 554.731 73.7512 554.573C73.8601 554.414 73.9328 554.233 73.9642 554.043C73.9955 553.853 73.9848 553.659 73.9328 553.474C73.8808 553.288 73.7887 553.117 73.6631 552.972V552.972Z" fill="#C6A932"/>
<g opacity="0.38">
<path opacity="0.38" d="M71.8023 553.262C71.7169 553.375 71.6728 553.515 71.6773 553.657C71.6818 553.799 71.7347 553.935 71.8271 554.043C71.8681 554.088 71.9241 554.117 71.9847 554.124C72.0409 554.118 72.0941 554.096 72.1377 554.06C72.1812 554.024 72.213 553.976 72.2291 553.922C72.2576 553.813 72.2979 553.707 72.3493 553.607C72.422 553.51 72.525 553.442 72.6417 553.411C72.7562 553.377 72.876 553.361 72.9907 553.331C73.0233 553.326 73.0544 553.314 73.0819 553.296C73.1094 553.277 73.1326 553.253 73.1499 553.225C73.1897 553.135 73.1086 553.036 73.0246 552.981C72.6313 552.732 72.0673 552.891 71.8023 553.262Z" fill="white"/>
</g>
<path d="M113.063 560.551C113.763 560.734 114.478 560.313 114.661 559.612C114.844 558.91 114.424 558.194 113.725 558.012C113.025 557.83 112.31 558.25 112.127 558.952C111.945 559.653 112.364 560.369 113.063 560.551Z" fill="#7E848C"/>
<path d="M114.473 559.083C114.408 559.334 114.27 559.56 114.076 559.733C113.882 559.905 113.642 560.017 113.386 560.052C113.129 560.088 112.868 560.047 112.635 559.934C112.402 559.821 112.208 559.641 112.077 559.417C111.946 559.194 111.884 558.936 111.9 558.677C111.915 558.418 112.006 558.169 112.163 557.962C112.319 557.755 112.533 557.599 112.778 557.514C113.022 557.428 113.287 557.418 113.537 557.483C113.873 557.571 114.16 557.789 114.336 558.089C114.511 558.389 114.561 558.746 114.473 559.083V559.083Z" fill="#D8B935"/>
<path d="M114.199 557.898C114.31 558.187 114.315 558.507 114.213 558.8C114.111 559.093 113.908 559.34 113.642 559.497C113.375 559.655 113.061 559.713 112.756 559.661C112.451 559.608 112.174 559.449 111.976 559.212C112.041 559.392 112.145 559.557 112.281 559.693C112.417 559.828 112.581 559.933 112.762 559.998C112.942 560.063 113.135 560.088 113.327 560.07C113.518 560.052 113.703 559.992 113.869 559.895C114.034 559.797 114.177 559.664 114.286 559.506C114.394 559.347 114.467 559.166 114.498 558.976C114.53 558.786 114.519 558.592 114.467 558.407C114.415 558.221 114.323 558.05 114.197 557.905L114.199 557.898Z" fill="#C6A932"/>
<g opacity="0.38">
<path opacity="0.38" d="M112.339 558.188C112.254 558.302 112.21 558.441 112.214 558.583C112.219 558.725 112.272 558.862 112.364 558.969C112.405 559.014 112.46 559.043 112.52 559.051C112.576 559.045 112.629 559.023 112.673 558.987C112.717 558.951 112.748 558.903 112.765 558.849C112.794 558.74 112.834 558.634 112.886 558.533C112.958 558.436 113.062 558.367 113.179 558.338C113.293 558.303 113.413 558.287 113.528 558.257C113.56 558.252 113.591 558.24 113.619 558.221C113.646 558.203 113.669 558.179 113.687 558.152C113.727 558.061 113.646 557.962 113.562 557.908C113.167 557.658 112.603 557.816 112.339 558.188Z" fill="white"/>
</g>
<path d="M111.532 566.265C112.232 566.447 112.947 566.026 113.13 565.325C113.312 564.624 112.893 563.908 112.194 563.725C111.494 563.543 110.779 563.964 110.596 564.665C110.413 565.366 110.832 566.083 111.532 566.265Z" fill="#7E848C"/>
<path d="M111.854 565.768C112.57 565.668 113.07 565.005 112.971 564.287C112.872 563.57 112.212 563.069 111.495 563.169C110.779 563.269 110.278 563.932 110.377 564.65C110.476 565.367 111.137 565.868 111.854 565.768Z" fill="#D8B935"/>
<path d="M112.668 563.611C112.773 563.9 112.774 564.216 112.67 564.505C112.566 564.794 112.365 565.038 112.1 565.193C111.836 565.349 111.526 565.407 111.223 565.357C110.921 565.307 110.646 565.152 110.446 564.92C110.512 565.1 110.616 565.264 110.752 565.399C110.888 565.535 111.052 565.639 111.233 565.704C111.413 565.768 111.606 565.793 111.797 565.775C111.988 565.757 112.173 565.697 112.338 565.599C112.504 565.502 112.646 565.369 112.755 565.211C112.863 565.052 112.936 564.872 112.967 564.682C112.999 564.492 112.988 564.298 112.937 564.113C112.885 563.928 112.793 563.757 112.668 563.611V563.611Z" fill="#C6A932"/>
<g opacity="0.38">
<path opacity="0.38" d="M110.809 563.897C110.724 564.011 110.68 564.151 110.684 564.294C110.689 564.436 110.742 564.573 110.835 564.68C110.876 564.725 110.932 564.753 110.992 564.761C111.048 564.755 111.101 564.733 111.144 564.697C111.188 564.661 111.22 564.613 111.236 564.559C111.265 564.449 111.306 564.343 111.356 564.242C111.43 564.146 111.533 564.077 111.65 564.047C111.763 564.012 111.883 563.998 111.998 563.966C112.031 563.962 112.062 563.95 112.089 563.932C112.117 563.913 112.14 563.889 112.157 563.861C112.197 563.77 112.116 563.671 112.031 563.618C111.636 563.379 111.075 563.526 110.809 563.897Z" fill="white"/>
</g>
<path d="M112.137 604.666C112.137 604.666 120.631 594.699 126.407 580.304C126.994 578.843 127.556 577.315 128.082 575.79C124.702 581.802 120.771 587.485 116.34 592.766C114.603 594.835 112.753 596.871 110.439 598.26C107.548 599.992 104.201 600.533 100.882 600.663C99.6979 600.711 98.4874 600.676 97.3134 600.805L112.137 604.666Z" fill="#4E5156"/>
<g opacity="0.24">
<path opacity="0.24" d="M82.9518 517.287C81.3226 518.623 80.449 520.662 79.7796 522.664C79.1063 524.676 78.5771 526.734 78.196 528.821C78.1012 529.342 78.1026 530.034 78.5955 530.227C79.1507 530.445 79.6336 529.783 79.8388 529.22C80.5822 527.17 80.8354 524.973 81.4497 522.879C82.0641 520.785 83.1445 518.689 85.0253 517.583C86.1592 516.917 87.4891 516.668 88.7983 516.56C89.2785 516.521 89.946 516.218 89.7345 515.777C87.4305 515.303 84.804 515.769 82.9518 517.287Z" fill="white"/>
</g>
<g opacity="0.24">
<path opacity="0.24" d="M90.7391 515.742C90.7818 515.849 90.8499 515.943 90.9376 516.017C91.0253 516.091 91.1298 516.142 91.242 516.166C91.4669 516.215 91.6978 516.23 91.9272 516.211C93.5098 516.183 95.0662 516.526 96.6435 516.715C97.0966 516.769 97.565 516.808 98.0018 516.677C98.1842 516.623 98.3789 516.511 98.4086 516.324C98.4523 516.027 98.0783 515.866 97.7829 515.814C96.4569 515.58 95.1223 515.407 93.7792 515.295C93.2991 515.261 90.4325 514.755 90.7391 515.742Z" fill="white"/>
</g>
<g opacity="0.07">
<path opacity="0.07" d="M59.3523 546.697C58.9864 547.18 58.8617 547.799 58.7466 548.393C56.8313 558.314 54.906 568.436 56.1048 578.469C56.3134 580.22 56.6303 581.999 57.4983 583.528C58.3663 585.057 59.876 586.327 61.6293 586.475C63.3826 586.624 65.2663 585.378 65.4595 583.625C65.6049 582.308 64.8546 581.086 64.2296 579.916C60.5331 572.969 60.749 564.614 61.8037 556.806C62.2005 553.889 62.7038 550.94 62.352 548.019C62.1887 546.606 60.5179 545.168 59.3523 546.697Z" fill="white"/>
</g>
<path d="M92.0292 583.736L81.8726 581.09C80.5331 580.741 79.1637 581.547 78.8139 582.889L78.7137 583.274C78.3639 584.617 79.1663 585.988 80.5057 586.337L90.6624 588.983C92.0018 589.332 93.3713 588.526 93.721 587.184L93.8213 586.799C94.171 585.456 93.3687 584.085 92.0292 583.736Z" fill="#7E848C"/>
<path d="M91.6152 582.805L81.4586 580.159C80.1191 579.81 78.7497 580.615 78.3999 581.958L78.2996 582.343C77.9499 583.686 78.7522 585.057 80.0917 585.406L90.2483 588.052C91.5878 588.401 92.9572 587.595 93.307 586.252L93.4072 585.868C93.757 584.525 92.9547 583.154 91.6152 582.805Z" fill="#D8B935"/>
<path d="M90.3809 587.546L80.2229 584.9C79.5912 584.735 79.0488 584.33 78.7111 583.771C78.3735 583.211 78.2673 582.541 78.415 581.904C78.409 581.927 78.4032 581.949 78.3975 581.971L78.2969 582.357C78.1294 583.002 78.2241 583.686 78.5602 584.26C78.8963 584.835 79.4463 585.251 80.0893 585.419L90.2473 588.065C90.8903 588.232 91.5737 588.137 92.1471 587.8C92.7206 587.463 93.1373 586.911 93.3056 586.267L93.4062 585.881C93.4119 585.859 93.4176 585.837 93.4237 585.813C93.2422 586.443 92.8223 586.976 92.2537 587.3C91.6851 587.624 91.013 587.712 90.3809 587.546Z" fill="#C6A932"/>
<g opacity="0.14">
<path opacity="0.14" d="M87.7472 581.797L83.6068 586.322L87.7363 587.397L90.8471 582.605L87.7472 581.797Z" fill="white"/>
<path opacity="0.14" d="M93.3439 586.262L93.4442 585.877C93.5838 585.347 93.5463 584.787 93.3374 584.281L89.5312 587.865L90.2894 588.062C90.9322 588.229 91.6151 588.133 92.1879 587.795C92.7607 587.458 93.1765 586.906 93.3439 586.262V586.262Z" fill="white"/>
<path opacity="0.14" d="M78.3494 583.669C78.4681 584.091 78.6947 584.474 79.0069 584.78C79.319 585.086 79.7057 585.305 80.1287 585.415L80.4975 585.511L84.5584 580.966L82.7212 580.488C81.4645 581.4 79.6713 582.703 78.3494 583.669Z" fill="white"/>
</g>
</g>
<path fill-rule="evenodd" clip-rule="evenodd" d="M242.778 457.342C242.778 457.342 226.069 479.9 210.525 486.138C209.646 486.491 208.642 486.308 207.929 485.688C203.386 481.736 186.646 465.972 176.811 440.418L173.678 422.042C173.678 422.042 187.384 420.209 190.168 431.065C192.637 440.702 207.24 463.778 210.492 468.844C210.842 469.389 211.575 469.54 212.115 469.18L236.745 451.912L240.514 453.364L242.778 457.342Z" fill="#F5BA87"/>
<path fill-rule="evenodd" clip-rule="evenodd" d="M93.0757 522.181C93.338 520.091 93.637 518.326 93.8978 516.973C94.2583 515.099 95.4731 513.503 97.1905 512.649L98.7409 511.878L102.28 508.78L102.951 507.297C108.84 499.935 115.065 488.391 119.88 475.652L126.025 456.3L139.766 462.796L134.574 478.285C134.574 478.285 127.348 496.757 116.243 507.129L110.08 511.437C111.173 512.993 111.677 514.951 111.441 516.837C111.192 518.831 110.128 520.712 108.544 521.956C108.459 523.362 107.976 524.569 107.891 525.974C107.891 525.974 107.281 527.451 105.798 527.663C104.314 527.874 94.3477 527.663 94.3477 527.663C94.3477 527.663 92.4383 527.242 93.0757 522.181" fill="#F5BA87"/>
<path fill-rule="evenodd" clip-rule="evenodd" d="M168.35 652.045L181.602 649.116L188.754 674.008L193.993 676.434L191.7 681.329L184.58 678.536L181.602 679.028L168.35 652.045Z" fill="#F5BA87"/>
<path fill-rule="evenodd" clip-rule="evenodd" d="M172.668 660.938L180.557 673.36C181.774 675.275 183.89 676.435 186.165 676.435H193.993C193.993 676.435 197.543 677.142 199.069 679.984C199.892 681.515 198.759 683.369 197.012 683.369H183.432C182.599 683.369 181.822 682.955 181.362 682.267L175.143 671.623L176.374 683.858H173.913L169.401 668.361C169.401 668.361 167.335 661.346 172.668 660.938" fill="#C93F3F"/>
<path fill-rule="evenodd" clip-rule="evenodd" d="M129.508 637.786L141.569 643.981L131.023 667.649L133.482 672.85L128.567 675.146L124.902 668.465L122.298 666.948L129.508 637.786Z" fill="#F5BA87"/>
<path fill-rule="evenodd" clip-rule="evenodd" d="M127.092 647.365L125.147 661.931C124.847 664.174 125.725 666.413 127.473 667.863L133.481 672.85C133.481 672.85 135.752 675.654 135.093 678.808C134.738 680.509 132.675 681.211 131.334 680.098L120.906 671.445C120.268 670.915 119.936 670.103 120.027 669.28L122.111 657.146L115.171 667.323L113.282 665.756L119.803 650.983C119.803 650.983 122.735 644.281 127.092 647.365" fill="#C93F3F"/>
<path fill-rule="evenodd" clip-rule="evenodd" d="M136.875 646.148C132.657 642.855 127.999 640.127 124 636.586C127.697 621.693 141.08 584.405 153.753 578.274L156.555 506.753L188.314 498.857L191.462 544.884C192.44 559.193 187.997 573.347 179.004 584.559L140.088 648.685C139.02 647.837 137.95 646.988 136.875 646.148" fill="#195768"/>
<path fill-rule="evenodd" clip-rule="evenodd" d="M144.993 488.422L184.149 488.8C184.149 488.8 192.138 503.047 186.671 513.081C181.207 523.117 166.122 523.575 166.122 523.575L185.979 657.338H167.87C158.719 647.128 144.965 603.988 149.925 574.939C149.925 574.939 118.068 516.548 144.993 488.422" fill="#1E6072"/>
<path fill-rule="evenodd" clip-rule="evenodd" d="M159.821 359.163C155.577 353.811 147.305 352.619 141.137 355.593C134.97 358.567 130.938 364.979 129.69 371.68C128.44 378.384 129.684 385.337 131.933 391.777C133.599 396.549 135.844 401.265 135.973 406.314C136.101 411.365 133.317 416.975 128.35 418.043C123.888 419 124.548 426.54 127.606 429.911C130.664 433.281 135.764 434.167 140.249 433.32C149.138 431.642 156.031 424.123 159.271 415.722C162.513 407.322 162.687 398.094 162.481 389.098C162.252 379.119 166.036 367.001 159.821 359.163" fill="#A5693C"/>
<path fill-rule="evenodd" clip-rule="evenodd" d="M162.392 358.917C159.793 357.124 156.107 357.056 153.443 358.752C150.778 360.447 149.297 363.804 149.846 366.901C152.59 367.871 156.08 367.178 158.466 365.521C160.853 363.864 162.361 361.811 162.392 358.917" fill="#E13545"/>
<path fill-rule="evenodd" clip-rule="evenodd" d="M153.054 372.936C153.054 382.108 161.15 389.542 171.138 389.542C181.126 389.542 189.224 382.108 189.224 372.936C189.224 363.764 181.126 356.33 171.138 356.33C161.15 356.33 153.054 363.764 153.054 372.936" fill="#B57947"/>
<path fill-rule="evenodd" clip-rule="evenodd" d="M142.637 379.266C142.637 388.438 150.733 395.873 160.721 395.873C170.709 395.873 178.806 388.438 178.806 379.266C178.806 370.095 170.709 362.66 160.721 362.66C150.733 362.66 142.637 370.095 142.637 379.266" fill="#B57947"/>
<path fill-rule="evenodd" clip-rule="evenodd" d="M143.071 386.973C143.071 389.914 145.468 392.296 148.424 392.296C151.381 392.296 153.778 389.914 153.778 386.973C153.778 384.032 151.381 381.65 148.424 381.65C145.468 381.65 143.071 384.032 143.071 386.973" fill="#F5BA87"/>
<path fill-rule="evenodd" clip-rule="evenodd" d="M149.293 386.825C149.293 397.788 157.105 404.602 168.388 406.675C178.77 408.583 187.776 400.75 187.776 389.788C187.776 378.825 181.698 367.272 168.388 366.975C157.845 366.74 149.293 375.862 149.293 386.825" fill="#F5BA87"/>
<path fill-rule="evenodd" clip-rule="evenodd" d="M167.959 417.617H155.289V388.556H167.959V417.617Z" fill="#F5BA87"/>
<path fill-rule="evenodd" clip-rule="evenodd" d="M138.413 428.788C138.413 437.342 148.805 444.276 161.624 444.276C174.443 444.276 184.836 437.342 184.836 428.788C184.836 420.234 174.443 413.301 161.624 413.301C148.805 413.301 138.413 420.234 138.413 428.788" fill="#F5BA87"/>
<path fill-rule="evenodd" clip-rule="evenodd" d="M183.415 419.712C183.415 419.712 180.342 428.546 181.28 440.259C182.218 451.972 189.989 467.069 189.989 467.069L206.285 460.271C206.285 460.271 195.194 418.781 183.415 419.712" fill="#FFAA00"/>
<path fill-rule="evenodd" clip-rule="evenodd" d="M139.599 466.552L122.812 461.06C122.812 461.06 123.572 424.701 138.979 419.128C142.319 416.804 147.662 415.309 151.052 414.972C150.436 415.475 148.529 417.26 148.809 419.994C149.432 426.071 154.021 429.221 162.211 429.221C170.401 429.221 175.939 426.388 175.592 419.982C175.477 417.917 173.397 415.723 173.358 415.398C173.358 415.398 182.529 417.377 185.829 420.113C185.829 420.113 186.074 432.49 187.618 435.255C189.163 438.02 193.796 447.546 189.472 455.533C185.146 463.519 180.348 475.19 184.148 488.801C184.148 488.801 166.662 500.52 144.993 488.422C144.993 488.422 147.146 470.765 142.134 459.581C140.779 463.726 139.599 466.552 139.599 466.552" fill="#FFC200"/>
<path fill-rule="evenodd" clip-rule="evenodd" d="M142.134 459.58C142.134 459.58 146.891 440.405 140.367 427.428C140.367 427.428 153.09 443.974 152.437 458.896C151.829 472.778 179.17 467.57 182.989 466.776C183.188 466.735 183.358 466.916 183.301 467.111C183.046 467.996 182.475 470.099 182.234 471.974C182.123 472.844 181.383 473.494 180.502 473.494H156.617C152.478 473.494 148.981 476.541 148.433 480.621C148.046 483.489 147.808 486.861 148.122 490.022C147.09 489.542 146.045 489.01 144.992 488.422C144.992 488.422 147.146 470.765 142.134 459.58" fill="#FFAA00"/>
<path fill-rule="evenodd" clip-rule="evenodd" d="M173.093 493.066C173.417 493.027 173.815 492.889 174.117 492.839C174.52 492.774 174.839 492.676 175.232 492.568C175.993 495.834 177.309 503.397 175.701 511.228C175.597 511.738 175.147 512.089 174.645 512.089C174.573 512.089 174.499 512.082 174.426 512.067C173.842 511.948 173.465 511.379 173.584 510.798C175.109 503.363 173.795 496.102 173.093 493.066" fill="#318599"/>
<path fill-rule="evenodd" clip-rule="evenodd" d="M239.374 436.459C240.285 436.569 240.975 437.332 240.989 438.244L240.766 443.091C240.773 443.623 241.434 443.868 241.789 443.472L248.096 431.967C248.505 431.225 249.457 430.979 250.177 431.426C250.842 431.84 251.067 432.698 250.691 433.383L245.852 441.688C245.732 441.895 245.804 442.161 246.012 442.281C246.151 442.361 246.328 442.328 246.43 442.204L253.387 433.678C253.91 433.035 254.863 432.949 255.496 433.485L255.499 433.488C256.11 434.007 256.193 434.915 255.688 435.534L248.453 444.18C248.343 444.314 248.359 444.511 248.493 444.624C248.622 444.733 248.815 444.723 248.931 444.599L255.436 437.707C256.009 437.121 256.952 437.111 257.539 437.685L257.54 437.689C258.119 438.256 258.129 439.18 257.564 439.76L251.135 446.351C250.911 446.581 250.915 446.948 251.145 447.173C251.343 447.364 251.645 447.393 251.875 447.244L256.712 444.108C257.38 443.674 258.276 443.847 258.734 444.5L258.736 444.503C259.212 445.184 259.029 446.122 258.33 446.577L252.55 450.323C252.518 450.344 252.489 450.367 252.461 450.395C250.408 452.417 245.744 456.668 244.945 457.04C242.649 458.105 241.4 457.024 240.725 456.964C240.616 456.955 240.515 456.916 240.432 456.849C239.504 456.117 236.365 453.488 236.046 452.05C235.624 450.172 236.156 446.654 237.085 444.607C237.113 444.543 237.119 444.473 237.117 444.403L237.322 438.294C237.306 437.191 238.272 436.328 239.374 436.459" fill="#F5BA87"/>
<path fill-rule="evenodd" clip-rule="evenodd" d="M179.273 395.29C179.273 395.29 173.765 397.866 167.084 395.29C167.084 395.29 166.583 401.6 173.43 401.932C173.43 401.932 179.106 402.264 179.273 395.29" fill="white"/>
<path fill-rule="evenodd" clip-rule="evenodd" d="M173.094 395.697C173.184 395.658 173.272 395.617 173.358 395.575C174.617 394.951 175.56 393.88 176.012 392.555C176.416 391.372 176.39 390.077 175.936 388.906L173.587 382.837L172.981 383.145L175.33 389.214C175.711 390.198 175.735 391.286 175.395 392.28C175.008 393.414 174.192 394.336 173.096 394.878C173.018 394.917 172.939 394.954 172.858 394.989L173.094 395.697Z" fill="#E87562"/>
<path fill-rule="evenodd" clip-rule="evenodd" d="M156.484 380.359L172.618 382.4L172.609 382.445H175.229L175.219 382.4L191.353 380.359C191.353 380.359 192.82 387.943 189.593 390.276C188.507 391.062 184.757 391.964 182.07 392.031C179.303 392.101 176.882 390.196 176.308 387.503L175.789 385.068H172.049L171.531 387.503C170.955 390.196 168.534 392.101 165.767 392.031C163.08 391.964 159.33 391.062 158.244 390.276C155.017 387.943 156.484 380.359 156.484 380.359" fill="#514847"/>
<path fill-rule="evenodd" clip-rule="evenodd" d="M189.159 385.398L189.338 385.006L184.87 382.996L184.691 383.388L189.159 385.398Z" fill="#605655"/>
<path fill-rule="evenodd" clip-rule="evenodd" d="M188.734 388.678L188.911 388.286L180.4 384.477L180.223 384.869L188.734 388.678Z" fill="#605655"/>
<path fill-rule="evenodd" clip-rule="evenodd" d="M183.399 389.093L183.608 388.717L180.522 387.025L180.314 387.401L183.399 389.093Z" fill="#605655"/>
<path fill-rule="evenodd" clip-rule="evenodd" d="M167.99 385.504L168.167 385.112L163.699 383.102L163.52 383.494L167.99 385.504Z" fill="#605655"/>
<path fill-rule="evenodd" clip-rule="evenodd" d="M167.564 388.783L167.741 388.391L159.23 384.583L159.052 384.975L167.564 388.783Z" fill="#605655"/>
<path fill-rule="evenodd" clip-rule="evenodd" d="M162.229 389.199L162.438 388.823L159.353 387.131L159.145 387.505L162.229 389.199Z" fill="#605655"/>
<path fill-rule="evenodd" clip-rule="evenodd" d="M149.815 376.166C150.881 372.997 153.57 370.505 156.69 369.266C156.729 369.25 156.766 369.243 156.804 369.229C156.716 368.802 156.741 368.363 156.918 367.951C157.264 367.148 158.071 366.651 158.838 366.224C160.3 365.411 161.798 364.654 163.323 363.961C164.869 363.257 166.494 362.605 168.197 362.572C169.874 362.538 171.654 363.226 172.526 364.647C174.777 363.343 177.278 362.617 179.81 362.858C185.21 363.372 190.191 367.034 192.267 372.019C194.342 377.004 193.053 383.401 189.598 387.562C190.644 385.484 189.473 382.824 187.549 381.507C185.625 380.19 183.172 379.924 180.835 379.9C178.497 379.873 176.118 380.044 173.859 379.447C170.361 378.524 167.489 375.643 166.471 372.204C166.45 372.206 166.427 372.209 166.404 372.21C166.19 375.57 164.8 378.853 162.503 381.331C159.865 384.174 156.067 385.919 152.178 386.072C149.697 383.82 148.749 379.336 149.815 376.166" fill="#B57947"/>
<path fill-rule="evenodd" clip-rule="evenodd" d="M175.922 381.06C175.664 380.523 175.919 379.882 176.476 379.664C178.636 378.816 183.623 377.01 185.66 377.529C188.291 378.201 190.067 380.408 190.067 380.408L184.527 379.111L177.184 381.589C176.69 381.756 176.148 381.529 175.922 381.06" fill="#B57947"/>
<path fill-rule="evenodd" clip-rule="evenodd" d="M168.196 380.588C168.454 380.05 168.2 379.409 167.642 379.192C165.482 378.344 160.495 376.538 158.46 377.057C155.826 377.729 154.052 379.936 154.052 379.936L159.591 378.639L166.934 381.117C167.429 381.284 167.972 381.057 168.196 380.588" fill="#B57947"/>
<mask id="mask0" mask-type="alpha" maskUnits="userSpaceOnUse" x="455" y="590" width="153" height="78">
<path fill-rule="evenodd" clip-rule="evenodd" d="M455 590.053H607.71V667.977H455V590.053Z" fill="white"/>
</mask>
<g mask="url(#mask0)">
<path fill-rule="evenodd" clip-rule="evenodd" d="M606.664 641.104C605.19 637.259 601.702 634.009 597.604 633.731C593.022 633.424 588.455 636.697 584.078 635.307C580.437 634.15 578.508 630.255 577.106 626.69C572.781 615.693 569.522 603.963 560.185 595.844C555.384 591.665 549.089 589.319 542.801 590.259C525.549 592.841 521.259 617.341 505.287 623.316C503.718 623.901 501.936 624.278 500.395 623.615C498.617 622.854 497.662 620.958 496.393 619.496C492.626 615.164 485.513 614.82 480.708 617.947C475.901 621.076 473.335 626.939 473.106 632.68C472.86 638.829 473.995 646.884 468.389 649.376C464.606 651.058 459.66 648.748 456.563 652.294C455.045 654.034 454.686 656.498 455.256 658.736C455.637 660.229 456.321 661.533 457.192 662.714C459.726 666.152 463.903 667.981 468.17 667.977L592.14 667.869C597.823 667.865 603.065 664.48 605.132 659.173C605.885 657.243 606.489 655.26 606.952 653.271C607.884 649.262 608.138 644.949 606.664 641.104" fill="#0B3C49"/>
</g>
<mask id="mask1" mask-type="alpha" maskUnits="userSpaceOnUse" x="632" y="597" width="141" height="72">
<path fill-rule="evenodd" clip-rule="evenodd" d="M632.324 597.012H772.511V668.316H632.324V597.012Z" fill="white"/>
</mask>
<g mask="url(#mask1)">
<path fill-rule="evenodd" clip-rule="evenodd" d="M769.451 658.426C767.773 657.844 765.912 658.255 764.168 657.918C760.704 657.247 758.49 653.791 757.55 650.411C756.612 647.031 756.515 643.421 755.185 640.175C753.854 636.927 750.679 633.979 747.194 634.536C745.554 634.799 744.136 635.785 742.573 636.344C735.867 638.739 728.945 632.67 726.154 626.157C722.507 617.651 722.569 607.551 714.158 601.344C707.786 596.646 699.187 595.576 692.086 599.09C684.458 602.862 680.144 610.725 675.667 617.855C671.327 624.773 665.711 631.874 657.673 633.497C650.891 634.865 643.076 632.154 637.367 636.036C631.248 640.199 631.524 649.304 633.866 656.297C635.713 661.804 639.523 667.775 645.364 667.948L767.028 668.316C771.863 668.329 774.474 662.203 770.738 659.154C770.351 658.837 769.923 658.59 769.451 658.426" fill="#0B3C49"/>
</g>
<mask id="mask2" mask-type="alpha" maskUnits="userSpaceOnUse" x="709" y="652" width="44" height="26">
<path fill-rule="evenodd" clip-rule="evenodd" d="M709.105 652.888H752.983V677.715H709.105V652.888Z" fill="white"/>
</mask>
<g mask="url(#mask2)">
<path fill-rule="evenodd" clip-rule="evenodd" d="M752.755 667.184C752.374 665.841 751.413 664.743 750.464 663.71C745.474 658.277 739.265 652.903 731.852 652.888C728.472 652.882 725.205 654.016 722.084 655.295C717.934 656.997 713.726 659.13 711.145 662.768C708.562 666.409 708.193 671.937 711.437 675.014C715.007 678.4 720.566 677.66 725.076 677.619C730.891 677.563 736.717 677.22 742.449 676.21C746.654 675.469 754.409 673.023 752.755 667.184" fill="#90ACC1"/>
</g>
<path fill-rule="evenodd" clip-rule="evenodd" d="M704.028 478.715H691V429.715H704.028C708.982 429.715 713 433.717 713 438.656V469.776C713 474.713 708.982 478.715 704.028 478.715" fill="#297A00"/>
<path fill-rule="evenodd" clip-rule="evenodd" d="M640.092 491.715H687V400.715H640.092C633.965 400.715 629 405.638 629 411.71V480.718C629 486.794 633.965 491.715 640.092 491.715" fill="#297A00"/>
<path fill-rule="evenodd" clip-rule="evenodd" d="M690.454 491.715H684.785C681.591 491.715 679 489.248 679 486.206V406.224C679 403.182 681.591 400.715 684.785 400.715H690.454C696.832 400.715 702 405.638 702 411.71V480.718C702 486.794 696.832 491.715 690.454 491.715" fill="#38A700"/>
<path fill-rule="evenodd" clip-rule="evenodd" d="M694.082 473.715H685.918C683.755 473.715 682 472.059 682 470.013V451.715H698V470.013C698 472.059 696.245 473.715 694.082 473.715" fill="#297A00"/>
<path fill-rule="evenodd" clip-rule="evenodd" d="M697.349 456.715H682.651C681.74 456.715 681 456.026 681 455.174V451.254C681 450.404 681.74 449.715 682.651 449.715H697.349C698.26 449.715 699 450.404 699 451.254V455.174C699 456.026 698.26 456.715 697.349 456.715" fill="#308F00"/>
<path fill-rule="evenodd" clip-rule="evenodd" d="M616.022 563.715C616.022 563.715 615.445 566.528 620.158 575.905C624.87 585.278 620.409 635.192 621.003 652.532L634.023 657.715C634.023 657.715 635.423 640.143 639.399 629.593C643.375 619.043 647.914 595.403 644.683 588.733C641.451 582.066 648 564.438 648 564.438L616.022 563.715Z" fill="#DD8F54"/>
<path fill-rule="evenodd" clip-rule="evenodd" d="M667 495.715C667 495.715 665.128 527.594 656.718 546.473C648.309 565.354 649.273 572.715 649.273 572.715L614 564.272C614 564.272 627.118 518.99 626.287 505.383L667 495.715Z" fill="#61717A"/>
<path fill-rule="evenodd" clip-rule="evenodd" d="M648.284 578.669L611.873 571.265C610.615 571.01 609.795 569.755 610.045 568.466L610.983 563.631C611.232 562.343 612.455 561.504 613.716 561.761L650.127 569.163C651.387 569.419 652.205 570.671 651.955 571.964L651.017 576.797C650.768 578.087 649.543 578.925 648.284 578.669" fill="#6D808C"/>
<path fill-rule="evenodd" clip-rule="evenodd" d="M648.054 564.715C648.054 564.715 645.924 573.795 647.72 580.034C649.517 586.273 682.376 649.715 682.376 649.715L695 644.366C695 644.366 688.304 631.124 687.982 625.882C687.66 620.644 680.789 591.116 674.058 584.947C666.856 578.349 672.541 564.715 672.541 564.715H648.054Z" fill="#F5BA87"/>
<path fill-rule="evenodd" clip-rule="evenodd" d="M635 505.715L639.795 572.715L677.626 569.85C677.626 569.85 673.71 549.7 675.672 541.405C677.636 533.108 682.165 516.489 681.995 508.052L635 505.715Z" fill="#6D808C"/>
<path fill-rule="evenodd" clip-rule="evenodd" d="M624 442.796C624 442.796 612.866 446.769 606.161 445.444C599.456 444.121 593.564 399.328 597.021 385.319C597.021 385.319 597.387 381.382 600.662 381.738C603.937 382.091 606.46 381.238 606.46 384.077C606.46 386.916 604.476 421.097 608.385 428.473C612.295 435.847 620.219 425.959 620.219 425.959L624 442.796Z" fill="#DD8F54"/>
<path fill-rule="evenodd" clip-rule="evenodd" d="M632.574 408.416C623.61 411.346 621.124 411.887 618.59 418.493C612.505 434.358 625.85 448.698 625.85 448.698L620.449 510.715L682.999 509.03L675.98 442.858C675.98 442.858 694.475 422.175 671.425 408.416C664.361 404.2 641.541 405.486 632.574 408.416Z" fill="#F1C335"/>
<path fill-rule="evenodd" clip-rule="evenodd" d="M653.963 436.553L663 426.715C663 426.715 642.919 443.385 628 442.703L643.637 448.715L656.115 442.188L653.963 436.553Z" fill="#C50D07"/>
<path fill-rule="evenodd" clip-rule="evenodd" d="M638 398.784C638 398.784 641.571 407.143 640.784 415.46C640.784 415.46 651.386 420.802 660 409.445C660 409.445 657.964 399.055 658.227 390.217C658.488 381.381 638 398.784 638 398.784" fill="#DD8F54"/>
<path fill-rule="evenodd" clip-rule="evenodd" d="M680 481.715L675.883 443.018C675.883 443.018 678.066 440.583 680 436.832V432.715L667 445.695L680 481.715Z" fill="#C50D07"/>
<path fill-rule="evenodd" clip-rule="evenodd" d="M657.086 438.655C657.086 438.655 645.356 450.948 631.028 445.163C629.981 444.739 628.977 444.049 628.016 443.157L628.96 433.298L627.741 436.02C626.845 438.015 624.05 438.132 623.013 436.206C621.081 432.612 619.452 428.479 618.176 424.715C616.543 438.455 626.813 449.775 626.813 449.775L626.663 458.463C648.86 466.973 670 448.619 670 448.619L657.086 438.655Z" fill="#C50D07"/>
<path fill-rule="evenodd" clip-rule="evenodd" d="M679.008 574.312L642.333 579.691C641.062 579.876 639.888 578.975 639.705 577.676L639.024 572.807C638.841 571.508 639.724 570.303 640.992 570.118L677.669 564.739C678.938 564.552 680.115 565.456 680.295 566.754L680.976 571.621C681.159 572.922 680.276 574.125 679.008 574.312" fill="#8696A2"/>
<path fill-rule="evenodd" clip-rule="evenodd" d="M668.023 407.173C668.023 407.173 664.672 401.536 659.574 404.656C648.823 411.243 638.762 452.904 679 464.715V453.744C679 453.744 658.176 444.994 657.428 434.216C656.297 417.887 660.757 406.994 668.023 407.173" fill="#297A00"/>
<path fill-rule="evenodd" clip-rule="evenodd" d="M655 436.972L663 442.715V434.068V429.715L660.602 430.989L655 436.972Z" fill="#F72C25"/>
<path fill-rule="evenodd" clip-rule="evenodd" d="M628.869 427.99C628.924 426.699 629.025 425.459 629.172 424.277V424.267V424.267C630.344 414.745 634.358 408.912 640 409.043C640 409.043 636.52 403.617 631.227 406.621C623.148 411.207 615.1 433.46 627.103 449.715L628.869 427.99Z" fill="#297A00"/>
<path fill-rule="evenodd" clip-rule="evenodd" d="M668 446.712L655.052 436.839C655.052 436.839 643.296 449.02 628.931 443.289C618.987 439.319 612.772 411.715 612.772 411.715L603 414.693C603 414.693 607.076 446.874 619.228 453.94C643.296 467.935 668 446.712 668 446.712" fill="#F5BA87"/>
<path fill-rule="evenodd" clip-rule="evenodd" d="M622.599 367.496C622.599 367.496 620.355 375.12 621.988 380.136C623.619 385.149 618.569 387.135 619.03 389.667C619.539 392.475 623.824 392.775 623.824 392.775C623.824 392.775 625.251 402.606 630.147 405.014C635.947 407.866 645.449 407.219 651.161 402.407C656.875 397.59 663.812 391.772 661.567 376.324C659.322 360.874 637.288 350.442 622.599 367.496" fill="#F5BA87"/>
<mask id="mask3" mask-type="alpha" maskUnits="userSpaceOnUse" x="617" y="351" width="53" height="48">
<path fill-rule="evenodd" clip-rule="evenodd" d="M617.157 351H669.853V398.482H617.157V351Z" fill="white"/>
</mask>
<g mask="url(#mask3)">
<path fill-rule="evenodd" clip-rule="evenodd" d="M669.853 369.805C669.834 365.902 668.562 361.851 665.681 359.23C662.803 356.611 658.156 355.822 654.951 358.023C651.806 352.423 644.463 350.979 638.067 351C633.825 351.014 629.49 351.434 625.626 353.197C621.762 354.957 618.407 358.245 617.417 362.396C616.427 366.546 618.316 371.451 622.211 373.145C623.628 373.763 625.19 373.937 626.726 374.108C631.001 374.58 634.908 372.092 639.13 371.977C646.674 371.772 648.054 379.628 649.992 385.302C652.172 383.342 650.502 379.123 652.662 377.138C654.579 375.38 657.941 377.211 658.619 379.73C659.298 382.251 658.238 384.876 657.247 387.289C656.255 389.702 655.302 392.402 656.172 394.863C657.092 397.461 660.181 399.053 662.813 398.29C663.846 397.991 664.826 397.328 665.253 396.339C665.733 395.225 665.444 393.953 665.318 392.747C664.906 388.825 666.307 384.972 667.545 381.231C668.772 377.527 669.872 373.711 669.853 369.805" fill="#56241D"/>
</g>
<path fill-rule="evenodd" clip-rule="evenodd" d="M628.438 400.722C628.438 400.722 626.755 400.209 626.55 395.25C626.529 394.739 627.035 394.499 627.525 394.372C628.288 394.174 629.062 393.975 629.849 393.986C631.525 394.004 635.422 394.437 635.3 397.094C635.227 398.665 631.846 401.504 628.438 400.722M650.477 395.277C649.756 390.269 649.798 385.151 650.604 380.155C650.835 378.716 651.026 376.975 649.906 376.053C649.481 375.706 648.816 375.566 648.4 375.924C648.123 376.162 648.028 376.546 647.962 376.905C647.466 379.617 647.792 382.41 647.521 385.153C647.251 387.896 646.188 390.815 643.805 392.156C641.957 393.197 639.682 393.08 637.618 392.618C635.552 392.152 633.55 391.372 631.445 391.164C629.996 391.019 628.528 391.152 627.096 391.421C625.59 391.704 624.008 392.559 624 392.563C624.161 395.587 624.179 400.266 625.836 402.792C627.643 405.551 630.634 407.389 633.812 408.188C636.99 408.984 640.346 408.808 643.553 408.128C645.927 407.625 648.416 406.732 649.802 404.72C651.634 402.061 650.939 398.482 650.477 395.277" fill="#56241D"/>
<path fill-rule="evenodd" clip-rule="evenodd" d="M604 385.715H598V383.524C598 383.075 598.402 382.715 598.901 382.715H603.097C603.595 382.715 604 383.075 604 383.524V385.715Z" fill="#50555B"/>
<path fill-rule="evenodd" clip-rule="evenodd" d="M617.286 405.715H596.716C594.664 405.715 593 404.048 593 401.991V387.439C593 385.382 594.664 383.715 596.716 383.715H617.286C619.336 383.715 621 385.382 621 387.439V401.991C621 404.048 619.336 405.715 617.286 405.715" fill="#5D6169"/>
<path fill-rule="evenodd" clip-rule="evenodd" d="M620.43 405.715H619.57C617.599 405.715 616 404.048 616 401.991V387.439C616 385.382 617.599 383.715 619.57 383.715H620.43C622.401 383.715 624 385.382 624 387.439V401.991C624 404.048 622.401 405.715 620.43 405.715" fill="#50555B"/>
<path fill-rule="evenodd" clip-rule="evenodd" d="M606.5 387.715H604.264L601.808 389.368C600.098 390.745 599 392.85 599 395.215C599 397.58 600.098 399.687 601.808 401.061L604.264 402.715H606.5C610.644 402.715 614 399.357 614 395.215C614 391.073 610.644 387.715 606.5 387.715" fill="#50555B"/>
<path fill-rule="evenodd" clip-rule="evenodd" d="M611 395.216C611 399.358 607.642 402.715 603.5 402.715C599.358 402.715 596 399.358 596 395.216C596 391.071 599.358 387.715 603.5 387.715C607.642 387.715 611 391.071 611 395.216" fill="#8696A2"/>
<path fill-rule="evenodd" clip-rule="evenodd" d="M602.999 398.715C600.794 398.715 599 397.145 599 395.217C599 393.286 600.794 391.715 602.999 391.715C605.204 391.715 607 393.286 607 395.217C607 397.145 605.204 398.715 602.999 398.715" fill="#5D6169"/>
<path fill-rule="evenodd" clip-rule="evenodd" d="M612.049 388.715H608.951C608.427 388.715 608 388.215 608 387.601V386.832C608 386.215 608.427 385.715 608.951 385.715H612.049C612.576 385.715 613 386.215 613 386.832V387.601C613 388.215 612.576 388.715 612.049 388.715" fill="#8696A2"/>
<path fill-rule="evenodd" clip-rule="evenodd" d="M612.582 411.403C612.582 411.403 613.523 406.432 612.582 405.379C611.64 404.329 607.441 404.674 604.894 405.379C602.347 406.087 596.051 403.491 595.068 405.679C594.086 407.865 603.993 414.377 604.506 419.526C605.017 424.68 612.582 411.403 612.582 411.403" fill="#F5BA87"/>
<path fill-rule="evenodd" clip-rule="evenodd" d="M620 651.715H636V641.715H620V651.715Z" fill="#E8D9BA"/>
<path fill-rule="evenodd" clip-rule="evenodd" d="M637.025 642.715H619.973C619.436 642.715 619 642.279 619 641.74V639.688C619 639.151 619.436 638.715 619.973 638.715H637.025C637.564 638.715 638 639.151 638 639.688V641.74C638 642.279 637.564 642.715 637.025 642.715" fill="#FAEDCE"/>
<path fill-rule="evenodd" clip-rule="evenodd" d="M694 641.495L679.599 648.715L675 639.935L689.399 632.715L694 641.495Z" fill="#E8D9BA"/>
<path fill-rule="evenodd" clip-rule="evenodd" d="M691.47 635.207L676.349 642.613C675.871 642.846 675.285 642.666 675.042 642.21L674.108 640.471C673.861 640.015 674.051 639.457 674.529 639.223L689.65 631.817C690.128 631.584 690.714 631.762 690.96 632.221L691.893 633.959C692.138 634.415 691.948 634.975 691.47 635.207" fill="#FAEDCE"/>
<path fill-rule="evenodd" clip-rule="evenodd" d="M679.347 650.715L696 642.838L694.741 640.223C694.527 639.778 693.991 639.589 693.545 639.803L678.513 646.914C678.065 647.124 677.874 647.655 678.088 648.099L679.347 650.715Z" fill="#FAEDCE"/>
<path fill-rule="evenodd" clip-rule="evenodd" d="M702.997 654.517C702.883 652.922 702.359 649.539 699.994 649.028C696.883 648.357 695.49 642.715 695.49 642.715L679.029 650.514L674.065 658.044C672.714 658.564 670.765 657.78 669.612 658.125C666.537 659.042 666.123 662.343 665 663.988L676.92 667.715L702.302 655.691C702.755 655.477 703.033 655.011 702.997 654.517" fill="#706360"/>
<path fill-rule="evenodd" clip-rule="evenodd" d="M677.091 652.134C677.287 651.742 677.731 651.6 678.086 651.816L683.622 655.196C683.976 655.414 684.105 655.906 683.907 656.297C683.714 656.686 683.267 656.831 682.913 656.613L677.379 653.233C677.025 653.017 676.896 652.523 677.091 652.134" fill="#FAEDCE"/>
<path fill-rule="evenodd" clip-rule="evenodd" d="M676.091 653.134C676.287 652.742 676.731 652.6 677.086 652.816L682.622 656.197C682.976 656.413 683.105 656.904 682.907 657.296C682.714 657.688 682.267 657.83 681.913 657.614L676.377 654.232C676.025 654.016 675.896 653.525 676.091 653.134" fill="#FAEDCE"/>
<path fill-rule="evenodd" clip-rule="evenodd" d="M674.092 656.133C674.287 655.741 674.732 655.599 675.086 655.817L680.623 659.197C680.977 659.413 681.104 659.907 680.908 660.296C680.715 660.688 680.268 660.83 679.914 660.614L674.377 657.234C674.023 657.018 673.896 656.525 674.092 656.133" fill="#FAEDCE"/>
<path fill-rule="evenodd" clip-rule="evenodd" d="M703.997 655.393C703.964 654.941 703.895 654.344 703.761 653.715L674 667.694L677.51 668.715L703.29 656.566C703.751 656.353 704.034 655.887 703.997 655.393" fill="#FAEDCE"/>
<path fill-rule="evenodd" clip-rule="evenodd" d="M675.082 667.715L704 654.472C703.965 654.231 703.923 653.976 703.865 653.715L674 667.388L675.082 667.715Z" fill="#56241D"/>
<path fill-rule="evenodd" clip-rule="evenodd" d="M672.182 657.957C672.243 657.967 672.307 657.967 672.368 657.975C675.231 659.929 677.081 663.237 676.997 666.954C676.991 667.212 676.964 667.461 676.94 667.715L661.209 667.361C660.429 667.343 659.853 666.614 660.033 665.855C660.748 662.846 663.328 656.388 672.182 657.957" fill="#FAEDCE"/>
<path fill-rule="evenodd" clip-rule="evenodd" d="M677 666.107C676.986 665.857 676.93 665.577 676.895 665.331L660.215 665.323C660.202 665.365 660.188 665.405 660.178 665.445C660.116 665.641 660.062 665.825 660.017 666.001C660.012 666.023 660.006 666.045 660 666.065L677 666.107Z" fill="#56241D"/>
<path fill-rule="evenodd" clip-rule="evenodd" d="M619 652.715L638 652.708L637.998 649.651C637.998 649.134 637.585 648.715 637.073 648.715L619.925 648.719C619.413 648.719 619 649.14 619 649.658V652.715Z" fill="#FAEDCE"/>
<path fill-rule="evenodd" clip-rule="evenodd" d="M596.027 666.223C596.684 663.166 599.156 656.584 608.197 657.964C609.419 658.15 610.672 657.975 611.816 657.512L619.767 652.721L638.486 652.715C638.486 652.715 637.267 658.543 639.849 660.529C641.815 662.038 640.796 665.396 640.191 666.921C640.004 667.395 639.541 667.702 639.026 667.702L597.257 667.715C596.463 667.715 595.863 666.994 596.027 666.223" fill="#706360"/>
<path fill-rule="evenodd" clip-rule="evenodd" d="M607.983 657.904C608.047 657.912 608.108 657.91 608.172 657.918C611.075 659.838 612.998 663.155 613 666.937C613 667.197 612.98 667.453 612.961 667.711L597.235 667.715C596.455 667.715 595.865 666.989 596.027 666.213C596.674 663.138 599.102 656.515 607.983 657.904" fill="#FAEDCE"/>
<path fill-rule="evenodd" clip-rule="evenodd" d="M639.475 666.742C639.291 667.322 638.835 667.7 638.329 667.7L597.237 667.715C596.455 667.715 595.865 666.831 596.027 665.885C596.086 665.533 596.164 665.146 596.261 664.73L640 664.715C639.842 665.503 639.643 666.212 639.475 666.742" fill="#FAEDCE"/>
<path fill-rule="evenodd" clip-rule="evenodd" d="M596.195 665.349L640 665.337C639.934 665.599 639.858 665.847 639.782 666.081L596 666.093C596.055 665.861 596.117 665.615 596.195 665.349" fill="#56241D"/>
<path fill-rule="evenodd" clip-rule="evenodd" d="M617.297 651.86C617.617 651.61 618.061 651.692 618.291 652.038L621.868 657.488C622.095 657.836 622.022 658.32 621.703 658.569C621.383 658.821 620.939 658.737 620.711 658.391L617.132 652.943C616.905 652.593 616.978 652.108 617.297 651.86" fill="#FAEDCE"/>
<path fill-rule="evenodd" clip-rule="evenodd" d="M614.297 653.86C614.617 653.61 615.062 653.692 615.289 654.038L618.866 659.488C619.096 659.836 619.023 660.32 618.701 660.569C618.384 660.821 617.939 660.737 617.709 660.391L614.132 654.943C613.905 654.593 613.978 654.108 614.297 653.86" fill="#FAEDCE"/>
<path fill-rule="evenodd" clip-rule="evenodd" d="M612.298 654.86C612.618 654.61 613.062 654.692 613.29 655.038L616.866 660.488C617.096 660.836 617.023 661.32 616.701 661.569C616.384 661.821 615.939 661.737 615.71 661.391L612.133 655.943C611.904 655.593 611.979 655.108 612.298 654.86" fill="#FAEDCE"/>
<path fill-rule="evenodd" clip-rule="evenodd" d="M552.831 664.776C552.28 662.433 550.343 660.647 548.411 659.119C546.259 657.417 543.996 655.848 541.636 654.423C536.619 651.39 529.938 649.065 525.005 652.22C523.54 653.157 522.408 654.487 521.14 655.657C518.022 658.53 514.017 660.444 509.822 661.45C507.435 662.021 504.909 662.337 502.833 663.601C500.756 664.867 499.291 667.487 500.358 669.612C501.508 671.909 504.689 672.294 507.345 672.375C513.856 672.568 555.993 678.215 552.831 664.776" fill="#90ACC1"/>
<path fill-rule="evenodd" clip-rule="evenodd" d="M574.136 665.249C573.179 663.886 571.694 662.973 570.253 662.098C567.196 660.246 563.809 658.317 560.236 658.786C558.52 659.01 556.94 659.778 555.395 660.534C554.133 661.153 552.872 661.768 551.61 662.387C550.119 663.116 548.595 663.87 547.461 665.062C545.883 666.723 545.076 669.93 547.715 671.071C548.609 671.458 549.616 671.496 550.595 671.526C556.925 671.73 563.112 671.815 569.421 671.543C571.222 671.466 573.266 671.27 574.354 669.877C575.379 668.563 575.092 666.614 574.136 665.249" fill="#E5E9EC"/>
<defs>
<clipPath id="clip0">
<rect width="798" height="798" fill="white" transform="translate(-12 -7)"/>
</clipPath>
<clipPath id="clip1">
<rect width="78" height="83" fill="white" transform="translate(65.9238 506.858) rotate(14.6014)"/>
</clipPath>
</defs>
</svg>
