<svg width="22" height="15" viewBox="0 0 22 15" fill="none" xmlns="http://www.w3.org/2000/svg">
<path d="M4.88889 3.9375H17.1111V11.0625H4.88889V3.9375ZM20.1667 7.5C20.1667 8.48377 20.9875 9.28125 22 9.28125V12.8438C22 13.8275 21.1792 14.625 20.1667 14.625H1.83333C0.820799 14.625 0 13.8275 0 12.8438V9.28125C1.01253 9.28125 1.83333 8.48377 1.83333 7.5C1.83333 6.51623 1.01253 5.71875 0 5.71875V2.15625C0 1.17248 0.820799 0.375 1.83333 0.375H20.1667C21.1792 0.375 22 1.17248 22 2.15625V5.71875C20.9875 5.71875 20.1667 6.51623 20.1667 7.5ZM18.3333 3.64062C18.3333 3.14874 17.9229 2.75 17.4167 2.75H4.58333C4.07707 2.75 3.66667 3.14874 3.66667 3.64062V11.3594C3.66667 11.8513 4.07707 12.25 4.58333 12.25H17.4167C17.9229 12.25 18.3333 11.8513 18.3333 11.3594V3.64062Z"/>
</svg>
