<svg width="24" height="24" viewBox="0 0 24 24" fill="none" xmlns="http://www.w3.org/2000/svg">
<path d="M7.3125 12C7.3125 12.5178 7.73222 12.9375 8.25 12.9375H11.0625V15.75C11.0625 16.2678 11.4822 16.6875 12 16.6875C12.5178 16.6875 12.9375 16.2678 12.9375 15.75V12.9375H15.75C16.2678 12.9375 16.6875 12.5178 16.6875 12C16.6875 11.4822 16.2678 11.0625 15.75 11.0625H12.9375V8.25C12.9375 7.73222 12.5178 7.3125 12 7.3125C11.4822 7.3125 11.0625 7.73222 11.0625 8.25V11.0625H8.25C7.73222 11.0625 7.3125 11.4822 7.3125 12Z" fill="#02D0AA"/>
<path d="M7.51898 2.89687L8.73159 2.39456C9.2099 2.19637 9.4371 1.64798 9.23892 1.16962C9.04073 0.691262 8.49239 0.463965 8.01398 0.662293L6.80137 1.16461C6.32306 1.36279 6.09585 1.91118 6.29404 2.38954C6.49157 2.86631 7.03907 3.09553 7.51898 2.89687Z" fill="#02D0AA"/>
<path d="M12 0C11.4822 0 11.0625 0.419719 11.0625 0.9375C11.0625 1.45528 11.4822 1.875 12 1.875C17.5958 1.875 22.125 6.4035 22.125 12C22.125 17.5958 17.5965 22.125 12 22.125C6.40416 22.125 1.875 17.5965 1.875 12C1.875 11.4822 1.45528 11.0625 0.9375 11.0625C0.419719 11.0625 0 11.4822 0 12C0 18.632 5.36705 24 12 24C18.632 24 24 18.633 24 12C24 5.36798 18.633 0 12 0Z" fill="#02D0AA"/>
<path d="M4.37653 5.3046L5.3046 4.37652C5.67075 4.01038 5.67075 3.41676 5.3046 3.05066C4.93846 2.68457 4.34484 2.68452 3.97875 3.05066L3.05067 3.97874C2.68453 4.34488 2.68453 4.93851 3.05067 5.3046C3.41671 5.67065 4.01039 5.67074 4.37653 5.3046Z" fill="#02D0AA"/>
<path d="M1.16959 9.23903C1.64898 9.43759 2.19681 9.20893 2.39453 8.7317L2.89684 7.51904C3.09503 7.04068 2.86783 6.49229 2.38952 6.2941C1.91106 6.09596 1.36277 6.32311 1.16458 6.80143L0.662266 8.01404C0.464078 8.49245 0.691282 9.04084 1.16959 9.23903Z" fill="#02D0AA"/>
</svg>
