<svg width="28" height="28" viewBox="0 0 28 28" fill="none" xmlns="http://www.w3.org/2000/svg">
<path fill-rule="evenodd" clip-rule="evenodd" d="M18.1667 8.16667C18.1667 10.4679 16.3012 12.3333 14 12.3333C11.6988 12.3333 9.83333 10.4679 9.83333 8.16667C9.83333 5.86548 11.6988 4 14 4C16.3012 4 18.1667 5.86548 18.1667 8.16667ZM5.25 21.9167C5.25 17.5417 9.16667 14 14 14C18.8333 14 22.75 17.5417 22.75 21.9167C22.75 23.0673 21.8173 24 20.6667 24H7.33333C6.7808 24 6.2509 23.7805 5.86019 23.3898C5.46949 22.9991 5.25 22.4692 5.25 21.9167Z" fill="#6E3CF4"/>
</svg>
