<svg width="16" height="12" viewBox="0 0 16 12" fill="none" xmlns="http://www.w3.org/2000/svg">
<path d="M14.6639 0H1.33611C0.597222 0 0 0.575893 0 1.28571V10.7143C0 11.4241 0.597222 12 1.33611 12H14.6639C15.4028 12 16 11.4241 16 10.7143V1.28571C16 0.575893 15.4028 0 14.6639 0ZM1.50278 1.28571H14.4972C14.5889 1.28571 14.6639 1.35804 14.6639 1.44643V2.57143H1.33611V1.44643C1.33611 1.35804 1.41111 1.28571 1.50278 1.28571ZM14.4972 10.7143H1.50278C1.41111 10.7143 1.33611 10.642 1.33611 10.5536V6H14.6639V10.5536C14.6639 10.642 14.5889 10.7143 14.4972 10.7143ZM5.33333 8.03571V9.10714C5.33333 9.28393 5.18333 9.42857 5 9.42857H3C2.81667 9.42857 2.66667 9.28393 2.66667 9.10714V8.03571C2.66667 7.85893 2.81667 7.71429 3 7.71429H5C5.18333 7.71429 5.33333 7.85893 5.33333 8.03571ZM10.6667 8.03571V9.10714C10.6667 9.28393 10.5167 9.42857 10.3333 9.42857H6.55556C6.37222 9.42857 6.22222 9.28393 6.22222 9.10714V8.03571C6.22222 7.85893 6.37222 7.71429 6.55556 7.71429H10.3333C10.5167 7.71429 10.6667 7.85893 10.6667 8.03571Z" fill="#102542"/>
</svg>
