<svg width="28" height="28" viewBox="0 0 28 28" fill="none" xmlns="http://www.w3.org/2000/svg">
<path fill-rule="evenodd" clip-rule="evenodd" d="M20.4863 16.702L21.5965 18.4449C21.8367 18.8224 21.8517 19.301 21.6358 19.6929C21.4198 20.0849 21.0073 20.3278 20.5598 20.3265H7.06182C6.61506 20.3263 6.20387 20.0828 5.98892 19.6911C5.77398 19.2995 5.7894 18.8218 6.02916 18.4449L7.12712 16.7142C7.23689 16.5411 7.30145 16.3433 7.31488 16.1387L7.72304 10.1224C7.94172 6.76798 10.8241 4.21724 14.1802 4.40812C17.2958 4.64403 19.7514 7.15728 19.9149 10.2775L20.2986 16.1265C20.312 16.331 20.3765 16.5289 20.4863 16.702ZM15.9253 21.963C15.7817 21.711 15.5151 21.5542 15.2251 21.551H12.4006C12.1106 21.5542 11.844 21.711 11.7004 21.963C11.5567 22.215 11.5576 22.5243 11.7026 22.7755C12.1428 23.5229 12.9455 23.9817 13.8128 23.9817C14.6802 23.9817 15.4829 23.5229 15.923 22.7755C16.0681 22.5243 16.069 22.215 15.9253 21.963Z" fill="#6E3CF4"/>
</svg>
