<svg width="21" height="22" viewBox="0 0 21 22" fill="none" xmlns="http://www.w3.org/2000/svg">
<path d="M7.26394 12.375H5.45389C5.15523 12.375 4.91088 12.143 4.91088 11.8594V10.1406C4.91088 9.85703 5.15523 9.625 5.45389 9.625H7.26394C7.56259 9.625 7.80695 9.85703 7.80695 10.1406V11.8594C7.80695 12.143 7.56259 12.375 7.26394 12.375ZM12.1511 11.8594V10.1406C12.1511 9.85703 11.9067 9.625 11.608 9.625H9.798C9.49934 9.625 9.25498 9.85703 9.25498 10.1406V11.8594C9.25498 12.143 9.49934 12.375 9.798 12.375H11.608C11.9067 12.375 12.1511 12.143 12.1511 11.8594ZM16.4952 11.8594V10.1406C16.4952 9.85703 16.2508 9.625 15.9521 9.625H14.1421C13.8434 9.625 13.5991 9.85703 13.5991 10.1406V11.8594C13.5991 12.143 13.8434 12.375 14.1421 12.375H15.9521C16.2508 12.375 16.4952 12.143 16.4952 11.8594ZM12.1511 15.9844V14.2656C12.1511 13.982 11.9067 13.75 11.608 13.75H9.798C9.49934 13.75 9.25498 13.982 9.25498 14.2656V15.9844C9.25498 16.268 9.49934 16.5 9.798 16.5H11.608C11.9067 16.5 12.1511 16.268 12.1511 15.9844ZM7.80695 15.9844V14.2656C7.80695 13.982 7.56259 13.75 7.26394 13.75H5.45389C5.15523 13.75 4.91088 13.982 4.91088 14.2656V15.9844C4.91088 16.268 5.15523 16.5 5.45389 16.5H7.26394C7.56259 16.5 7.80695 16.268 7.80695 15.9844ZM16.4952 15.9844V14.2656C16.4952 13.982 16.2508 13.75 15.9521 13.75H14.1421C13.8434 13.75 13.5991 13.982 13.5991 14.2656V15.9844C13.5991 16.268 13.8434 16.5 14.1421 16.5H15.9521C16.2508 16.5 16.4952 16.268 16.4952 15.9844ZM20.8393 4.8125V19.9375C20.8393 21.0762 19.8664 22 18.6672 22H2.73883C1.53967 22 0.566772 21.0762 0.566772 19.9375V4.8125C0.566772 3.67383 1.53967 2.75 2.73883 2.75H4.91088V0.515625C4.91088 0.232031 5.15523 0 5.45389 0H7.26394C7.56259 0 7.80695 0.232031 7.80695 0.515625V2.75H13.5991V0.515625C13.5991 0.232031 13.8434 0 14.1421 0H15.9521C16.2508 0 16.4952 0.232031 16.4952 0.515625V2.75H18.6672C19.8664 2.75 20.8393 3.67383 20.8393 4.8125ZM18.6672 19.6797V6.875H2.73883V19.6797C2.73883 19.8215 2.861 19.9375 3.01033 19.9375H18.3957C18.545 19.9375 18.6672 19.8215 18.6672 19.6797Z" fill="#02D0AA"/>
</svg>
