<svg width="24" height="23" viewBox="0 0 24 23" fill="none" xmlns="http://www.w3.org/2000/svg">
<g opacity="0.5">
<path d="M16.6815 3.03133H20.5704C20.8282 3.03133 21.0755 3.1312 21.2578 3.30897C21.4402 3.48674 21.5426 3.72784 21.5426 3.97925V19.1459C21.5426 19.3973 21.4402 19.6384 21.2578 19.8162C21.0755 19.994 20.8282 20.0938 20.5704 20.0938H3.07037C2.81252 20.0938 2.56523 19.994 2.3829 19.8162C2.20057 19.6384 2.09814 19.3973 2.09814 19.1459V3.97925C2.09814 3.72784 2.20057 3.48674 2.3829 3.30897C2.56523 3.1312 2.81252 3.03133 3.07037 3.03133H6.95926V1.1355H8.9037V3.03133H14.737V1.1355H16.6815V3.03133ZM14.737 4.92716H8.9037V6.823H6.95926V4.92716H4.04259V8.71883H19.5981V4.92716H16.6815V6.823H14.737V4.92716ZM19.5981 10.6147H4.04259V18.198H19.5981V10.6147Z" fill="black"/>
</g>
</svg>
