<svg width="24" height="25" viewBox="0 0 24 25" fill="none" xmlns="http://www.w3.org/2000/svg">
<path d="M12 5.03225C9.43548 5.03225 7.35484 7.11289 7.35484 9.67741C7.35484 12.2419 9.43548 14.3226 12 14.3226C14.5645 14.3226 16.6452 12.2419 16.6452 9.67741C16.6452 7.11289 14.5645 5.03225 12 5.03225ZM12 12C10.7177 12 9.67742 10.9597 9.67742 9.67741C9.67742 8.39515 10.7177 7.35483 12 7.35483C13.2823 7.35483 14.3226 8.39515 14.3226 9.67741C14.3226 10.9597 13.2823 12 12 12ZM12 0.387085C5.37097 0.387085 0 5.75805 0 12.3871C0 19.0161 5.37097 24.3871 12 24.3871C18.629 24.3871 24 19.0161 24 12.3871C24 5.75805 18.629 0.387085 12 0.387085ZM12 22.0645C9.59516 22.0645 7.39839 21.179 5.70484 19.7226C6.42581 18.6097 7.65968 17.8548 9.07258 17.8113C10.079 18.121 11.0371 18.2758 12 18.2758C12.9629 18.2758 13.921 18.1258 14.9274 17.8113C16.3403 17.8597 17.5742 18.6097 18.2952 19.7226C16.6016 21.179 14.4048 22.0645 12 22.0645ZM19.8726 17.9951C18.6919 16.4758 16.8677 15.4839 14.7871 15.4839C14.2935 15.4839 13.529 15.9484 12 15.9484C10.4758 15.9484 9.70645 15.4839 9.2129 15.4839C7.1371 15.4839 5.3129 16.4758 4.12742 17.9951C2.99516 16.4129 2.32258 14.4774 2.32258 12.3871C2.32258 7.04999 6.6629 2.70967 12 2.70967C17.3371 2.70967 21.6774 7.04999 21.6774 12.3871C21.6774 14.4774 21.0048 16.4129 19.8726 17.9951Z" fill="#102542"/>
</svg>
