<svg width="24" height="24" viewBox="0 0 24 24" fill="none" xmlns="http://www.w3.org/2000/svg">
<path d="M12 23C18.0751 23 23 18.0751 23 12C23 5.92487 18.0751 1 12 1C5.92487 1 1 5.92487 1 12C1 18.0751 5.92487 23 12 23ZM23.5 12C23.5 18.3513 18.3513 23.5 12 23.5C5.64873 23.5 0.5 18.3513 0.5 12C0.5 5.64873 5.64873 0.5 12 0.5C18.3513 0.5 23.5 5.64873 23.5 12Z" fill="black" stroke="#02D0AA"/>
<path d="M7.5 12H16.5" stroke="#02D0AA" stroke-width="1.4" stroke-linecap="round" stroke-linejoin="round"/>
<path d="M12 16.5L12 7.5" stroke="#02D0AA" stroke-width="1.4" stroke-linecap="round" stroke-linejoin="round"/>
</svg>
