<svg width="40" height="40" viewBox="0 0 54 54" fill="none" xmlns="http://www.w3.org/2000/svg">
<ellipse opacity="0.7" cx="27.0786" cy="26.6581" rx="26.5167" ry="26.5379" transform="rotate(-180 27.0786 26.6581)" fill="black"/>
<g clip-path="url(#clip0)">
<path d="M19.7066 26.6581C19.7066 26.2776 19.8518 25.8972 20.1415 25.6071L29.2629 16.4786C29.8431 15.8979 30.7838 15.8979 31.3638 16.4786C31.9438 17.059 31.9438 18.0003 31.3638 18.5811L23.2927 26.6581L31.3635 34.7352C31.9435 35.3159 31.9435 36.2572 31.3635 36.8376C30.7835 37.4185 29.8428 37.4185 29.2626 36.8376L20.1412 27.7092C19.8514 27.4189 19.7066 27.0385 19.7066 26.6581Z" fill="white"/>
</g>
<defs>
<clipPath id="clip0">
<rect width="21.2303" height="21.2134" fill="white" transform="translate(36.3593 16.043) rotate(90)"/>
</clipPath>
</defs>
</svg>
