<svg width="24" height="23" viewBox="0 0 24 23" fill="none" xmlns="http://www.w3.org/2000/svg">
<g opacity="0.44">
<path fill-rule="evenodd" clip-rule="evenodd" d="M11.9512 2.46436C6.86904 2.46436 2.74854 6.5101 2.74854 11.5001C2.74854 16.49 6.86904 20.5358 11.9512 20.5358C17.0334 20.5358 21.1539 16.49 21.1539 11.5001C21.1539 6.5101 17.0334 2.46436 11.9512 2.46436ZM11.9512 18.9751C7.75313 18.9751 4.33809 15.622 4.33809 11.5001C4.33809 7.37814 7.75313 4.02507 11.9512 4.02507C16.1493 4.02507 19.5644 7.37814 19.5644 11.5001C19.5644 15.622 16.1493 18.9751 11.9512 18.9751ZM15.6726 7.06806L13.5318 8.3805L12.1019 9.25583C13.25 9.33038 14.161 10.2238 14.2369 11.3521L15.1285 9.94933L16.4651 7.84626C16.6078 7.62376 16.5744 7.33349 16.3846 7.14825C16.1937 6.96076 15.8969 6.92914 15.6726 7.06806ZM9.6655 11.648L8.77399 13.0519L7.4373 15.155C7.29466 15.3775 7.32802 15.6678 7.51783 15.853C7.62941 15.9614 7.77665 16.0179 7.92504 16.0179C8.03088 16.0179 8.13671 15.9897 8.22988 15.9321L10.3707 14.6196L11.8005 13.7443C10.6525 13.6698 9.74142 12.7752 9.6655 11.648ZM12.1019 9.25582C12.0513 9.25244 12.003 9.24114 11.9512 9.24114C10.6801 9.24114 9.65055 10.252 9.65055 11.5001C9.65055 11.5509 9.66205 11.5983 9.6655 11.648C9.74143 12.7752 10.6525 13.6698 11.8005 13.7443C11.8511 13.7477 11.8995 13.759 11.9512 13.759C13.2223 13.759 14.2519 12.7481 14.2519 11.5001C14.2519 11.4492 14.2404 11.4018 14.2369 11.3521C14.161 10.2249 13.25 9.33037 12.1019 9.25582ZM10.8009 11.5001C10.8009 10.8777 11.3174 10.3706 11.9512 10.3706C12.5851 10.3706 13.1016 10.8777 13.1016 11.5001C13.1016 12.1224 12.5851 12.6295 11.9512 12.6295C11.3174 12.6295 10.8009 12.1224 10.8009 11.5001Z" fill="black"/>
</g>
</svg>
