<svg width="24" height="24" viewBox="0 0 24 24" fill="none" xmlns="http://www.w3.org/2000/svg">
<path fill-rule="evenodd" clip-rule="evenodd" d="M18.7849 5.57144H5.21345C4.22723 5.57144 3.42773 6.37093 3.42773 7.35716V16.6429C3.42773 17.6291 4.22723 18.4286 5.21345 18.4286H18.7849C19.2585 18.4286 19.7127 18.2404 20.0476 17.9056C20.3825 17.5707 20.5706 17.1165 20.5706 16.6429V7.35716C20.5706 6.88356 20.3825 6.42935 20.0476 6.09447C19.7127 5.75958 19.2585 5.57144 18.7849 5.57144ZM17.3562 15.9286H15.5705C15.176 15.9286 14.8562 15.6088 14.8562 15.2143C14.8562 14.8198 15.176 14.5 15.5705 14.5H17.3562C17.7507 14.5 18.0705 14.8198 18.0705 15.2143C18.0705 15.6088 17.7507 15.9286 17.3562 15.9286ZM17.3564 9.50001H6.64211C6.24762 9.50001 5.92783 9.18022 5.92783 8.78573C5.92783 8.39124 6.24762 8.07144 6.64211 8.07144H17.3564C17.7509 8.07144 18.0707 8.39124 18.0707 8.78573C18.0707 9.18022 17.7509 9.50001 17.3564 9.50001Z" fill="#2196F3"/>
</svg>
