<svg width="24" height="23" viewBox="0 0 24 23" fill="none" xmlns="http://www.w3.org/2000/svg">
<g opacity="0.4">
<path fill-rule="evenodd" clip-rule="evenodd" d="M16.8414 14.019C16.8002 12.43 15.7135 11.0479 14.1504 10.5964L10.6087 9.56042C10.1617 9.4225 9.87292 9.00021 9.9143 8.54479C9.97707 8.03834 10.4154 7.65586 10.9386 7.65104H13.0219C13.5258 7.65098 14.0172 7.8036 14.4282 8.08776C14.8457 8.39573 15.4328 8.35371 15.7997 7.98958L16.2858 7.51562C16.498 7.31054 16.6096 7.02653 16.5923 6.73575C16.575 6.44497 16.4305 6.17542 16.1956 5.99557C15.3819 5.37822 14.3978 5.01162 13.3692 4.94271V4.26562C13.3692 3.70471 12.9028 3.25 12.3275 3.25H11.6331C11.0578 3.25 10.5914 3.70471 10.5914 4.26562V4.96641C8.61369 5.16476 7.1123 6.79257 7.11916 8.73099C7.16038 10.32 8.24704 11.7021 9.81014 12.1536L13.3692 13.1896C13.6435 13.2713 13.8689 13.4636 13.9883 13.7179C14.1078 13.9722 14.1099 14.2641 13.9942 14.5201C13.8166 14.884 13.4351 15.1112 13.0219 15.099H10.9386C10.4407 15.0955 9.95587 14.9431 9.54972 14.6622C9.12905 14.3441 8.53004 14.3865 8.16083 14.7604L7.67472 15.2344C7.463 15.4399 7.352 15.7242 7.36993 16.015C7.38787 16.3058 7.53301 16.5751 7.76847 16.7544C8.58088 17.3717 9.56386 17.7383 10.5914 17.8073V18.4844C10.5914 19.0453 11.0578 19.5 11.6331 19.5H12.3275C12.9028 19.5 13.3692 19.0453 13.3692 18.4844V17.7836C15.3476 17.5867 16.8499 15.958 16.8414 14.019Z" fill="black"/>
</g>
</svg>
