<svg width="24" height="24" viewBox="0 0 24 24" fill="none" xmlns="http://www.w3.org/2000/svg">
<path d="M18.75 17.25C17.772 17.25 16.947 17.8785 16.638 18.75H7.362C7.0515 17.8785 6.228 17.25 5.25 17.25C4.008 17.25 3 18.258 3 19.5C3 20.742 4.008 21.75 5.25 21.75C6.228 21.75 7.053 21.1215 7.362 20.25H16.638C16.9485 21.1215 17.772 21.75 18.75 21.75C19.992 21.75 21 20.742 21 19.5C21 18.258 19.992 17.25 18.75 17.25Z" fill="#102542"/>
<path d="M5.25 2.25C2.355 2.25 0 4.605 0 7.5C0 10.194 4.212 14.9655 4.692 15.501C4.8345 15.6585 5.037 15.75 5.25 15.75C5.463 15.75 5.6655 15.6585 5.808 15.501C6.288 14.9655 10.5 10.194 10.5 7.5C10.5 4.605 8.145 2.25 5.25 2.25ZM5.25 9.75C4.008 9.75 3 8.742 3 7.5C3 6.258 4.008 5.25 5.25 5.25C6.492 5.25 7.5 6.258 7.5 7.5C7.5 8.742 6.492 9.75 5.25 9.75Z" fill="#102542"/>
<path d="M18.75 2.25C15.855 2.25 13.5 4.605 13.5 7.5C13.5 10.194 17.712 14.9655 18.192 15.501C18.3345 15.6585 18.537 15.75 18.75 15.75C18.963 15.75 19.1655 15.6585 19.308 15.501C19.788 14.9655 24 10.194 24 7.5C24 4.605 21.645 2.25 18.75 2.25ZM18.75 9.75C17.508 9.75 16.5 8.742 16.5 7.5C16.5 6.258 17.508 5.25 18.75 5.25C19.992 5.25 21 6.258 21 7.5C21 8.742 19.992 9.75 18.75 9.75Z" fill="#102542"/>
</svg>
