<svg width="12" height="17" viewBox="0 0 12 17" fill="none" xmlns="http://www.w3.org/2000/svg">
<path d="M11.5 1.59375H11.625C11.8321 1.59375 12 1.41535 12 1.19531V0.398438C12 0.1784 11.8321 0 11.625 0H0.375C0.167906 0 0 0.1784 0 0.398438V1.19531C0 1.41535 0.167906 1.59375 0.375 1.59375H0.5C0.5 4.26873 1.50588 7.09906 3.53688 8.5C1.49684 9.90718 0.5 12.7467 0.5 15.4062H0.375C0.167906 15.4062 0 15.5847 0 15.8047V16.6016C0 16.8216 0.167906 17 0.375 17H11.625C11.8321 17 12 16.8216 12 16.6016V15.8047C12 15.5847 11.8321 15.4062 11.625 15.4062H11.5C11.5 12.7313 10.4941 9.90094 8.46313 8.5C10.5032 7.09282 11.5 4.25332 11.5 1.59375ZM2 1.59375H10C10 4.96785 8.20916 7.70312 6 7.70312C3.79084 7.70312 2 4.96789 2 1.59375ZM10 15.4062H2C2 12.0321 3.79087 9.29688 6 9.29688C8.20913 9.29688 10 12.0321 10 15.4062Z" fill="#102542"/>
</svg>
