<svg width="28" height="28" viewBox="0 0 28 28" fill="none" xmlns="http://www.w3.org/2000/svg">
<path fill-rule="evenodd" clip-rule="evenodd" d="M21.9167 6.5H6.08333C4.93274 6.5 4 7.43274 4 8.58333V19.4167C4 20.5673 4.93274 21.5 6.08333 21.5H21.9167C22.4692 21.5 22.9991 21.2805 23.3898 20.8898C23.7805 20.4991 24 19.9692 24 19.4167V8.58333C24 8.0308 23.7805 7.5009 23.3898 7.11019C22.9991 6.71949 22.4692 6.5 21.9167 6.5ZM21.1375 10.5208L15.6667 14.2917C14.668 14.9694 13.357 14.9694 12.3583 14.2917L6.875 10.5417C6.6253 10.3751 6.48445 10.0871 6.50629 9.78778C6.52812 9.48843 6.70925 9.22394 6.98048 9.09538C7.25171 8.96681 7.57112 8.99405 7.81667 9.16667L13.2917 12.9167C13.7183 13.2101 14.2817 13.2101 14.7083 12.9167L20.1958 9.16667C20.4414 8.99405 20.7608 8.96681 21.032 9.09538C21.3032 9.22394 21.4844 9.48843 21.5062 9.78778C21.528 10.0871 21.3872 10.3751 21.1375 10.5417V10.5208Z" fill="#6E3CF4"/>
</svg>
