<svg width="24" height="24" viewBox="0 0 24 24" fill="none" xmlns="http://www.w3.org/2000/svg">
<path opacity="0.25" d="M12 1C5.92339 1 1 5.92339 1 12C1 18.0766 5.92339 23 12 23C18.0766 23 23 18.0766 23 12C23 5.92339 18.0766 1 12 1ZM16.5 12.5C16.5 12.5 12.5718 17.4246 12.5 17.5C12.4282 17.5754 12 17.5 12 17.5C12 17.5 11.9234 17.6431 11.5 17.5C11.0766 17.3569 7.5 13 7.5 13C6.07621 11.5274 6 9 7 8C8 7 10.2302 6.8371 11.5032 8.15L12.0044 8.66452L12.5056 8.15C13.7786 6.8371 16 7.3 17 8.15C18 9 17.9282 11.0274 16.5 12.5Z" fill="#A6ACBB"/>
<path d="M17.0637 12.8559L12.5272 17.7615C12.4608 17.8346 12.3812 17.8932 12.2932 17.9341C12.2051 17.975 12.1103 17.9973 12.014 17.9998C11.9177 18.0022 11.8219 17.9848 11.732 17.9485C11.6421 17.9122 11.56 17.8577 11.4902 17.7882V17.7882C11.4816 17.7796 11.473 17.7705 11.4648 17.7615L6.93232 12.8559C5.61565 11.4297 5.69358 9.06713 7.16612 7.75266C8.44998 6.60573 10.3614 6.81192 11.5386 8.08343L12.0021 8.58173L12.4656 8.08343C13.6429 6.81192 15.5543 6.60573 16.8381 7.75266C18.3066 9.06713 18.3845 11.4297 17.0637 12.8559Z" fill="#02D0AA"/>
</svg>
