<svg width="18" height="17" viewBox="0 0 18 17" fill="none" xmlns="http://www.w3.org/2000/svg">
<path d="M16.1156 1.22617C14.0836 -0.617527 10.9441 -0.340594 9 1.79521C7.05586 -0.340594 3.91641 -0.621321 1.88438 1.22617C-0.75937 3.62752 -0.372652 7.54253 1.51172 9.61763L7.67812 16.3968C8.02969 16.7838 8.50078 17 9 17C9.50273 17 9.97031 16.7876 10.3219 16.4006L16.4883 9.62143C18.3691 7.54632 18.7629 3.63132 16.1156 1.22617ZM15.2859 8.33919L9.11953 15.1184C9.03515 15.2094 8.96484 15.2094 8.88047 15.1184L2.71406 8.33919C1.43086 6.92796 1.17071 4.25726 2.97071 2.62222C4.33828 1.38171 6.44766 1.56759 7.76953 3.02055L9 4.37486L10.2305 3.02055C11.5594 1.56001 13.6687 1.38171 15.0293 2.61842C16.8258 4.25347 16.5586 6.93935 15.2859 8.33919Z" fill="#102542"/>
</svg>
