<svg width="24" height="24" viewBox="0 0 24 24" fill="none" xmlns="http://www.w3.org/2000/svg">
<path d="M12.1058 14.5475L22.6038 3.02472L23.9897 4.28741L12.202 17.2258L5.77588 11.1171L7.06787 9.75806L12.1058 14.5475ZM23.2617 7.84003L21.7996 9.44989C22.0118 10.2649 22.125 11.1194 22.125 12C22.125 17.5829 17.5829 22.125 12 22.125C6.41711 22.125 1.875 17.5829 1.875 12C1.875 6.41711 6.41711 1.875 12 1.875C14.5864 1.875 16.9488 2.85022 18.7405 4.45166L20.0045 3.05988C17.801 1.08215 14.9837 0 12 0C8.79474 0 5.78119 1.24823 3.51471 3.51471C1.24823 5.78119 0 8.79474 0 12C0 15.2053 1.24823 18.2188 3.51471 20.4853C5.78119 22.7518 8.79474 24 12 24C15.2053 24 18.2188 22.7518 20.4853 20.4853C22.7518 18.2188 24 15.2053 24 12C24 10.5575 23.7464 9.15417 23.2617 7.84003Z" fill="#02D0AA"/>
</svg>
