<svg width="22" height="22" viewBox="0 0 22 22" fill="none" xmlns="http://www.w3.org/2000/svg">
<path opacity="0.25" d="M11 0C4.92339 0 0 4.92694 0 11C0 17.0731 4.92339 22 11 22C17.0766 22 22 17.0766 22 11C22 4.92339 17.0766 0 11 0ZM11 5.5C11.3684 5.5 11.7286 4.98829 12.035 5.19299C12.3413 5.39769 12.5801 5.68863 12.7211 6.02903C12.8621 6.36943 12.899 6.744 12.8271 7.10537C12.7552 7.46674 12.5778 7.79868 12.3173 8.05921C12.0567 8.31974 11.7248 8.49716 11.3634 8.56904C11.0021 8.64092 11.2138 8.20021 10.8734 8.05921C10.533 7.91821 10.7047 7.80635 10.5 7.5C10.2953 7.19365 10.2871 7.15305 10.2871 6.7846C10.2871 6.29053 9.93773 6.5221 10.2871 6.17274C10.6365 5.82338 10.5059 5.5 11 5.5ZM13.4839 16.1452C13.4839 16.2863 13.4278 16.4217 13.328 16.5215C13.2282 16.6213 13.0928 16.6774 12.9516 16.6774L9.5 16.5C9.59982 16.5998 9.35884 16.5 9.5 16.5C9.40018 16.4002 9.36185 16.1412 9.36185 16L9.5 15.5C9.5 15.3588 9.26204 15.1805 9.36185 15.0806C9.46167 14.9808 9.35884 15 9.5 15H10.5V11.5H9.5C9.59982 11.5998 9.35884 11.5 9.5 11.5C9.40018 11.4002 9.5 11.1412 9.5 11V10.5C9.5 10.3588 9.90018 10.5998 10 10.5C9.85884 10.5 10.0998 10.4002 10 10.5L12 10C11.9002 9.90018 12.1412 10 12 10C12.0998 10.0998 12.4194 9.97174 12.4194 10.1129V14.5484V15.5C12.5605 15.5 12.9002 14.9002 13 15C13.0998 15.0998 13.4839 14.9395 13.4839 15.0806V16.1452Z" fill="#A6ACBB"/>
<path d="M11.5 8.78947C11.8708 8.78947 12.2334 8.67835 12.5417 8.47015C12.85 8.26196 13.0904 7.96604 13.2323 7.61982C13.3742 7.2736 13.4113 6.89264 13.339 6.52509C13.2666 6.15755 13.088 5.81994 12.8258 5.55496C12.5636 5.28997 12.2295 5.10952 11.8658 5.03641C11.5021 4.9633 11.1251 5.00082 10.7825 5.14423C10.4399 5.28764 10.147 5.53049 9.94099 5.84208C9.73497 6.15367 9.625 6.51999 9.625 6.89474C9.625 7.39725 9.82254 7.87919 10.1742 8.23452C10.5258 8.58985 11.0027 8.78947 11.5 8.78947ZM13.4643 14.8346H12.9286V10.3233C12.9286 10.1797 12.8721 10.042 12.7717 9.94051C12.6712 9.83899 12.5349 9.78196 12.3929 9.78196H9.53571C9.39363 9.78196 9.25737 9.83899 9.15691 9.94051C9.05644 10.042 9 10.1797 9 10.3233V11.406C9 11.5496 9.05644 11.6873 9.15691 11.7888C9.25737 11.8903 9.39363 11.9474 9.53571 11.9474H10.0714V14.8346H9.53571C9.39363 14.8346 9.25737 14.8916 9.15691 14.9931C9.05644 15.0947 9 15.2324 9 15.3759V16.4586C9 16.6022 9.05644 16.7399 9.15691 16.8414C9.25737 16.943 9.39363 17 9.53571 17H13.4643C13.6064 17 13.7426 16.943 13.8431 16.8414C13.9436 16.7399 14 16.6022 14 16.4586V15.3759C14 15.2324 13.9436 15.0947 13.8431 14.9931C13.7426 14.8916 13.6064 14.8346 13.4643 14.8346Z" fill="#02D0AA"/>
</svg>
