<svg width="40" height="40" viewBox="0 0 40 40" fill="none" xmlns="http://www.w3.org/2000/svg">
<circle cx="20" cy="20" r="20" fill="#02D0AA"/>
<path d="M20 15.193C17.3398 15.193 15.193 17.3399 15.193 20C15.193 22.6602 17.3398 24.807 20 24.807C22.6602 24.807 24.807 22.6602 24.807 20C24.807 17.3399 22.6602 15.193 20 15.193ZM20 23.1242C18.2797 23.1242 16.8758 21.7203 16.8758 20C16.8758 18.2797 18.2797 16.8758 20 16.8758C21.7203 16.8758 23.1242 18.2797 23.1242 20C23.1242 21.7203 21.7203 23.1242 20 23.1242ZM25.0039 13.8758C24.3828 13.8758 23.8812 14.3774 23.8812 14.9985C23.8812 15.6195 24.3828 16.1211 25.0039 16.1211C25.625 16.1211 26.1266 15.6219 26.1266 14.9985C26.1267 14.851 26.0978 14.7049 26.0415 14.5686C25.9851 14.4323 25.9024 14.3085 25.7982 14.2042C25.6939 14.0999 25.57 14.0172 25.4337 13.9609C25.2975 13.9045 25.1514 13.8756 25.0039 13.8758ZM29.3703 20C29.3703 18.7063 29.382 17.4242 29.3094 16.1328C29.2367 14.6328 28.8945 13.3016 27.7977 12.2047C26.6984 11.1055 25.3695 10.7656 23.8695 10.693C22.5758 10.6203 21.2937 10.632 20.0023 10.632C18.7086 10.632 17.4266 10.6203 16.1352 10.693C14.6352 10.7656 13.3039 11.1078 12.207 12.2047C11.1078 13.3039 10.768 14.6328 10.6953 16.1328C10.6227 17.4266 10.6344 18.7086 10.6344 20C10.6344 21.2914 10.6227 22.5758 10.6953 23.8672C10.768 25.3672 11.1102 26.6985 12.207 27.7953C13.3062 28.8945 14.6352 29.2344 16.1352 29.307C17.4289 29.3797 18.7109 29.368 20.0023 29.368C21.2961 29.368 22.5781 29.3797 23.8695 29.307C25.3695 29.2344 26.7008 28.8922 27.7977 27.7953C28.8969 26.6961 29.2367 25.3672 29.3094 23.8672C29.3844 22.5758 29.3703 21.2938 29.3703 20ZM27.3078 25.5266C27.1367 25.9531 26.9305 26.2719 26.6 26.6C26.2695 26.9305 25.9531 27.1367 25.5266 27.3078C24.2937 27.7977 21.3664 27.6875 20 27.6875C18.6336 27.6875 15.7039 27.7977 14.4711 27.3102C14.0445 27.1391 13.7258 26.9328 13.3977 26.6024C13.0672 26.2719 12.8609 25.9555 12.6898 25.5289C12.2023 24.2938 12.3125 21.3664 12.3125 20C12.3125 18.6336 12.2023 15.7039 12.6898 14.4711C12.8609 14.0445 13.0672 13.7258 13.3977 13.3977C13.7281 13.0695 14.0445 12.861 14.4711 12.6899C15.7039 12.2024 18.6336 12.3125 20 12.3125C21.3664 12.3125 24.2961 12.2024 25.5289 12.6899C25.9555 12.861 26.2742 13.0672 26.6023 13.3977C26.9328 13.7281 27.1391 14.0445 27.3102 14.4711C27.7977 15.7039 27.6875 18.6336 27.6875 20C27.6875 21.3664 27.7977 24.2938 27.3078 25.5266Z" fill="white"/>
</svg>
