<svg width="22" height="22" viewBox="0 0 22 22" fill="none" xmlns="http://www.w3.org/2000/svg">
<path fill-rule="evenodd" clip-rule="evenodd" d="M0.25 6.45467C0.25 3.04045 3.04033 0.250122 6.45455 0.250122H15.5455C18.9597 0.250122 21.75 3.04045 21.75 6.45467V15.5456C21.75 18.9598 18.9597 21.7501 15.5455 21.7501H6.45455C3.04033 21.7501 0.25 18.9598 0.25 15.5456V6.45467ZM6.45455 1.75012C3.86876 1.75012 1.75 3.86888 1.75 6.45467V15.5456C1.75 18.1314 3.86876 20.2501 6.45455 20.2501H15.5455C18.1312 20.2501 20.25 18.1314 20.25 15.5456V6.45467C20.25 3.86888 18.1312 1.75012 15.5455 1.75012H6.45455ZM11 14.5001C12.933 14.5001 14.5 12.9331 14.5 11.0001C14.5 9.06713 12.933 7.50012 11 7.50012C9.067 7.50012 7.5 9.06713 7.5 11.0001C7.5 12.9331 9.067 14.5001 11 14.5001ZM11 16.0001C13.7614 16.0001 16 13.7615 16 11.0001C16 8.2387 13.7614 6.00012 11 6.00012C8.23858 6.00012 6 8.2387 6 11.0001C6 13.7615 8.23858 16.0001 11 16.0001ZM16 6.00012C16.5523 6.00012 17 5.55241 17 5.00012C17 4.44784 16.5523 4.00012 16 4.00012C15.4477 4.00012 15 4.44784 15 5.00012C15 5.55241 15.4477 6.00012 16 6.00012Z" fill="#6E7491"/>
</svg>
