<svg width="22" height="17" viewBox="0 0 22 17" fill="none" xmlns="http://www.w3.org/2000/svg">
<path d="M21.8244 15.3631L11.9244 0.488086C11.7219 0.183945 11.3734 0 10.999 0C10.6247 0 10.2761 0.183945 10.0736 0.488086L0.173634 15.3631C0.0667982 15.5236 0.00668449 15.7089 -0.000392445 15.8996C-0.00746938 16.0903 0.0387517 16.2793 0.133416 16.4468C0.228124 16.6143 0.367761 16.754 0.537665 16.8513C0.707569 16.9487 0.90147 17 1.09901 17H20.899C21.3015 17 21.6718 16.7878 21.8646 16.4465C21.9593 16.2791 22.0055 16.0901 21.9984 15.8995C21.9913 15.7088 21.9312 15.5235 21.8244 15.3631ZM10.999 3.02746L13.9343 7.4375H10.999L8.79901 9.5625L7.4907 8.29879L10.999 3.02746Z" fill="#102542"/>
</svg>
