<svg width="28" height="28" viewBox="0 0 28 28" fill="none" xmlns="http://www.w3.org/2000/svg">
<path fill-rule="evenodd" clip-rule="evenodd" d="M13.624 4.39994C10.2078 4.59054 7.42659 7.21629 7.04003 10.6159C6.86824 12.2031 7.2528 13.8008 8.12803 15.1359L13.328 23.2319C13.4747 23.4637 13.7298 23.6041 14.004 23.6041C14.2783 23.6041 14.5334 23.4637 14.68 23.2319L19.88 15.1359C20.6138 14.0135 21.0031 12.7009 21 11.3599C20.9965 9.44187 20.2042 7.6097 18.8092 6.29333C17.4141 4.97696 15.5391 4.29228 13.624 4.39994ZM14 14.1999C12.4536 14.1999 11.2 12.9463 11.2 11.3999C11.2 9.85354 12.4536 8.59994 14 8.59994C15.5464 8.59994 16.8 9.85354 16.8 11.3999C16.8 12.1425 16.505 12.8547 15.9799 13.3798C15.4548 13.9049 14.7426 14.1999 14 14.1999Z" fill="#6E3CF4"/>
</svg>
