<svg width="18" height="22" viewBox="0 0 18 22" fill="none" xmlns="http://www.w3.org/2000/svg">
<path d="M8.8746 0C4.1136 0 0.258789 3.69592 0.258789 8.25C0.258789 11.3058 1.33536 12.2608 7.04692 21.0299C7.88988 22.3241 9.86025 22.3226 10.7022 21.0299C16.4168 12.2562 17.4904 11.3052 17.4904 8.25C17.4904 3.69115 13.6306 0 8.8746 0ZM8.8746 19.9375C3.15657 11.1584 2.41274 10.6042 2.41274 8.25C2.41274 4.83274 5.30581 2.0625 8.8746 2.0625C12.4434 2.0625 15.3365 4.83274 15.3365 8.25C15.3365 10.5941 14.6559 11.0612 8.8746 19.9375ZM5.28468 8.25C5.28468 6.35152 6.89193 4.8125 8.8746 4.8125C10.8573 4.8125 12.4645 6.35152 12.4645 8.25C12.4645 10.1485 10.8573 11.6875 8.8746 11.6875C6.89193 11.6875 5.28468 10.1485 5.28468 8.25Z" fill="#02D0AA"/>
</svg>
