<svg width="24" height="24" viewBox="0 0 24 24" fill="none" xmlns="http://www.w3.org/2000/svg">
<path d="M20.25 1H3.75C3.02086 1.00068 2.32179 1.29062 1.80621 1.80617C1.29063 2.32172 1.00068 3.02076 1 3.74986V16.1242C1.00068 16.8533 1.29063 17.5524 1.80621 18.0679C2.32179 18.5835 3.02086 18.8734 3.75 18.8741H7.875V22.4833C7.87479 22.5787 7.90106 22.6723 7.95087 22.7536C8.00068 22.835 8.07209 22.9009 8.15715 22.9441C8.2422 22.9873 8.33758 23.0061 8.43266 22.9983C8.52774 22.9905 8.6188 22.9565 8.6957 22.9001L14.0625 18.8741H20.25C20.9791 18.8734 21.6782 18.5835 22.1938 18.0679C22.7094 17.5524 22.9993 16.8533 23 16.1242V3.74986C22.9993 3.02076 22.7094 2.32172 22.1938 1.80617C21.6782 1.29062 20.9791 1.00068 20.25 1V1ZM13.375 12.3432C13.375 12.4343 13.3388 12.5218 13.2743 12.5862C13.2099 12.6507 13.1224 12.6869 13.0312 12.6869H6.84375C6.75258 12.6869 6.66515 12.6507 6.60068 12.5862C6.53622 12.5218 6.5 12.4343 6.5 12.3432V11.6557C6.5 11.5645 6.53622 11.4771 6.60068 11.4127C6.66515 11.3482 6.75258 11.312 6.84375 11.312H13.0312C13.1224 11.312 13.2099 11.3482 13.2743 11.4127C13.3388 11.4771 13.375 11.5645 13.375 11.6557V12.3432ZM17.5 8.21839C17.5 8.30955 17.4638 8.39698 17.3993 8.46144C17.3349 8.5259 17.2474 8.56212 17.1562 8.56212H6.84375C6.75258 8.56212 6.66515 8.5259 6.60068 8.46144C6.53622 8.39698 6.5 8.30955 6.5 8.21839V7.53092C6.5 7.43976 6.53622 7.35233 6.60068 7.28786C6.66515 7.2234 6.75258 7.18719 6.84375 7.18719H17.1562C17.2474 7.18719 17.3349 7.2234 17.3993 7.28786C17.4638 7.35233 17.5 7.43976 17.5 7.53092V8.21839Z" fill="#E9EAEE"/>
<path d="M13.125 11.25H6.375C6.27554 11.25 6.18016 11.2961 6.10983 11.3781C6.03951 11.4602 6 11.5715 6 11.6875V12.5625C6 12.6785 6.03951 12.7898 6.10983 12.8719C6.18016 12.9539 6.27554 13 6.375 13H13.125C13.2245 13 13.3198 12.9539 13.3902 12.8719C13.4605 12.7898 13.5 12.6785 13.5 12.5625V11.6875C13.5 11.5715 13.4605 11.4602 13.3902 11.3781C13.3198 11.2961 13.2245 11.25 13.125 11.25ZM17.625 7H6.375C6.27554 7 6.18016 7.04609 6.10983 7.12814C6.03951 7.21019 6 7.32147 6 7.4375V8.3125C6 8.42853 6.03951 8.53981 6.10983 8.62186C6.18016 8.70391 6.27554 8.75 6.375 8.75H17.625C17.7245 8.75 17.8198 8.70391 17.8902 8.62186C17.9605 8.53981 18 8.42853 18 8.3125V7.4375C18 7.32147 17.9605 7.21019 17.8902 7.12814C17.8198 7.04609 17.7245 7 17.625 7Z" fill="#02D0AA"/>
</svg>
