<svg width="24" height="24" viewBox="0 0 24 24" fill="none" xmlns="http://www.w3.org/2000/svg">
<g clip-path="url(#clip0)">
<path d="M13.5219 6.92979L13.4507 6.85758L13.3795 6.92979L13.1723 7.13987C12.6758 7.64338 12.5843 8.40285 12.8959 9.0011L10.9442 10.3384C10.1037 9.51057 8.75549 9.5181 7.92425 10.3611C7.92425 10.3611 7.92425 10.3611 7.92425 10.3611L7.71708 10.5711L7.64784 10.6413L7.71708 10.7116L10.2511 13.2813L6.9288 16.6504L6.85956 16.7207L6.9288 16.7909L7.34311 17.211L7.41432 17.2832L7.48552 17.211L10.8059 13.8439L13.338 16.4116L13.4092 16.4838L13.4804 16.4116L13.6876 16.2016C14.5186 15.3588 14.5255 13.9928 13.7084 13.1414L15.0276 11.1615C15.6186 11.4766 16.3678 11.3829 16.8641 10.8796L17.0712 10.6695L17.1404 10.5993L17.0712 10.5291L13.5219 6.92979ZM13.3684 15.3172L8.79768 10.6822C9.31432 10.3998 9.97419 10.4795 10.4102 10.9216C10.4102 10.9216 10.4102 10.9216 10.4102 10.9216L13.1309 13.6806C13.5667 14.1226 13.6462 14.7923 13.3684 15.3172ZM13.143 12.5678L11.5091 10.9109L13.4019 9.61393L14.422 10.6483L13.143 12.5678ZM15.2068 10.319L13.729 8.82049C13.5264 8.61502 13.4584 8.32292 13.5262 8.0593L15.9564 10.5238C15.6973 10.593 15.4096 10.5247 15.2068 10.319Z" fill="#02D0AA" stroke="#02D0AA" stroke-width="0.2"/>
</g>
<path d="M24 12C24 18.6274 18.6274 24 12 24C5.37258 24 0 18.6274 0 12C0 5.37258 5.37258 0 12 0C18.6274 0 24 5.37258 24 12ZM1.86351 12C1.86351 17.5982 6.40177 22.1365 12 22.1365C17.5982 22.1365 22.1365 17.5982 22.1365 12C22.1365 6.40177 17.5982 1.86351 12 1.86351C6.40177 1.86351 1.86351 6.40177 1.86351 12Z" fill="#02D0AA"/>
<defs>
<clipPath id="clip0">
<rect width="10" height="10.1408" fill="white" transform="translate(7 7)"/>
</clipPath>
</defs>
</svg>
