<svg width="24" height="24" viewBox="0 0 24 24" fill="none" xmlns="http://www.w3.org/2000/svg">
<path opacity="0.25" d="M12 1C5.92339 1 1 5.92694 1 12C1 18.0731 5.92339 23 12 23C18.0766 23 23 18.0766 23 12C23 5.92339 18.0766 1 12 1ZM12 17.6774C11.7193 17.6774 11.4449 17.5942 11.2114 17.4382C10.978 17.2823 10.7961 17.0606 10.6887 16.8012C10.5813 16.5419 10.9452 16.7753 11 16.5C11.0548 16.2247 10.9048 16.3716 11.1033 16.1731C11.3018 15.9746 11.4228 16.3128 11.6981 16.2581C11.9734 16.2033 12.1629 15.7214 12.4223 15.8288C12.6816 15.9363 12.7425 15.9397 12.8985 16.1731C13.0544 16.4065 13.4194 15.9773 13.4194 16.2581C13.4194 16.6345 13.2698 16.9955 13.0036 17.2617C12.7375 17.5279 12.3764 17.6774 12 17.6774ZM13.6961 7.10278L13.1284 12.7802C13.1109 12.9553 13.029 13.1177 12.8985 13.2358C12.768 13.3539 12.5983 13.4193 12.4223 13.4194H11.5795C11.4035 13.4193 11.2338 13.3539 11.1033 13.2358C10.9728 13.1177 10.8909 12.9553 10.8734 12.7802L10.3056 7.10278C10.2958 7.00428 10.3067 6.90481 10.3376 6.81076C10.3685 6.71672 10.4187 6.63017 10.485 6.5567C10.5514 6.48322 10.6323 6.42443 10.7228 6.38411C10.8132 6.34379 10.911 6.32283 11.01 6.32258H12.99C13.0891 6.32259 13.1872 6.34336 13.2778 6.38357C13.3684 6.42378 13.4496 6.48253 13.5161 6.55604C13.5827 6.62955 13.6331 6.71617 13.6641 6.81034C13.6951 6.90451 13.706 7.00413 13.6961 7.10278Z" fill="#A6ACBB"/>
<path d="M13.1666 6H10.8355C10.7188 6.00001 10.6033 6.02196 10.4966 6.06446C10.39 6.10695 10.2944 6.16904 10.216 6.24672C10.1377 6.32441 10.0784 6.41596 10.0419 6.51548C10.0054 6.615 9.99254 6.72028 10.0041 6.82453L10.6726 12.8245C10.6931 13.0096 10.7896 13.1812 10.9432 13.306C11.0969 13.4309 11.2967 13.5 11.5039 13.5H12.4961C12.7033 13.5 12.9031 13.4309 13.0567 13.306C13.2104 13.1812 13.3069 13.0096 13.3274 12.8245L13.9959 6.82453C14.0074 6.72043 13.9946 6.61531 13.9583 6.51592C13.9219 6.41653 13.8628 6.32507 13.7847 6.24742C13.7066 6.16976 13.6112 6.10764 13.5048 6.06503C13.3983 6.02242 13.2831 6.00027 13.1666 6Z" fill="#02D0AA"/>
<circle cx="12" cy="17" r="2" fill="#02D0AA"/>
</svg>
