<svg width="18" height="13" viewBox="0 0 18 13" fill="none" xmlns="http://www.w3.org/2000/svg">
<path d="M15.3024 5.57143C16.5457 5.57143 17.5527 4.53259 17.5527 3.25C17.5527 1.96741 16.5457 0.928571 15.3024 0.928571C14.0591 0.928571 13.052 1.96741 13.052 3.25C13.052 4.53259 14.0591 5.57143 15.3024 5.57143ZM15.3024 2.32143C15.7975 2.32143 16.2025 2.73929 16.2025 3.25C16.2025 3.76071 15.7975 4.17857 15.3024 4.17857C14.8073 4.17857 14.4022 3.76071 14.4022 3.25C14.4022 2.73929 14.8073 2.32143 15.3024 2.32143ZM2.70042 5.57143C3.94374 5.57143 4.95077 4.53259 4.95077 3.25C4.95077 1.96741 3.94374 0.928571 2.70042 0.928571C1.4571 0.928571 0.45007 1.96741 0.45007 3.25C0.45007 4.53259 1.4571 5.57143 2.70042 5.57143ZM2.70042 2.32143C3.1955 2.32143 3.60056 2.73929 3.60056 3.25C3.60056 3.76071 3.1955 4.17857 2.70042 4.17857C2.20534 4.17857 1.80028 3.76071 1.80028 3.25C1.80028 2.73929 2.20534 2.32143 2.70042 2.32143ZM13.8509 8.44129C13.0774 7.25737 11.5809 6.81629 10.256 7.23125C9.85654 7.35603 9.43741 7.42567 8.99859 7.42567C8.55977 7.42567 8.14065 7.35603 7.74121 7.23125C6.41631 6.81629 4.91983 7.25446 4.14627 8.44129C3.79747 8.97522 3.59494 9.61652 3.59494 10.3071V11.6071C3.59494 12.3761 4.19972 13 4.94515 13H13.0464C13.7918 13 14.3966 12.3761 14.3966 11.6071V10.3071C14.4022 9.61652 14.1997 8.97522 13.8509 8.44129ZM13.052 11.6071H4.95077V10.3071C4.95077 9.25089 5.77215 8.38616 6.79043 8.35714C7.50773 8.66473 8.25035 8.82143 9.0014 8.82143C9.75246 8.82143 10.4951 8.66473 11.2124 8.35714C12.2307 8.38616 13.052 9.24799 13.052 10.3071V11.6071ZM15.6399 6.5H14.9648C14.4782 6.5 14.0253 6.65379 13.6484 6.91495C14.0253 7.20803 14.3572 7.55915 14.616 7.9654C14.7257 7.92478 14.8411 7.89286 14.962 7.89286H15.6371C16.1941 7.89286 16.6498 8.36295 16.6498 8.9375C16.6498 9.32054 16.9536 9.63393 17.3249 9.63393C17.6962 9.63393 18 9.32054 18 8.9375C18.0028 7.59397 16.9423 6.5 15.6399 6.5ZM9.0014 6.5C10.7426 6.5 12.1519 5.04621 12.1519 3.25C12.1519 1.45379 10.7426 0 9.0014 0C7.26019 0 5.85091 1.45379 5.85091 3.25C5.85091 5.04621 7.26019 6.5 9.0014 6.5ZM9.0014 1.39286C9.99437 1.39286 10.8017 2.22567 10.8017 3.25C10.8017 4.27433 9.99437 5.10714 9.0014 5.10714C8.00844 5.10714 7.20112 4.27433 7.20112 3.25C7.20112 2.22567 8.00844 1.39286 9.0014 1.39286ZM4.35443 6.91495C3.9775 6.65379 3.52461 6.5 3.03797 6.5H2.36287C1.06048 6.5 0 7.59397 0 8.9375C0 9.32054 0.303797 9.63393 0.675105 9.63393C1.04641 9.63393 1.35021 9.32054 1.35021 8.9375C1.35021 8.36295 1.80591 7.89286 2.36287 7.89286H3.03797C3.16174 7.89286 3.27707 7.92478 3.38397 7.9654C3.64557 7.55915 3.9775 7.20803 4.35443 6.91495Z" fill="#102542"/>
</svg>
