<svg width="15" height="17" viewBox="0 0 15 17" fill="none" xmlns="http://www.w3.org/2000/svg">
<path d="M10.5 10.0938C9.53906 10.0938 9.07701 10.625 7.5 10.625C5.92299 10.625 5.46429 10.0938 4.5 10.0938C2.01562 10.0938 0 12.0926 0 14.5562V15.4062C0 16.2861 0.719866 17 1.60714 17H13.3929C14.2801 17 15 16.2861 15 15.4062V14.5562C15 12.0926 12.9844 10.0938 10.5 10.0938ZM13.3929 15.4062H1.60714V14.5562C1.60714 12.9758 2.90625 11.6875 4.5 11.6875C4.98884 11.6875 5.78237 12.2188 7.5 12.2188C9.23103 12.2188 10.0078 11.6875 10.5 11.6875C12.0938 11.6875 13.3929 12.9758 13.3929 14.5562V15.4062ZM7.5 9.5625C10.1618 9.5625 12.3214 7.4209 12.3214 4.78125C12.3214 2.1416 10.1618 0 7.5 0C4.83817 0 2.67857 2.1416 2.67857 4.78125C2.67857 7.4209 4.83817 9.5625 7.5 9.5625ZM7.5 1.59375C9.2712 1.59375 10.7143 3.0248 10.7143 4.78125C10.7143 6.5377 9.2712 7.96875 7.5 7.96875C5.72879 7.96875 4.28571 6.5377 4.28571 4.78125C4.28571 3.0248 5.72879 1.59375 7.5 1.59375Z" fill="#102542"/>
</svg>
