<svg width="24" height="24" viewBox="0 0 24 24" fill="none" xmlns="http://www.w3.org/2000/svg">
<path opacity="0.25" d="M7.2299 18.8748C6.58835 21.3875 5.60466 23 4.49998 23C2.56696 23 1 18.0751 1 12C1 5.92487 2.56696 1 4.49998 1C5.91809 1 7.13624 3.65525 7.68619 7.46571C7.2393 7.94843 7.17077 8.67487 7.58981 9.20997C7.67979 9.31512 7.78573 9.40601 7.90392 9.47945C7.96458 10.2901 7.99996 11.1312 7.99996 12C8.00212 13.3788 7.91639 14.7564 7.74327 16.1247H6.59997C6.22896 16.1252 5.8733 16.2703 5.61112 16.5281C5.34895 16.7859 5.20168 17.1354 5.20168 17.4998C5.20168 17.8642 5.34895 18.2137 5.61112 18.4715C5.8733 18.7293 6.22896 18.8744 6.59997 18.8748H7.2299Z" fill="#A6ACBB"/>
<path d="M16.7686 5.12509C17.1794 5.12509 17.581 5.00414 17.9226 4.7775C18.2642 4.55087 18.5305 4.22875 18.6877 3.85186C18.8449 3.47498 18.8861 3.06027 18.8059 2.66017C18.7258 2.26007 18.5279 1.89256 18.2374 1.60411C17.9469 1.31565 17.5768 1.11921 17.1739 1.03963C16.771 0.960048 16.3533 1.0009 15.9737 1.15701C15.5942 1.31313 15.2698 1.57749 15.0416 1.91668C14.8133 2.25587 14.6915 2.65465 14.6915 3.06259C14.6915 3.60959 14.9104 4.13418 15.2999 4.52096C15.6894 4.90775 16.2177 5.12506 16.7686 5.12509ZM9.91793 14.6417L9.27695 16.1247H6.38305C6.01609 16.1252 5.66431 16.2703 5.40498 16.5281C5.14566 16.7859 5 17.1354 5 17.4998C5 17.8642 5.14566 18.2137 5.40498 18.4715C5.66431 18.7293 6.01609 18.8744 6.38305 18.8748H9.73402C10.1406 18.8754 10.5384 18.7572 10.8778 18.535C11.2173 18.3129 11.4836 17.9966 11.6435 17.6254L12.0234 16.7431L11.5623 16.4725C10.8388 16.0433 10.265 15.4043 9.91793 14.6417ZM21.6152 10.6246H19.7098L18.582 8.33641C18.0411 7.2387 17.0472 6.43639 15.9086 6.14769L12.8335 5.23922C12.2318 5.0944 11.605 5.0854 10.9994 5.21287C10.3937 5.34035 9.82453 5.60106 9.33374 5.97582L7.61904 7.28233C7.32763 7.5042 7.13691 7.83193 7.08885 8.19342C7.06505 8.37242 7.07699 8.55431 7.12398 8.72872C7.17098 8.90314 7.25211 9.06665 7.36274 9.20993C7.47338 9.35321 7.61135 9.47344 7.76878 9.56378C7.92622 9.65411 8.10003 9.71276 8.28029 9.73639C8.64434 9.78412 9.01258 9.68629 9.30399 9.46443L11.0214 8.15782C11.3527 7.90471 11.776 7.81407 12.114 7.89397L12.7496 8.08196L11.1296 11.8372C10.8662 12.4518 10.8364 13.1404 11.0458 13.7752C11.2552 14.4099 11.6896 14.9475 12.2682 15.2882L15.9437 17.4441L14.7564 21.2134C14.7019 21.3856 14.6821 21.5667 14.6981 21.7465C14.7141 21.9263 14.7657 22.1012 14.8498 22.2612C14.934 22.4212 15.0491 22.5632 15.1885 22.679C15.3279 22.7948 15.489 22.8822 15.6624 22.9362C15.836 22.9907 16.0187 23.0106 16.2001 22.9947C16.3814 22.9789 16.5578 22.9276 16.7192 22.8439C16.8805 22.7602 17.0236 22.6456 17.1402 22.5068C17.2568 22.368 17.3447 22.2077 17.3988 22.0351L18.7673 17.6925C18.8915 17.255 18.8672 16.789 18.698 16.3666C18.5289 15.9441 18.2244 15.5888 17.8315 15.3553L15.181 13.8023L16.536 10.4386L17.4137 12.2192C17.5856 12.5649 17.8512 12.8561 18.1806 13.0602C18.51 13.2643 18.8902 13.3732 19.2785 13.3747H21.6152C21.9825 13.3747 22.3347 13.2298 22.5944 12.9719C22.8541 12.7141 23 12.3643 23 11.9996C23 11.6349 22.8541 11.2852 22.5944 11.0273C22.3347 10.7695 21.9825 10.6246 21.6152 10.6246V10.6246Z" fill="#02D0AA"/>
</svg>
