<svg width="14" height="20" viewBox="0 0 14 20" fill="none" xmlns="http://www.w3.org/2000/svg">
<path d="M13.8403 5.4243C13.714 5.19586 13.5387 5.003 13.3289 4.86175C13.119 4.7205 12.8808 4.63493 12.6339 4.61215C12.7502 4.38817 12.8103 4.13566 12.8082 3.87935C12.8061 3.62304 12.7419 3.37171 12.6219 3.14997C12.2897 2.52494 11.601 2.22453 10.9612 2.36204C10.9492 1.71201 10.543 1.11198 9.90391 0.899858C9.66464 0.816912 9.41036 0.796326 9.16218 0.839808C8.91399 0.88329 8.67908 0.989587 8.47693 1.14987C8.47446 1.12309 8.46595 1.09734 8.45214 1.07487C8.19328 0.249826 7.31974 -0.187695 6.50781 0.0771618C6.27422 0.155156 6.06167 0.29246 5.88825 0.477392C5.71483 0.662324 5.58567 0.889409 5.51177 1.13932C5.30993 0.98324 5.07656 0.880385 4.83064 0.839116C4.58471 0.797846 4.33318 0.819327 4.09646 0.901811C3.45698 1.11432 3.05156 1.71396 3.03917 2.36399C2.39896 2.2257 1.7099 2.52494 1.37776 3.14997C1.25526 3.37078 1.1896 3.62245 1.18749 3.87932C1.18537 4.13618 1.24688 4.38906 1.36573 4.61215C0.875 4.66215 0.406146 4.94966 0.160417 5.4243C0.0175001 5.68759 -0.0134897 5.9712 0.00473948 6.24934H13.9949C14.0139 5.9712 13.9829 5.68798 13.8403 5.4243ZM11.025 7.4994L10.0042 17.4999H8.36318L9.15104 7.4994H4.85078L5.63682 17.4999H3.99437L2.97354 7.4994H0L1.60089 18.9355C1.64236 19.2316 1.78165 19.5019 1.99342 19.6973C2.20518 19.8926 2.47535 20 2.75479 20H11.2452C11.5246 20 11.7948 19.8926 12.0066 19.6973C12.2183 19.5019 12.3576 19.2316 12.3991 18.9355L14 7.4994H11.025Z"/>
</svg>
