<svg width="23" height="22" viewBox="0 0 23 22" fill="none" xmlns="http://www.w3.org/2000/svg">
<path d="M20.1959 1.53679C17.7123 -0.773964 13.8752 -0.426876 11.499 2.24999C9.12285 -0.426876 5.28574 -0.778719 2.80215 1.53679C-0.429096 4.54648 0.04356 9.45326 2.34668 12.0541L9.8834 20.5506C10.3131 21.0356 10.8889 21.3066 11.499 21.3066C12.1135 21.3066 12.685 21.0403 13.1146 20.5553L20.6514 12.0588C22.9502 9.45802 23.4314 4.55123 20.1959 1.53679Z" fill="#ED254E"/>
<path d="M20.1959 1.53679C17.7123 -0.773964 13.8752 -0.426876 11.499 2.24999C9.12285 -0.426876 5.28574 -0.778719 2.80215 1.53679C-0.429096 4.54648 0.04356 9.45326 2.34668 12.0541L9.8834 20.5506C10.3131 21.0356 10.8889 21.3066 11.499 21.3066C12.1135 21.3066 12.685 21.0403 13.1146 20.5553L20.6514 12.0588C22.9502 9.45802 23.4314 4.55123 20.1959 1.53679ZM19.1818 10.4517L11.6451 18.9483C11.542 19.0624 11.4561 19.0624 11.3529 18.9483L3.81621 10.4517C2.24786 8.68301 1.92989 5.33575 4.12989 3.2865C5.80137 1.73173 8.37949 1.96471 9.99512 3.78573L11.499 5.48314L13.0029 3.78573C14.6271 1.9552 17.2053 1.73173 18.8682 3.28174C21.0639 5.33099 20.7373 8.69728 19.1818 10.4517Z" fill="white"/>
</svg>
