<svg width="24" height="24" viewBox="0 0 24 24" fill="none" xmlns="http://www.w3.org/2000/svg">
<rect x="4" y="8" width="15" height="5" fill="#02D0AA"/>
<g clip-path="url(#clip0)">
<path d="M20.25 1H3.75C2.2332 1 1 2.2332 1 3.75V16.125C1 17.6418 2.2332 18.875 3.75 18.875H7.875V22.4844C7.875 22.9055 8.35625 23.1504 8.6957 22.9012L14.0625 18.875H20.25C21.7668 18.875 23 17.6418 23 16.125V3.75C23 2.2332 21.7668 1 20.25 1ZM6.5 11.3125C5.73945 11.3125 5.125 10.698 5.125 9.9375C5.125 9.17695 5.73945 8.5625 6.5 8.5625C7.26055 8.5625 7.875 9.17695 7.875 9.9375C7.875 10.698 7.26055 11.3125 6.5 11.3125ZM12 11.3125C11.2395 11.3125 10.625 10.698 10.625 9.9375C10.625 9.17695 11.2395 8.5625 12 8.5625C12.7605 8.5625 13.375 9.17695 13.375 9.9375C13.375 10.698 12.7605 11.3125 12 11.3125ZM17.5 11.3125C16.7395 11.3125 16.125 10.698 16.125 9.9375C16.125 9.17695 16.7395 8.5625 17.5 8.5625C18.2605 8.5625 18.875 9.17695 18.875 9.9375C18.875 10.698 18.2605 11.3125 17.5 11.3125Z" fill="#E9EAEE"/>
</g>
<defs>
<clipPath id="clip0">
<rect width="22" height="22" fill="white" transform="translate(1 1)"/>
</clipPath>
</defs>
</svg>
