<svg width="28" height="28" viewBox="0 0 28 28" fill="none" xmlns="http://www.w3.org/2000/svg">
<path fill-rule="evenodd" clip-rule="evenodd" d="M21.619 4H6.38095C5.06599 4 4 5.06599 4 6.38095V17.8095C4 19.1245 5.06599 20.1905 6.38095 20.1905H8.7619V23.0476C8.76352 23.4316 8.99554 23.777 9.35036 23.9237C9.70519 24.0704 10.1134 23.9897 10.3857 23.719L13.9143 20.1905H21.619C22.934 20.1905 24 19.1245 24 17.8095V6.38095C24 5.06599 22.934 4 21.619 4ZM14 10.9048C14.6575 10.9048 15.1905 11.4378 15.1905 12.0952C15.1905 12.7527 14.6575 13.2857 14 13.2857C13.3425 13.2857 12.8095 12.7527 12.8095 12.0952C12.8095 11.4378 13.3425 10.9048 14 10.9048ZM9.95238 10.9048C10.6099 10.9048 11.1429 11.4378 11.1429 12.0952C11.1429 12.7527 10.6099 13.2857 9.95238 13.2857C9.2949 13.2857 8.7619 12.7527 8.7619 12.0952C8.7619 11.4378 9.2949 10.9048 9.95238 10.9048ZM18.0476 13.2857C17.3901 13.2857 16.8571 12.7527 16.8571 12.0952C16.8571 11.4378 17.3901 10.9048 18.0476 10.9048C18.7051 10.9048 19.2381 11.4378 19.2381 12.0952C19.2381 12.7527 18.7051 13.2857 18.0476 13.2857Z" fill="#6E3CF4"/>
</svg>
