<svg width="18" height="18" viewBox="0 0 18 18" fill="none" xmlns="http://www.w3.org/2000/svg">
<path d="M17.4375 1.61542H10.125V0.70337C10.125 0.368952 9.87187 0.0953369 9.5625 0.0953369H8.4375C8.12813 0.0953369 7.875 0.368952 7.875 0.70337V1.61542H0.5625C0.253125 1.61542 0 1.88903 0 2.22345V2.83149C0 3.1659 0.253125 3.43952 0.5625 3.43952H7.875V4.35157C7.875 4.68599 8.12813 4.9596 8.4375 4.9596H9.5625C9.87187 4.9596 10.125 4.68599 10.125 4.35157V3.43952H17.4375C17.7469 3.43952 18 3.1659 18 2.83149V2.22345C18 1.88903 17.7469 1.61542 17.4375 1.61542ZM17.4375 13.7761H5.625V12.864C5.625 12.5296 5.37187 12.256 5.0625 12.256H3.9375C3.62812 12.256 3.375 12.5296 3.375 12.864V13.7761H0.5625C0.253125 13.7761 0 14.0497 0 14.3841V14.9921C0 15.3266 0.253125 15.6002 0.5625 15.6002H3.375V16.5122C3.375 16.8466 3.62812 17.1203 3.9375 17.1203H5.0625C5.37187 17.1203 5.625 16.8466 5.625 16.5122V15.6002H17.4375C17.7469 15.6002 18 15.3266 18 14.9921V14.3841C18 14.0497 17.7469 13.7761 17.4375 13.7761ZM17.4375 7.69575H14.625V6.7837C14.625 6.44928 14.3719 6.17567 14.0625 6.17567H12.9375C12.6281 6.17567 12.375 6.44928 12.375 6.7837V7.69575H0.5625C0.253125 7.69575 0 7.96937 0 8.30378V8.91182C0 9.24623 0.253125 9.51985 0.5625 9.51985H12.375V10.4319C12.375 10.7663 12.6281 11.0399 12.9375 11.0399H14.0625C14.3719 11.0399 14.625 10.7663 14.625 10.4319V9.51985H17.4375C17.7469 9.51985 18 9.24623 18 8.91182V8.30378C18 7.96937 17.7469 7.69575 17.4375 7.69575Z" fill="#102542"/>
</svg>
