<svg width="40" height="40" viewBox="0 0 40 40" fill="none" xmlns="http://www.w3.org/2000/svg">
<circle cx="20" cy="20" r="20" fill="#02D0AA"/>
<path d="M27.59 14.6901C26.5931 14.4709 25.6914 13.9415 25.0141 13.178C24.3368 12.4144 23.9187 11.4559 23.82 10.4401V10.0001H20.37V23.6701C20.3707 24.2766 20.1805 24.868 19.8264 25.3605C19.4723 25.853 18.9723 26.2216 18.3971 26.414C17.8218 26.6065 17.2006 26.6131 16.6215 26.4329C16.0423 26.2527 15.5345 25.8949 15.17 25.4101C14.8434 24.9809 14.6435 24.4689 14.5927 23.9321C14.542 23.3952 14.6424 22.8548 14.8828 22.3721C15.1231 21.8893 15.4937 21.4834 15.9527 21.2003C16.4117 20.9172 16.9407 20.7682 17.48 20.7701C17.7782 20.7684 18.075 20.8122 18.36 20.9001V17.4001C18.0283 17.359 17.6941 17.3423 17.36 17.3501C16.1293 17.3829 14.9349 17.774 13.9231 18.4753C12.9112 19.1767 12.1259 20.1578 11.6632 21.2987C11.2005 22.4396 11.0805 23.6906 11.3179 24.8986C11.5553 26.1066 12.1399 27.2192 13 28.1001C13.8815 28.9963 15.0095 29.6102 16.2407 29.8639C17.4719 30.1175 18.7507 29.9994 19.9146 29.5247C21.0786 29.0499 22.0751 28.2398 22.7776 27.1973C23.4801 26.1549 23.8569 24.9271 23.86 23.6701V16.6701C25.2514 17.664 26.92 18.1957 28.63 18.1901V14.7901C28.2941 14.7914 27.959 14.7579 27.63 14.6901H27.59Z" fill="white"/>
</svg>
