<svg width="16" height="19" viewBox="0 0 16 19" fill="none" xmlns="http://www.w3.org/2000/svg">
<path d="M10.6667 0H5.33333V1.80952H10.6667V0ZM7.11111 11.7619H8.88889V6.33333H7.11111V11.7619ZM14.2489 5.78143L15.5111 4.49667C15.1289 4.03524 14.7111 3.60095 14.2578 3.22095L12.9956 4.50571C11.6178 3.38381 9.88444 2.71429 8 2.71429C3.58222 2.71429 0 6.36048 0 10.8571C0 15.3538 3.57333 19 8 19C12.4267 19 16 15.3538 16 10.8571C16 8.93905 15.3422 7.17476 14.2489 5.78143ZM8 17.1905C4.56 17.1905 1.77778 14.3586 1.77778 10.8571C1.77778 7.35571 4.56 4.52381 8 4.52381C11.44 4.52381 14.2222 7.35571 14.2222 10.8571C14.2222 14.3586 11.44 17.1905 8 17.1905Z" fill="#102542"/>
</svg>
