<svg width="24" height="25" viewBox="0 0 24 25" fill="none" xmlns="http://www.w3.org/2000/svg">
<path d="M17.25 17.4929C18.0783 17.4929 18.75 16.8117 18.75 15.9717C18.75 15.1318 18.0783 14.4506 17.25 14.4506C16.4217 14.4506 15.75 15.1318 15.75 15.9717C15.75 16.8117 16.4217 17.4929 17.25 17.4929ZM6.75 17.4929C7.57828 17.4929 8.25 16.8117 8.25 15.9717C8.25 15.1318 7.57828 14.4506 6.75 14.4506C5.92172 14.4506 5.25 15.1318 5.25 15.9717C5.25 16.8117 5.92172 17.4929 6.75 17.4929ZM22.875 6.08447H22.5V3.8028C22.5 1.67323 17.85 0 12 0C6.15 0 1.5 1.67323 1.5 3.8028V6.08447H1.125C0.503906 6.08447 0 6.595 0 7.22531V11.0281C0 11.6579 0.503906 12.1689 1.125 12.1689H1.5V19.7745C1.5 20.6145 2.17172 21.2957 3 21.2957V22.8168C3 23.6567 3.67172 24.3379 4.5 24.3379H5.25C6.07828 24.3379 6.75 23.6567 6.75 22.8168V21.2957H17.25V22.8168C17.25 23.6567 17.9217 24.3379 18.75 24.3379H19.5C20.3283 24.3379 21 23.6567 21 22.8168V21.2957C21.8283 21.2957 22.5 20.6145 22.5 19.7745V12.1689H22.875C23.4961 12.1689 24 11.6579 24 11.0281V7.22531C24 6.595 23.4961 6.08447 22.875 6.08447ZM20.25 19.014H3.75V12.9295H20.25V19.014ZM20.25 10.6478H3.75V7.60559H20.25V10.6478ZM20.25 5.32391H3.75V4.06091C4.41469 3.4035 7.34484 2.28168 12 2.28168C16.6552 2.28168 19.5853 3.4035 20.25 4.06091V5.32391Z" fill="#102542"/>
</svg>
