<svg width="20" height="20" viewBox="0 0 20 20" fill="none" xmlns="http://www.w3.org/2000/svg">
<path fill-rule="evenodd" clip-rule="evenodd" d="M14.0454 1.6591C10.9679 0.0045104 7.2297 0.177448 4.31814 2.1091L2.91814 0.722732C2.65864 0.461094 2.26686 0.381993 1.92618 0.522451C1.58549 0.662909 1.3633 0.995137 1.36359 1.36364V6.44546C1.36359 6.94754 1.77061 7.35455 2.27268 7.35455H7.34996C7.71929 7.3567 8.05321 7.13518 8.19484 6.79408C8.33647 6.45297 8.25765 6.06009 7.99541 5.8L6.95905 4.76364C9.11972 3.71008 11.7033 4.07043 13.4932 5.675C15.2831 7.27956 15.9226 9.80852 15.1106 12.0711C14.2986 14.3336 12.1969 15.8787 9.79513 15.9789C7.39337 16.0791 5.1703 14.7143 4.17268 12.5273C3.96965 12.1212 3.49817 11.9272 3.06814 12.0727L1.33177 12.5727C1.08738 12.6463 0.885144 12.8191 0.77448 13.0491C0.663816 13.2791 0.654917 13.545 0.749957 13.7818C2.37866 17.6511 6.34415 20.0021 10.5204 19.5743C14.6966 19.1465 18.1031 16.0405 18.9136 11.9214C19.7241 7.80228 17.7483 3.63716 14.0454 1.6591Z" fill="#2F80ED"/>
</svg>
