<svg width="152" height="124" viewBox="0 0 152 124" fill="none" xmlns="http://www.w3.org/2000/svg">
<path fill-rule="evenodd" clip-rule="evenodd" d="M148.641 98.8843L89.1788 7.4718C86.2542 2.9804 81.2576 0.271484 75.898 0.271484C70.5383 0.271484 65.5418 2.9804 62.6172 7.4718L3.02788 98.8843C-0.144424 103.752 -0.398905 109.965 2.36471 115.076C5.12832 120.187 10.4669 123.375 16.277 123.386H135.36C141.176 123.387 146.525 120.203 149.297 115.09C152.068 109.977 151.817 103.757 148.641 98.8843ZM75.7395 101.198C72.2384 101.198 69.4002 98.3601 69.4002 94.859C69.4002 91.3579 72.2384 88.5197 75.7395 88.5197C79.2406 88.5197 82.0788 91.3579 82.0788 94.859C82.0792 98.3233 79.2985 101.146 75.8346 101.198H75.7395ZM82.0788 72.6715C82.0788 76.1726 79.2406 79.0108 75.7395 79.0108C72.2384 79.0108 69.4002 76.1726 69.4002 72.6715V37.8054C69.4002 34.3043 72.2384 31.4661 75.7395 31.4661C79.2406 31.4661 82.0788 34.3043 82.0788 37.8054V72.6715Z" fill="#F1C335"/>
</svg>
