<svg width="40" height="40" viewBox="0 0 40 40" fill="none" xmlns="http://www.w3.org/2000/svg">
<circle cx="20" cy="20" r="20" fill="#02D0AA"/>
<path d="M24.7227 22.0602C24.4672 21.9289 23.1945 21.3055 22.9578 21.2211C22.7211 21.132 22.5477 21.0898 22.3766 21.3523C22.2031 21.6125 21.7109 22.1914 21.5562 22.3672C21.4062 22.5406 21.2539 22.5617 20.9984 22.4328C19.4797 21.6734 18.4836 21.0781 17.4828 19.3602C17.218 18.9031 17.7477 18.9359 18.2422 17.9492C18.3266 17.7758 18.2844 17.6281 18.2187 17.4969C18.1531 17.3656 17.6375 16.0953 17.4219 15.5773C17.2133 15.0734 16.9977 15.1437 16.8406 15.1344C16.6906 15.125 16.5195 15.125 16.3461 15.125C16.1727 15.125 15.8937 15.1906 15.657 15.4461C15.4203 15.7063 14.7523 16.332 14.7523 17.6023C14.7523 18.8727 15.6781 20.1031 15.8047 20.2766C15.9359 20.45 17.6258 23.0563 20.2203 24.1789C21.8609 24.8867 22.5031 24.9477 23.3234 24.8258C23.8227 24.7508 24.8516 24.2023 25.0648 23.5953C25.2781 22.9906 25.2781 22.4727 25.2148 22.3648C25.1516 22.25 24.9781 22.1844 24.7227 22.0602Z" fill="white"/>
<path d="M29.6844 15.9312C29.1547 14.6727 28.3953 13.543 27.4273 12.5727C26.4594 11.6047 25.3297 10.843 24.0688 10.3156C22.7797 9.77422 21.4109 9.5 20 9.5H19.9531C18.5328 9.50703 17.157 9.78828 15.8633 10.3414C14.6141 10.8758 13.4938 11.6352 12.5352 12.6031C11.5766 13.5711 10.8242 14.6961 10.3039 15.95C9.76485 17.2484 9.49297 18.6289 9.5 20.0492C9.50703 21.6758 9.8961 23.2906 10.625 24.7344V28.2969C10.625 28.8922 11.1078 29.375 11.7031 29.375H15.268C16.7117 30.1039 18.3266 30.493 19.9531 30.5H20.0023C21.4063 30.5 22.768 30.2281 24.05 29.6961C25.3039 29.1734 26.4313 28.4234 27.3969 27.4648C28.3648 26.5063 29.1266 25.3859 29.6586 24.1367C30.2117 22.843 30.493 21.4672 30.5 20.0469C30.507 18.6195 30.2305 17.2344 29.6844 15.9312ZM26.143 26.1969C24.5 27.8234 22.3203 28.7188 20 28.7188H19.9602C18.5469 28.7117 17.143 28.3602 15.9031 27.6992L15.7063 27.5938H12.4063V24.2938L12.3008 24.0969C11.6398 22.857 11.2883 21.4531 11.2813 20.0398C11.2719 17.7031 12.1648 15.5094 13.8031 13.857C15.4391 12.2047 17.6258 11.2906 19.9625 11.2812H20.0023C21.1742 11.2812 22.3109 11.5086 23.382 11.9586C24.4273 12.3969 25.3648 13.0273 26.1711 13.8336C26.975 14.6375 27.6078 15.5773 28.0461 16.6227C28.5008 17.7055 28.7281 18.8539 28.7234 20.0398C28.7094 22.3742 27.793 24.5609 26.143 26.1969Z" fill="white"/>
</svg>
