<svg width="21" height="22" viewBox="0 0 21 22" fill="none" xmlns="http://www.w3.org/2000/svg">
<path d="M17.1462 3.55156C15.26 1.58281 12.7482 0.5 10.0788 0.5C4.56901 0.5 0.0855283 5.16875 0.0855283 10.9062C0.0855283 12.7391 0.54468 14.5297 1.41797 16.1094L0 21.5L5.29825 20.0516C6.75673 20.8813 8.39978 21.3172 10.0743 21.3172H10.0788C15.5842 21.3172 20.1667 16.6484 20.1667 10.9109C20.1667 8.13125 19.0323 5.52031 17.1462 3.55156ZM10.0788 19.5641C8.58434 19.5641 7.12135 19.1469 5.84743 18.3594L5.54583 18.1719L2.40379 19.0297L3.24107 15.8375L3.04301 15.5094C2.21023 14.1313 1.77359 12.5422 1.77359 10.9062C1.77359 6.13906 5.50082 2.25781 10.0833 2.25781C12.3026 2.25781 14.3868 3.15781 15.9533 4.79375C17.5198 6.42969 18.4831 8.6 18.4786 10.9109C18.4786 15.6828 14.6568 19.5641 10.0788 19.5641ZM14.6343 13.0859C14.3868 12.9547 13.1579 12.3266 12.9283 12.2422C12.6987 12.1531 12.5321 12.1109 12.3656 12.3734C12.199 12.6359 11.7219 13.2172 11.5733 13.3953C11.4293 13.5688 11.2807 13.5922 11.0331 13.4609C9.56566 12.6969 8.60234 12.0969 7.63452 10.3672C7.37794 9.90781 7.89111 9.94063 8.36827 8.94687C8.44929 8.77344 8.40878 8.62344 8.34576 8.49219C8.28274 8.36094 7.78307 7.08125 7.576 6.56094C7.37344 6.05469 7.16637 6.125 7.01332 6.11563C6.86927 6.10625 6.70272 6.10625 6.53616 6.10625C6.36961 6.10625 6.09952 6.17188 5.86994 6.42969C5.64036 6.69219 4.99665 7.32031 4.99665 8.6C4.99665 9.87969 5.89245 11.1172 6.01399 11.2906C6.14003 11.4641 7.77407 14.0891 10.2814 15.2188C11.8659 15.9312 12.4871 15.9922 13.2794 15.8703C13.761 15.7953 14.7559 15.2422 14.9629 14.6328C15.17 14.0234 15.17 13.5031 15.107 13.3953C15.0485 13.2781 14.8819 13.2125 14.6343 13.0859Z" fill="#02D0AA"/>
</svg>
