<svg width="19" height="23" viewBox="0 0 19 23" fill="none" xmlns="http://www.w3.org/2000/svg">
<path d="M17.8818 6.8499C17.295 5.53898 16.4643 4.34573 15.4319 3.3307C14.401 2.33123 13.1881 1.52857 11.8556 0.964011C10.4781 0.38097 8.99245 0.0814792 7.49123 0.0842166H1.31578C0.967269 0.0856912 0.633462 0.221559 0.387028 0.462252C0.140595 0.702944 0.0015098 1.02898 0 1.36936V6.05416V6.35863C0 8.28822 1.42477 9.84796 3.40421 9.84796C5.50795 9.84796 6.8467 8.4694 7.03795 7.70541C7.37264 6.3717 6.51394 5.4639 4.89596 5.87858C3.27799 6.29327 3.07144 6.37731 2.79222 5.95702C2.50343 5.50872 3.4348 3.7155 5.50221 3.51189C7.77426 3.29708 9.02122 4.44586 9.48787 5.32753C10.9318 8.03044 8.28492 9.68172 8.39584 10.0329C8.50677 10.3841 9.19528 10.0217 9.93924 9.74335C12.2094 8.89157 14.1142 9.76015 14.8142 10.5279C14.9786 10.6727 15.0811 10.8729 15.1011 11.0883C15.0792 11.2999 14.9768 11.4959 14.8142 11.6374C14.1142 12.407 12.2094 13.2738 9.93924 12.4238C9.19528 12.1455 8.50485 11.7832 8.39584 12.1343C8.28683 12.4855 10.9318 14.1349 9.48787 16.8378C9.02122 17.7101 7.76661 18.8701 5.50221 18.6553C3.4348 18.4685 2.50343 16.6566 2.79222 16.2102C3.081 15.7637 3.26843 15.8646 4.89596 16.2886C6.5235 16.7127 7.3822 15.7955 7.03795 14.4618C6.8467 13.6978 5.50795 12.3174 3.40421 12.3174C1.42477 12.3174 0.00764999 13.8771 0 15.8067V20.796C0.00100916 21.1365 0.139927 21.4628 0.386468 21.7036C0.63301 21.9444 0.967114 22.0801 1.31578 22.0811H7.49123C8.99274 22.0867 10.479 21.7871 11.8556 21.2013C13.2006 20.6447 14.4242 19.842 15.4606 18.8365C16.4754 17.8126 17.2953 16.6203 17.8818 15.3154C18.4574 13.9741 18.7539 12.5343 18.7539 11.0799C18.7539 9.62548 18.4574 8.18563 17.8818 6.8443V6.8499Z" fill="#02D0AA"/>
</svg>
