<svg xmlns="http://www.w3.org/2000/svg" id="Слой_1" data-name="Слой 1" viewBox="0 0 160 160"><defs><style>.cls-1{fill:#edf4fc;stroke:#374069;stroke-miterlimit:10;stroke-width:5px;}.cls-2{fill:#374069;}</style></defs><circle class="cls-1" cx="80" cy="80" r="77.5"/><path class="cls-2" d="M706.4,365.84a35.3,35.3,0,0,1,25.94,10.92,36.37,36.37,0,0,1,10.85,26.63,35.92,35.92,0,0,1-10.71,26.33,35.28,35.28,0,0,1-26,10.77q-16,0-26.6-11.06a37.36,37.36,0,0,1,26.5-63.59Zm-.15,13.24a22.35,22.35,0,0,0-16.59,6.86q-6.72,6.87-6.72,17.45,0,11.79,8.47,18.65a23.21,23.21,0,0,0,15.09,5.36,22,22,0,0,0,16.39-7,25.05,25.05,0,0,0,0-34.33A22.25,22.25,0,0,0,706.25,379.08Z" transform="translate(-626.26 -304.49)"/><path class="cls-2" d="M113.6,24h3.31a0,0,0,0,1,0,0V98.75a0,0,0,0,1,0,0H103.39a0,0,0,0,1,0,0V34.22A10.22,10.22,0,0,1,113.6,24Z"/></svg>