<svg width="24" height="24" viewBox="0 0 24 24" xmlns="http://www.w3.org/2000/svg">
    <symbol viewBox="0 0 24 24" id="loupe">
        <path d="M20.8761 19.484L16.6083 15.2162C16.5275 15.1353 16.422 15.0932 16.3095 15.0932H15.8455C16.9528 13.81 17.6243 12.1402 17.6243 10.3121C17.6243 6.27289 14.3514 3 10.3121 3C6.27289 3 3 6.27289 3 10.3121C3 14.3514 6.27289 17.6243 10.3121 17.6243C12.1402 17.6243 13.81 16.9528 15.0932 15.8455V16.3095C15.0932 16.422 15.1389 16.5275 15.2162 16.6083L19.484 20.8761C19.6492 21.0413 19.9164 21.0413 20.0816 20.8761L20.8761 20.0816C21.0413 19.9164 21.0413 19.6492 20.8761 19.484ZM10.3121 15.9369C7.20448 15.9369 4.68742 13.4198 4.68742 10.3121C4.68742 7.20448 7.20448 4.68742 10.3121 4.68742C13.4198 4.68742 15.9369 7.20448 15.9369 10.3121C15.9369 13.4198 13.4198 15.9369 10.3121 15.9369Z"/>
    </symbol>
</svg>